<svg width="20" height="20" viewBox="0 0 20 20" fill="none" xmlns="http://www.w3.org/2000/svg">
<g id="vuesax/bulk/arrow-left">
<g id="arrow-left">
<path id="Vector" opacity="0.4" d="M10.0013 18.3334C14.6037 18.3334 18.3346 14.6025 18.3346 10.0001C18.3346 5.39771 14.6037 1.66675 10.0013 1.66675C5.39893 1.66675 1.66797 5.39771 1.66797 10.0001C1.66797 14.6025 5.39893 18.3334 10.0013 18.3334Z" fill="black"/>
<path id="Vector_2" d="M12.9172 9.37511H8.59219L10.0255 7.94178C10.2672 7.70011 10.2672 7.30011 10.0255 7.05845C9.78385 6.81678 9.38385 6.81678 9.14219 7.05845L6.64219 9.55845C6.40052 9.80011 6.40052 10.2001 6.64219 10.4418L9.14219 12.9418C9.26719 13.0668 9.42552 13.1251 9.58385 13.1251C9.74219 13.1251 9.90052 13.0668 10.0255 12.9418C10.2672 12.7001 10.2672 12.3001 10.0255 12.0584L8.59219 10.6251H12.9172C13.2589 10.6251 13.5422 10.3418 13.5422 10.0001C13.5422 9.65845 13.2589 9.37511 12.9172 9.37511Z" fill="black"/>
</g>
</g>
</svg>
