<svg width="20" height="20" viewBox="0 0 20 20" fill="none" xmlns="http://www.w3.org/2000/svg">
<path opacity="0.4" d="M10.0001 18.3334C14.6025 18.3334 18.3334 14.6025 18.3334 10.0001C18.3334 5.39771 14.6025 1.66675 10.0001 1.66675C5.39771 1.66675 1.66675 5.39771 1.66675 10.0001C1.66675 14.6025 5.39771 18.3334 10.0001 18.3334Z" fill="white"/>
<path d="M9.99989 12.5084C9.84155 12.5084 9.68322 12.4501 9.55822 12.3251L6.61655 9.38343C6.37489 9.14176 6.37489 8.74176 6.61655 8.5001C6.85822 8.25843 7.25822 8.25843 7.49989 8.5001L9.99989 11.0001L12.4999 8.5001C12.7416 8.25843 13.1416 8.25843 13.3832 8.5001C13.6249 8.74176 13.6249 9.14176 13.3832 9.38343L10.4416 12.3251C10.3166 12.4501 10.1582 12.5084 9.99989 12.5084Z" fill="white"/>
</svg>
