<svg width="28" height="28" viewBox="0 0 28 28" fill="none" xmlns="http://www.w3.org/2000/svg">
<g id="bulb-filled-svgrepo-com 1">
<g id="Page-1">
<g id="bulb-white">
<path id="Combined-Shape" fill-rule="evenodd" clip-rule="evenodd" d="M14.0002 5.83329C17.8662 5.83329 21.0002 8.9673 21.0002 12.8333C21.0002 15.4243 19.5925 17.6865 17.5002 18.8968L17.5002 23.3333L16.3335 24.5H15.1668C15.1668 25.1443 14.6445 25.6666 14.0002 25.6666C13.3558 25.6666 12.8335 25.1443 12.8335 24.5H11.6668L10.5002 23.3333L10.5001 18.8968C8.40785 17.6865 7.00016 15.4243 7.00016 12.8333C7.00016 8.9673 10.1342 5.83329 14.0002 5.83329ZM15.1669 19.7365C14.7875 19.8002 14.3977 19.8333 14.0002 19.8333C13.6026 19.8333 13.2129 19.8002 12.8334 19.7365L12.8335 22.1666H15.1668L15.1669 19.7365ZM7.60674 17.9893L8.84418 19.2267L6.3693 21.7016L5.13187 20.4642L7.60674 17.9893ZM20.3936 17.9893L22.8685 20.4642L21.631 21.7016L19.1561 19.2267L20.3936 17.9893ZM25.6668 11.9583V13.7083H22.1668V11.9583H25.6668ZM5.8335 11.9583V13.7083H2.3335V11.9583H5.8335ZM21.631 3.965L22.8685 5.20243L20.3936 7.67731L19.1561 6.43987L21.631 3.965ZM6.3693 3.965L8.84418 6.43987L7.60674 7.67731L5.13187 5.20243L6.3693 3.965ZM14.8752 1.16663V4.66663H13.1252V1.16663H14.8752Z" fill="#BDB59E"/>
</g>
</g>
</g>
</svg>
