<svg width="20" height="20" viewBox="0 0 20 20" fill="none" xmlns="http://www.w3.org/2000/svg">
<g id="vuesax/bulk/calculator">
<g id="calculator">
<path id="Vector" opacity="0.4" d="M6.66667 18.3332H13.3333C15.6333 18.3332 17.5 16.4665 17.5 14.1665V5.83317C17.5 3.53317 15.6333 1.6665 13.3333 1.6665H6.66667C4.36667 1.6665 2.5 3.53317 2.5 5.83317V14.1665C2.5 16.4665 4.36667 18.3332 6.66667 18.3332Z" fill="white"/>
<path id="Vector_2" d="M12.5 4.7583H7.50002C6.64168 4.7583 5.93335 5.4583 5.93335 6.32497V7.1583C5.93335 8.01663 6.63335 8.72497 7.50002 8.72497H12.5C13.3583 8.72497 14.0667 8.02497 14.0667 7.1583V6.32497C14.0667 5.4583 13.3667 4.7583 12.5 4.7583Z" fill="white"/>
<path id="Vector_3" d="M6.80035 12.4335C6.68368 12.4335 6.57535 12.4085 6.47535 12.3668C6.37535 12.3252 6.28368 12.2668 6.20868 12.1918C6.05035 12.0335 5.95868 11.8252 5.95868 11.6002C5.95868 11.4918 5.98368 11.3835 6.02535 11.2835C6.06701 11.1752 6.12535 11.0918 6.20868 11.0085C6.40035 10.8168 6.69201 10.7252 6.95868 10.7835C7.00868 10.7918 7.06701 10.8085 7.11701 10.8335C7.16701 10.8502 7.21701 10.8752 7.25868 10.9085C7.30868 10.9335 7.35035 10.9752 7.38368 11.0085C7.45868 11.0918 7.52535 11.1752 7.56701 11.2835C7.60868 11.3835 7.62535 11.4918 7.62535 11.6002C7.62535 11.8252 7.54201 12.0335 7.38368 12.1918C7.22535 12.3502 7.01701 12.4335 6.80035 12.4335Z" fill="white"/>
<path id="Vector_4" d="M10.1253 12.4331C9.90866 12.4331 9.70033 12.3498 9.54199 12.1914C9.38366 12.0331 9.29199 11.8248 9.29199 11.5998C9.29199 11.3831 9.38366 11.1664 9.54199 11.0081C9.85033 10.6998 10.4087 10.6998 10.717 11.0081C10.792 11.0914 10.8587 11.1748 10.9003 11.2831C10.942 11.3831 10.9587 11.4914 10.9587 11.5998C10.9587 11.8248 10.8753 12.0331 10.717 12.1914C10.5587 12.3498 10.3503 12.4331 10.1253 12.4331Z" fill="white"/>
<path id="Vector_5" d="M13.4586 12.4331C13.242 12.4331 13.0336 12.3498 12.8753 12.1914C12.717 12.0331 12.6253 11.8248 12.6253 11.5998C12.6253 11.3831 12.717 11.1664 12.8753 11.0081C13.1836 10.6998 13.742 10.6998 14.0503 11.0081C14.2086 11.1664 14.3003 11.3831 14.3003 11.5998C14.3003 11.7081 14.2753 11.8164 14.2336 11.9164C14.192 12.0164 14.1336 12.1081 14.0503 12.1914C13.892 12.3498 13.6836 12.4331 13.4586 12.4331Z" fill="white"/>
<path id="Vector_6" d="M6.80035 15.7665C6.57535 15.7665 6.36701 15.6832 6.20868 15.5248C6.05035 15.3665 5.95868 15.1582 5.95868 14.9332C5.95868 14.7165 6.05035 14.4998 6.20868 14.3415C6.28368 14.2665 6.37535 14.2082 6.47535 14.1665C6.68368 14.0832 6.90868 14.0832 7.11701 14.1665C7.16701 14.1832 7.21701 14.2082 7.25868 14.2415C7.30868 14.2665 7.35035 14.3082 7.38368 14.3415C7.54201 14.4998 7.63368 14.7165 7.63368 14.9332C7.63368 15.1582 7.54201 15.3665 7.38368 15.5248C7.22535 15.6832 7.01701 15.7665 6.80035 15.7665Z" fill="white"/>
<path id="Vector_7" d="M10.1253 15.7665C9.90866 15.7665 9.70033 15.6832 9.54199 15.5249C9.38366 15.3665 9.29199 15.1582 9.29199 14.9332C9.29199 14.8749 9.30033 14.8249 9.30866 14.7665C9.32533 14.7165 9.34199 14.6665 9.35866 14.6165C9.38366 14.5665 9.40866 14.5165 9.43366 14.4665C9.46699 14.4249 9.50033 14.3832 9.54199 14.3415C9.61699 14.2665 9.70866 14.2082 9.80866 14.1665C10.117 14.0415 10.4837 14.1082 10.717 14.3415C10.8753 14.4999 10.9587 14.7165 10.9587 14.9332C10.9587 15.1582 10.8753 15.3665 10.717 15.5249C10.642 15.5999 10.5503 15.6582 10.4503 15.6999C10.3503 15.7415 10.242 15.7665 10.1253 15.7665Z" fill="white"/>
<path id="Vector_8" d="M13.4584 15.7665C13.35 15.7665 13.2417 15.7415 13.1417 15.6999C13.0417 15.6582 12.95 15.5999 12.875 15.5249C12.7167 15.3665 12.6334 15.1582 12.6334 14.9332C12.6334 14.7165 12.7167 14.4999 12.875 14.3415C13.1 14.1082 13.475 14.0415 13.7834 14.1665C13.8834 14.2082 13.975 14.2665 14.05 14.3415C14.2084 14.4999 14.2917 14.7165 14.2917 14.9332C14.2917 15.1582 14.2084 15.3665 14.05 15.5249C13.8917 15.6832 13.6834 15.7665 13.4584 15.7665Z" fill="white"/>
</g>
</g>
</svg>
