<svg width="44" height="44" viewBox="0 0 44 44" fill="none" xmlns="http://www.w3.org/2000/svg">
<rect width="44" height="44" rx="22" fill="#F2F2F7"/>
<path d="M13.8333 19.6667C12.55 19.6667 11.5 20.7167 11.5 22.0001C11.5 23.2834 12.55 24.3334 13.8333 24.3334C15.1167 24.3334 16.1667 23.2834 16.1667 22.0001C16.1667 20.7167 15.1167 19.6667 13.8333 19.6667Z" fill="#AEAEB2" stroke="#8E8E93" stroke-width="0.1"/>
<path d="M30.1654 19.6667C28.882 19.6667 27.832 20.7167 27.832 22.0001C27.832 23.2834 28.882 24.3334 30.1654 24.3334C31.4487 24.3334 32.4987 23.2834 32.4987 22.0001C32.4987 20.7167 31.4487 19.6667 30.1654 19.6667Z" fill="#AEAEB2" stroke="#8E8E93" stroke-width="0.1"/>
<path d="M22.0013 19.6667C20.718 19.6667 19.668 20.7167 19.668 22.0001C19.668 23.2834 20.718 24.3334 22.0013 24.3334C23.2846 24.3334 24.3346 23.2834 24.3346 22.0001C24.3346 20.7167 23.2846 19.6667 22.0013 19.6667Z" fill="#AEAEB2" stroke="#8E8E93" stroke-width="0.1"/>
</svg>
