<svg width="36" height="36" viewBox="0 0 36 36" fill="none" xmlns="http://www.w3.org/2000/svg">
<rect width="36" height="36" rx="18" fill="#F7F2F5"/>
<path opacity="0.4" d="M15.4661 11.3885L11.5693 15.0376C9.96932 16.536 9.88678 19.0513 11.3848 20.6596L14.9212 24.4359C16.4196 26.0359 18.9349 26.1185 20.5432 24.6204L24.4319 20.9626C25.2491 20.1974 25.7097 19.1202 25.688 18.0022L25.6248 13.8313C25.6045 12.163 24.3236 10.7953 22.6689 10.6576L18.5111 10.3211C17.3883 10.2342 16.2833 10.6232 15.4661 11.3885Z" fill="#610037"/>
<path d="M17.7528 15.9073C17.7093 17.2321 18.748 18.3413 20.0728 18.3847C21.3976 18.4282 22.5067 17.3895 22.5502 16.0647C22.5937 14.74 21.555 13.6308 20.2302 13.5873C18.9054 13.5438 17.7962 14.5825 17.7528 15.9073Z" fill="#610037"/>
<path d="M13.1859 18.676C13.1911 18.5177 13.2546 18.3614 13.3837 18.2405C13.6331 18.0069 14.0329 18.02 14.2665 18.2695L17.4887 21.7104C17.7224 21.9598 17.7092 22.3596 17.4598 22.5932C17.2103 22.8268 16.8105 22.8137 16.5769 22.5643L13.3547 19.1234C13.2339 18.9944 13.1808 18.8342 13.1859 18.676Z" fill="#610037"/>
</svg>
