<svg width="32" height="32" viewBox="0 0 32 32" fill="none" xmlns="http://www.w3.org/2000/svg">
<g clip-path="url(#clip0_5533_86229)">
<rect width="32" height="32" rx="16" fill="#EFE5EB"/>
<path d="M16.0013 17.3334C15.2546 17.3334 14.668 16.7334 14.668 16.0001C14.668 15.2667 15.268 14.6667 16.0013 14.6667C16.7346 14.6667 17.3346 15.2667 17.3346 16.0001C17.3346 16.7334 16.748 17.3334 16.0013 17.3334Z" fill="#904D73"/>
<path d="M21.3333 17.3334C20.5867 17.3334 20 16.7334 20 16.0001C20 15.2667 20.6 14.6667 21.3333 14.6667C22.0667 14.6667 22.6667 15.2667 22.6667 16.0001C22.6667 16.7334 22.08 17.3334 21.3333 17.3334Z" fill="#904D73"/>
<path d="M10.6654 17.3334C9.9187 17.3334 9.33203 16.7334 9.33203 16.0001C9.33203 15.2667 9.93203 14.6667 10.6654 14.6667C11.3987 14.6667 11.9987 15.2667 11.9987 16.0001C11.9987 16.7334 11.412 17.3334 10.6654 17.3334Z" fill="#904D73"/>
</g>
<rect x="0.5" y="0.5" width="31" height="31" rx="15.5" stroke="#EFE5EB"/>
<defs>
<clipPath id="clip0_5533_86229">
<rect width="32" height="32" rx="16" fill="white"/>
</clipPath>
</defs>
</svg>
