<svg width="48" height="48" viewBox="0 0 48 48" fill="none" xmlns="http://www.w3.org/2000/svg">
<g clip-path="url(#clip0_6646_1500)">
<rect width="48" height="48" rx="24" fill="#F2F2F7"/>
<path opacity="0.4" d="M24.0007 35.6666C30.444 35.6666 35.6673 30.4432 35.6673 23.9999C35.6673 17.5566 30.444 12.3333 24.0007 12.3333C17.5573 12.3333 12.334 17.5566 12.334 23.9999C12.334 30.4432 17.5573 35.6666 24.0007 35.6666Z" fill="#8E8E93"/>
<path d="M25.2366 23.9999L27.9199 21.3166C28.2583 20.9783 28.2583 20.4183 27.9199 20.0799C27.5816 19.7416 27.0216 19.7416 26.6833 20.0799L23.9999 22.7633L21.3166 20.0799C20.9783 19.7416 20.4183 19.7416 20.0799 20.0799C19.7416 20.4183 19.7416 20.9783 20.0799 21.3166L22.7633 23.9999L20.0799 26.6833C19.7416 27.0216 19.7416 27.5816 20.0799 27.9199C20.2549 28.0949 20.4766 28.1766 20.6983 28.1766C20.9199 28.1766 21.1416 28.0949 21.3166 27.9199L23.9999 25.2366L26.6833 27.9199C26.8583 28.0949 27.0799 28.1766 27.3016 28.1766C27.5233 28.1766 27.7449 28.0949 27.9199 27.9199C28.2583 27.5816 28.2583 27.0216 27.9199 26.6833L25.2366 23.9999Z" fill="#8E8E93"/>
</g>
<defs>
<clipPath id="clip0_6646_1500">
<rect width="48" height="48" rx="24" fill="white"/>
</clipPath>
</defs>
</svg>
