<svg width="40" height="40" viewBox="0 0 40 40" fill="none" xmlns="http://www.w3.org/2000/svg">
<g id="vuesax/bulk/close-circle">
<g id="close-circle">
<path id="Vector" opacity="0.4" d="M20 36.6667C29.2048 36.6667 36.6667 29.2047 36.6667 20C36.6667 10.7953 29.2048 3.33333 20 3.33333C10.7953 3.33333 3.33334 10.7953 3.33334 20C3.33334 29.2047 10.7953 36.6667 20 36.6667Z" fill="#711A4B"/>
<path id="Vector_2" d="M21.7673 20L25.6006 16.1666C26.0839 15.6833 26.0839 14.8833 25.6006 14.4C25.1173 13.9166 24.3173 13.9166 23.8339 14.4L20.0006 18.2333L16.1673 14.4C15.6839 13.9166 14.8839 13.9166 14.4006 14.4C13.9173 14.8833 13.9173 15.6833 14.4006 16.1666L18.2339 20L14.4006 23.8333C13.9173 24.3166 13.9173 25.1166 14.4006 25.6C14.6506 25.85 14.9673 25.9666 15.2839 25.9666C15.6006 25.9666 15.9173 25.85 16.1673 25.6L20.0006 21.7666L23.8339 25.6C24.0839 25.85 24.4006 25.9666 24.7173 25.9666C25.0339 25.9666 25.3506 25.85 25.6006 25.6C26.0839 25.1166 26.0839 24.3166 25.6006 23.8333L21.7673 20Z" fill="#711A4B"/>
</g>
</g>
</svg>
