<svg width="36" height="36" viewBox="0 0 36 36" fill="none" xmlns="http://www.w3.org/2000/svg">
<path opacity="0.4" d="M18 33C26.2843 33 33 26.2843 33 18C33 9.71573 26.2843 3 18 3C9.71573 3 3 9.71573 3 18C3 26.2843 9.71573 33 18 33Z" fill="#C099AF"/>
<path d="M19.5905 18L23.0405 14.55C23.4755 14.115 23.4755 13.395 23.0405 12.96C22.6055 12.525 21.8855 12.525 21.4505 12.96L18.0005 16.41L14.5505 12.96C14.1155 12.525 13.3955 12.525 12.9605 12.96C12.5255 13.395 12.5255 14.115 12.9605 14.55L16.4105 18L12.9605 21.45C12.5255 21.885 12.5255 22.605 12.9605 23.04C13.1855 23.265 13.4705 23.37 13.7555 23.37C14.0405 23.37 14.3255 23.265 14.5505 23.04L18.0005 19.59L21.4505 23.04C21.6755 23.265 21.9605 23.37 22.2455 23.37C22.5305 23.37 22.8155 23.265 23.0405 23.04C23.4755 22.605 23.4755 21.885 23.0405 21.45L19.5905 18Z" fill="#C099AF"/>
</svg>
