<svg width="41" height="40" viewBox="0 0 41 40" fill="none" xmlns="http://www.w3.org/2000/svg">
<g filter="url(#filter0_d_4462_46168)">
<rect x="2.5" y="1" width="36" height="36" rx="18" fill="#F7F2F5"/>
<rect x="3" y="1.5" width="35" height="35" rx="17.5" stroke="#F7F2F5"/>
<path opacity="0.4" d="M23.9915 10.6666H17.0165C13.9831 10.6666 12.1748 12.475 12.1748 15.5083V22.4833C12.1748 25.5166 13.9831 27.325 17.0165 27.325H23.9915C27.0248 27.325 28.8331 25.5166 28.8331 22.4833V15.5083C28.8331 12.475 27.0248 10.6666 23.9915 10.6666Z" fill="#610037"/>
<path d="M22.1004 16.7333L22.1421 19.1916L24.3337 19.1583C24.4921 19.1583 24.6087 19.2999 24.5837 19.4499L24.292 21.0416C24.267 21.1583 24.1671 21.2416 24.0504 21.2499L22.1754 21.2833L22.2754 27.3249L19.7754 27.3666L19.6754 21.3249L18.2587 21.3499C18.1171 21.3499 18.0087 21.2416 18.0087 21.0999L17.9837 19.5166C17.9837 19.3749 18.0921 19.2666 18.2337 19.2666L19.6504 19.2416L19.6087 16.5333C19.5837 15.1499 20.6837 14.0166 22.0671 13.9916L24.317 13.9583C24.4587 13.9583 24.5671 14.0666 24.5671 14.2083L24.6004 16.2083C24.6004 16.3499 24.4921 16.4583 24.3504 16.4583L22.3504 16.4916C22.2087 16.4833 22.1004 16.5999 22.1004 16.7333Z" fill="#610037"/>
</g>
<defs>
<filter id="filter0_d_4462_46168" x="0.5" y="0" width="40" height="40" filterUnits="userSpaceOnUse" color-interpolation-filters="sRGB">
<feFlood flood-opacity="0" result="BackgroundImageFix"/>
<feColorMatrix in="SourceAlpha" type="matrix" values="0 0 0 0 0 0 0 0 0 0 0 0 0 0 0 0 0 0 127 0" result="hardAlpha"/>
<feOffset dy="1"/>
<feGaussianBlur stdDeviation="1"/>
<feColorMatrix type="matrix" values="0 0 0 0 0.0392157 0 0 0 0 0.0496732 0 0 0 0 0.0705882 0 0 0 0.05 0"/>
<feBlend mode="normal" in2="BackgroundImageFix" result="effect1_dropShadow_4462_46168"/>
<feBlend mode="normal" in="SourceGraphic" in2="effect1_dropShadow_4462_46168" result="shape"/>
</filter>
</defs>
</svg>
