<svg width="56" height="56" viewBox="0 0 56 56" fill="none" xmlns="http://www.w3.org/2000/svg">
<rect width="56" height="56" rx="28" fill="black" fill-opacity="0.03"/>
<path opacity="0.4" d="M37.298 25.6666V35C37.298 38.5 36.1313 39.6666 32.6313 39.6666H23.298C19.798 39.6666 18.6313 38.5 18.6313 35V25.6666H37.298Z" fill="#292D32"/>
<path d="M39.0834 22.1667V23.3334C39.0834 24.6167 38.465 25.6667 36.75 25.6667H19.25C17.465 25.6667 16.9167 24.6167 16.9167 23.3334V22.1667C16.9167 20.8834 17.465 19.8334 19.25 19.8334H36.75C38.465 19.8334 39.0834 20.8834 39.0834 22.1667Z" fill="#807D9A"/>
<path opacity="0.4" d="M27.58 19.8334H21.14C20.7433 19.4017 20.755 18.7367 21.175 18.3167L22.8317 16.6601C23.2633 16.2284 23.975 16.2284 24.4067 16.6601L27.58 19.8334Z" fill="#807D9A"/>
<path opacity="0.4" d="M34.8479 19.8334H28.4079L31.5812 16.6601C32.0129 16.2284 32.7246 16.2284 33.1562 16.6601L34.8129 18.3167C35.2329 18.7367 35.2446 19.4017 34.8479 19.8334Z" fill="#807D9A"/>
<path opacity="0.6" d="M24.4305 25.6666V31.6633C24.4305 32.5966 25.4571 33.145 26.2388 32.6433L27.3355 31.92C27.7321 31.6633 28.2338 31.6633 28.6188 31.92L29.6571 32.62C30.4271 33.1333 31.4655 32.585 31.4655 31.6516V25.6666H24.4305Z" fill="#807D9A"/>
</svg>
