<svg width="20" height="20" viewBox="0 0 20 20" fill="none" xmlns="http://www.w3.org/2000/svg">
<path opacity="0.4" d="M16.6419 8.3335V15.0002C16.6419 17.5002 15.8086 18.3335 13.3086 18.3335H6.64193C4.14193 18.3335 3.30859 17.5002 3.30859 15.0002V8.3335H16.6419Z" fill="#81335F"/>
<path d="M17.9154 5.83317V6.6665C17.9154 7.58317 17.4737 8.33317 16.2487 8.33317H3.7487C2.4737 8.33317 2.08203 7.58317 2.08203 6.6665V5.83317C2.08203 4.9165 2.4737 4.1665 3.7487 4.1665H16.2487C17.4737 4.1665 17.9154 4.9165 17.9154 5.83317Z" fill="#81335F"/>
<path opacity="0.4" d="M9.70096 4.16686H5.10096C4.81763 3.85853 4.82596 3.38353 5.12596 3.08353L6.30929 1.9002C6.61763 1.59186 7.12596 1.59186 7.43429 1.9002L9.70096 4.16686Z" fill="#81335F"/>
<path opacity="0.4" d="M14.893 4.16686H10.293L12.5596 1.9002C12.868 1.59186 13.3763 1.59186 13.6846 1.9002L14.868 3.08353C15.168 3.38353 15.1763 3.85853 14.893 4.16686Z" fill="#81335F"/>
<path opacity="0.6" d="M7.44922 8.3335V12.6168C7.44922 13.2835 8.18255 13.6752 8.74089 13.3168L9.52422 12.8002C9.80755 12.6168 10.1659 12.6168 10.4409 12.8002L11.1826 13.3002C11.7326 13.6668 12.4742 13.2752 12.4742 12.6085V8.3335H7.44922Z" fill="#81335F"/>
</svg>
