<svg width="41" height="40" viewBox="0 0 41 40" fill="none" xmlns="http://www.w3.org/2000/svg">
<g filter="url(#filter0_d_4808_32151)">
<rect x="2.5" y="1" width="36" height="36" rx="18" fill="#F7F2F5"/>
<rect x="3" y="1.5" width="35" height="35" rx="17.5" stroke="#F7F2F5"/>
<path opacity="0.4" d="M23.9917 10.6666H17.0083C13.975 10.6666 12.1667 12.475 12.1667 15.5083V22.4833C12.1667 25.525 13.975 27.3333 17.0083 27.3333H23.9833C27.0167 27.3333 28.825 25.525 28.825 22.4916V15.5083C28.8333 12.475 27.025 10.6666 23.9917 10.6666Z" fill="#610037"/>
<path d="M20.5 22.2334C22.2857 22.2334 23.7333 20.7858 23.7333 19.0001C23.7333 17.2143 22.2857 15.7667 20.5 15.7667C18.7143 15.7667 17.2667 17.2143 17.2667 19.0001C17.2667 20.7858 18.7143 22.2334 20.5 22.2334Z" fill="#610037"/>
<path d="M24.6667 15.25C24.4417 15.25 24.2333 15.1667 24.075 15.0084C24 14.925 23.9417 14.8334 23.9 14.7334C23.8583 14.6334 23.8333 14.525 23.8333 14.4167C23.8333 14.3084 23.8583 14.2 23.9 14.1C23.9417 13.9917 24 13.9084 24.075 13.825C24.2667 13.6334 24.5583 13.5417 24.825 13.6C24.8833 13.6084 24.9333 13.625 24.9833 13.65C25.0333 13.6667 25.0833 13.6917 25.1333 13.725C25.175 13.75 25.2167 13.7917 25.2583 13.825C25.3333 13.9084 25.3917 13.9917 25.4333 14.1C25.475 14.2 25.5 14.3084 25.5 14.4167C25.5 14.525 25.475 14.6334 25.4333 14.7334C25.3917 14.8334 25.3333 14.925 25.2583 15.0084C25.175 15.0834 25.0833 15.1417 24.9833 15.1834C24.8833 15.225 24.775 15.25 24.6667 15.25Z" fill="#610037"/>
</g>
<defs>
<filter id="filter0_d_4808_32151" x="0.5" y="0" width="40" height="40" filterUnits="userSpaceOnUse" color-interpolation-filters="sRGB">
<feFlood flood-opacity="0" result="BackgroundImageFix"/>
<feColorMatrix in="SourceAlpha" type="matrix" values="0 0 0 0 0 0 0 0 0 0 0 0 0 0 0 0 0 0 127 0" result="hardAlpha"/>
<feOffset dy="1"/>
<feGaussianBlur stdDeviation="1"/>
<feColorMatrix type="matrix" values="0 0 0 0 0.0392157 0 0 0 0 0.0496732 0 0 0 0 0.0705882 0 0 0 0.05 0"/>
<feBlend mode="normal" in2="BackgroundImageFix" result="effect1_dropShadow_4808_32151"/>
<feBlend mode="normal" in="SourceGraphic" in2="effect1_dropShadow_4808_32151" result="shape"/>
</filter>
</defs>
</svg>
