<svg width="41" height="40" viewBox="0 0 41 40" fill="none" xmlns="http://www.w3.org/2000/svg">
<g filter="url(#filter0_d_4808_32086)">
<rect x="2.5" y="1" width="36" height="36" rx="18" fill="#F7F2F5"/>
<rect x="3" y="1.5" width="35" height="35" rx="17.5" stroke="#F7F2F5"/>
<g clip-path="url(#clip0_4808_32086)">
<path d="M23.8333 15.6666C25.1594 15.6666 26.4312 16.1934 27.3689 17.1311C28.3066 18.0688 28.8333 19.3405 28.8333 20.6666V26.5H25.5V20.6666C25.5 20.2246 25.3244 19.8007 25.0119 19.4881C24.6993 19.1756 24.2754 19 23.8333 19C23.3913 19 22.9674 19.1756 22.6548 19.4881C22.3423 19.8007 22.1667 20.2246 22.1667 20.6666V26.5H18.8333V20.6666C18.8333 19.3405 19.3601 18.0688 20.2978 17.1311C21.2355 16.1934 22.5073 15.6666 23.8333 15.6666Z" fill="#B0809B" stroke="#B0809B" stroke-width="0.5" stroke-linecap="round" stroke-linejoin="round"/>
<path d="M16.5 16.5H13.1667V26.5H16.5V16.5Z" fill="#B0809B" stroke="#B0809B" stroke-width="0.5" stroke-linecap="round" stroke-linejoin="round"/>
<path d="M14.8333 14C15.7538 14 16.5 13.2538 16.5 12.3333C16.5 11.4128 15.7538 10.6666 14.8333 10.6666C13.9128 10.6666 13.1667 11.4128 13.1667 12.3333C13.1667 13.2538 13.9128 14 14.8333 14Z" fill="#B0809B" stroke="#B0809B" stroke-width="0.5" stroke-linecap="round" stroke-linejoin="round"/>
</g>
</g>
<defs>
<filter id="filter0_d_4808_32086" x="0.5" y="0" width="40" height="40" filterUnits="userSpaceOnUse" color-interpolation-filters="sRGB">
<feFlood flood-opacity="0" result="BackgroundImageFix"/>
<feColorMatrix in="SourceAlpha" type="matrix" values="0 0 0 0 0 0 0 0 0 0 0 0 0 0 0 0 0 0 127 0" result="hardAlpha"/>
<feOffset dy="1"/>
<feGaussianBlur stdDeviation="1"/>
<feColorMatrix type="matrix" values="0 0 0 0 0.0392157 0 0 0 0 0.0496732 0 0 0 0 0.0705882 0 0 0 0.05 0"/>
<feBlend mode="normal" in2="BackgroundImageFix" result="effect1_dropShadow_4808_32086"/>
<feBlend mode="normal" in="SourceGraphic" in2="effect1_dropShadow_4808_32086" result="shape"/>
</filter>
<clipPath id="clip0_4808_32086">
<rect width="18" height="20" fill="white" transform="translate(11.5 9)"/>
</clipPath>
</defs>
</svg>
