<svg width="56" height="56" viewBox="0 0 56 56" fill="none" xmlns="http://www.w3.org/2000/svg">
<rect width="56" height="56" rx="28" fill="black" fill-opacity="0.03"/>
<path d="M24.5 30.59H18.5734C17.8617 30.59 17.2084 30.9516 16.835 31.5583C16.4617 32.1533 16.4267 32.865 16.73 33.495C18.165 36.435 20.755 38.745 23.835 39.83C24.045 39.9 24.2784 39.9466 24.5 39.9466C24.9084 39.9466 25.3167 39.8183 25.6667 39.5733C26.215 39.1883 26.5417 38.5583 26.5417 37.8933L26.5534 32.6433C26.5534 32.095 26.3434 31.5816 25.9584 31.1966C25.5617 30.8116 25.0484 30.59 24.5 30.59Z" fill="#BDB59E"/>
<path d="M40.2267 25.2C38.92 19.46 33.8917 15.4584 28 15.4584C22.1083 15.4584 17.08 19.46 15.7733 25.2C15.6333 25.8067 15.7733 26.425 16.17 26.915C16.5667 27.405 17.15 27.685 17.78 27.685H38.2317C38.8617 27.685 39.445 27.405 39.8417 26.915C40.2267 26.425 40.3667 25.795 40.2267 25.2Z" fill="#BDB59E"/>
<path d="M37.4033 30.6484L31.5 30.6367C30.9516 30.6367 30.4383 30.8467 30.0533 31.2317C29.6683 31.6167 29.4583 32.1301 29.4583 32.6784L29.47 37.9051C29.47 38.5701 29.7966 39.2001 30.345 39.5851C30.695 39.8301 31.1033 39.9584 31.5116 39.9584C31.7333 39.9584 31.955 39.9234 32.165 39.8417C35.2216 38.7684 37.8116 36.4701 39.2466 33.5651C39.55 32.9467 39.515 32.2234 39.1533 31.6401C38.7683 31.0101 38.115 30.6484 37.4033 30.6484Z" fill="#BDB59E"/>
</svg>
