<svg width="180" height="180" viewBox="0 0 180 180" fill="none" xmlns="http://www.w3.org/2000/svg">
<path d="M108.75 80.625H63.75C60.675 80.625 58.125 78.075 58.125 75C58.125 71.925 60.675 69.375 63.75 69.375H108.75C111.825 69.375 114.375 71.925 114.375 75C114.375 78.075 111.825 80.625 108.75 80.625Z" fill="#C7C7CC"/>
<path d="M86.25 103.125H63.75C60.675 103.125 58.125 100.575 58.125 97.5C58.125 94.425 60.675 91.875 63.75 91.875H86.25C89.325 91.875 91.875 94.425 91.875 97.5C91.875 100.575 89.325 103.125 86.25 103.125Z" fill="#C7C7CC"/>
<path opacity="0.4" d="M86.25 157.5C125.6 157.5 157.5 125.6 157.5 86.25C157.5 46.8997 125.6 15 86.25 15C46.8997 15 15 46.8997 15 86.25C15 125.6 46.8997 157.5 86.25 157.5Z" fill="#C7C7CC"/>
<path d="M159.753 165C158.403 165 157.053 164.475 156.078 163.5L142.128 149.55C140.103 147.525 140.103 144.225 142.128 142.125C144.153 140.1 147.453 140.1 149.553 142.125L163.503 156.075C165.528 158.1 165.528 161.4 163.503 163.5C162.453 164.475 161.103 165 159.753 165Z" fill="#C7C7CC"/>
</svg>
