<svg width="12" height="12" viewBox="0 0 12 12" fill="none" xmlns="http://www.w3.org/2000/svg">
<path opacity="0.4" d="M8.24639 11H3.75638C2.00138 11 1.62139 9.995 1.76639 8.765L2.21638 5.015C2.33138 4.045 2.50138 3.25 4.20138 3.25H7.80139C9.50139 3.25 9.67139 4.045 9.78639 5.015L10.1614 8.14L10.2364 8.765C10.2414 8.805 10.2464 8.84499 10.2514 8.88499C10.3564 10.06 9.94639 11 8.24639 11Z" fill="#4D4A68"/>
<path d="M8 4.375C7.795 4.375 7.625 4.205 7.625 4V2.25C7.625 1.71 7.29 1.375 6.75 1.375H5.25C4.71 1.375 4.375 1.71 4.375 2.25V4C4.375 4.205 4.205 4.375 4 4.375C3.795 4.375 3.625 4.205 3.625 4V2.25C3.625 1.295 4.295 0.625 5.25 0.625H6.75C7.705 0.625 8.375 1.295 8.375 2.25V4C8.375 4.205 8.205 4.375 8 4.375Z" fill="#4D4A68"/>
<path d="M10.25 8.88489C10.235 8.88989 10.22 8.88989 10.205 8.88989H4C3.795 8.88989 3.625 8.71989 3.625 8.51489C3.625 8.30489 3.795 8.13989 4 8.13989H10.16L10.235 8.76489C10.24 8.80489 10.245 8.84489 10.25 8.88489Z" fill="#4D4A68"/>
</svg>
