<svg width="14" height="14" viewBox="0 0 14 14" fill="none" xmlns="http://www.w3.org/2000/svg">
<path id="Star 3" d="M6.36473 1.18705C6.63204 0.364332 7.79597 0.364333 8.06328 1.18705L9.01839 4.12656C9.13794 4.49449 9.4808 4.7436 9.86766 4.7436L12.9585 4.7436C13.8235 4.7436 14.1832 5.85055 13.4833 6.35902L10.9828 8.17574C10.6699 8.40313 10.5389 8.8062 10.6584 9.17413L11.6135 12.1136C11.8809 12.9364 10.9392 13.6205 10.2394 13.112L7.73889 11.2953C7.42591 11.0679 7.0021 11.0679 6.68912 11.2953L4.18862 13.112C3.48878 13.6205 2.54715 12.9364 2.81446 12.1136L3.76957 9.17413C3.88912 8.8062 3.75815 8.40313 3.44517 8.17574L0.944671 6.35902C0.244828 5.85055 0.6045 4.7436 1.46955 4.7436L4.56034 4.7436C4.94721 4.7436 5.29007 4.49449 5.40962 4.12656L6.36473 1.18705Z" fill="#FFCB13"/>
</svg>
