<svg width="44" height="42" viewBox="0 0 44 42" fill="none" xmlns="http://www.w3.org/2000/svg">
<path d="M19.6224 2.31762C20.3707 0.0143461 23.6293 0.0143495 24.3776 2.31763L27.7251 12.6201C28.0598 13.6501 29.0197 14.3475 30.1027 14.3475H40.9354C43.3572 14.3475 44.3641 17.4466 42.4048 18.8701L33.6411 25.2373C32.7648 25.8739 32.3982 27.0024 32.7329 28.0324L36.0803 38.3349C36.8287 40.6381 34.1925 42.5534 32.2332 41.1299L23.4695 34.7627C22.5932 34.1261 21.4068 34.1261 20.5305 34.7627L11.7668 41.1299C9.80747 42.5534 7.17127 40.6381 7.91965 38.3348L11.2671 28.0324C11.6018 27.0024 11.2352 25.8739 10.3589 25.2373L1.59516 18.8701C-0.364125 17.4466 0.642816 14.3475 3.06462 14.3475H13.8973C14.9803 14.3475 15.9402 13.6501 16.2749 12.6201L19.6224 2.31762Z" fill="#FF9500"/>
</svg>
