<svg width="14" height="14" viewBox="0 0 14 14" fill="none" xmlns="http://www.w3.org/2000/svg">
<path id="Star 4" d="M6.22438 1.18705C6.49169 0.364332 7.65561 0.364333 7.92293 1.18705L8.87804 4.12656C8.99759 4.49449 9.34045 4.7436 9.72731 4.7436L12.8181 4.7436C13.6832 4.7436 14.0428 5.85055 13.343 6.35902L10.8425 8.17574C10.5295 8.40313 10.3985 8.8062 10.5181 9.17413L11.4732 12.1136C11.7405 12.9364 10.7989 13.6205 10.099 13.112L7.59854 11.2953C7.28556 11.0679 6.86175 11.0679 6.54877 11.2953L4.04827 13.112C3.34843 13.6205 2.4068 12.9364 2.67411 12.1136L3.62922 9.17413C3.74877 8.8062 3.6178 8.40313 3.30482 8.17574L0.80432 6.35902C0.104478 5.85055 0.464149 4.7436 1.3292 4.7436L4.41999 4.7436C4.80686 4.7436 5.14972 4.49449 5.26927 4.12656L6.22438 1.18705Z" fill="#E4E7F1"/>
</svg>
