<svg width="56" height="56" viewBox="0 0 56 56" fill="none" xmlns="http://www.w3.org/2000/svg">
<rect width="56" height="56" rx="28" fill="#F7F3E8"/>
<path d="M39.2817 22.1083C38.535 19.5766 36.4233 17.465 33.8917 16.7183C31.9667 16.1583 30.6367 16.205 29.715 16.8933C28.6067 17.7216 28.4783 19.215 28.4783 20.2766V23.1816C28.4783 26.0516 29.785 27.51 32.3517 27.51H35.7C36.75 27.51 38.255 27.3816 39.0833 26.2733C39.795 25.3633 39.8533 24.0333 39.2817 22.1083Z" fill="#BDB59E"/>
<path d="M36.0621 29.5868C35.7588 29.2368 35.3154 29.0385 34.8604 29.0385H30.6838C28.6304 29.0385 26.9621 27.3702 26.9621 25.3168V21.1402C26.9621 20.6852 26.7638 20.2418 26.4138 19.9385C26.0754 19.6352 25.6088 19.4952 25.1654 19.5535C22.4238 19.9035 19.9038 21.4085 18.2588 23.6718C16.6021 25.9468 15.9954 28.7235 16.5204 31.5002C17.2788 35.5135 20.4871 38.7218 24.5121 39.4802C25.1538 39.6085 25.7954 39.6668 26.4371 39.6668C28.5488 39.6668 30.5904 39.0135 32.3288 37.7418C34.5921 36.0968 36.0971 33.5768 36.4471 30.8352C36.5054 30.3802 36.3654 29.9252 36.0621 29.5868Z" fill="#BDB59E"/>
</svg>
