<svg width="12" height="12" viewBox="0 0 12 12" fill="none" xmlns="http://www.w3.org/2000/svg">
<g id="vuesax/bulk/tag-2">
<g id="tag-2">
<path id="Vector" opacity="0.4" d="M2.08519 7.6499L4.35019 9.9149C5.28019 10.8449 6.79019 10.8449 7.72519 9.9149L9.92019 7.7199C10.8502 6.7899 10.8502 5.2799 9.92019 4.3449L7.65019 2.0849C7.17519 1.6099 6.52019 1.3549 5.85019 1.3899L3.35019 1.5099C2.35019 1.5549 1.55519 2.3499 1.50519 3.3449L1.38519 5.8449C1.35519 6.5199 1.61019 7.1749 2.08519 7.6499Z" fill="#5856D6"/>
<path id="Vector_2" d="M4.74859 6.19006C5.54388 6.19006 6.18859 5.54535 6.18859 4.75006C6.18859 3.95477 5.54388 3.31006 4.74859 3.31006C3.9533 3.31006 3.30859 3.95477 3.30859 4.75006C3.30859 5.54535 3.9533 6.19006 4.74859 6.19006Z" fill="#5856D6"/>
<path id="Vector_3" d="M6.49875 8.87497C6.40375 8.87497 6.30875 8.83997 6.23375 8.76497C6.08875 8.61997 6.08875 8.37997 6.23375 8.23497L8.23375 6.23497C8.37875 6.08997 8.61875 6.08997 8.76375 6.23497C8.90875 6.37997 8.90875 6.61997 8.76375 6.76497L6.76375 8.76497C6.68875 8.83997 6.59375 8.87497 6.49875 8.87497Z" fill="#5856D6"/>
</g>
</g>
</svg>
