<svg width="39" height="38" viewBox="0 0 39 38" fill="none" xmlns="http://www.w3.org/2000/svg">
<g filter="url(#filter0_d_4808_32175)">
<rect x="2.5" y="1" width="34" height="34" rx="17" fill="#F7F2F5"/>
<rect x="3" y="1.5" width="33" height="33" rx="16.5" stroke="#F7F2F5"/>
<path d="M26.25 14.25V15.75C26.25 15.9489 26.171 16.1396 26.0303 16.2803C25.8897 16.4209 25.6989 16.5 25.5 16.5C24.4462 16.4981 23.4115 16.2187 22.5 15.69V20.625C22.5002 21.4909 22.2698 22.3413 21.8324 23.0886C21.3951 23.836 20.7665 24.4534 20.0114 24.8773C19.2563 25.3012 18.4019 25.5163 17.5361 25.5005C16.6704 25.4847 15.8244 25.2386 15.0852 24.7875C14.3461 24.3363 13.7405 23.6965 13.3306 22.9336C12.9208 22.1708 12.7215 21.3126 12.7533 20.4473C12.7851 19.5819 13.0468 18.7407 13.5115 18.01C13.9763 17.2793 14.6272 16.6856 15.3975 16.29C15.5128 16.2286 15.642 16.1983 15.7726 16.2022C15.9031 16.2061 16.0304 16.2441 16.1417 16.3123C16.2531 16.3804 16.3447 16.4765 16.4076 16.591C16.4704 16.7055 16.5023 16.8344 16.5 16.965V18.855C16.492 19.0311 16.4168 19.1975 16.29 19.32C16.0207 19.5924 15.8416 19.9411 15.7772 20.3188C15.7127 20.6964 15.766 21.0848 15.9298 21.4311C16.0935 21.7775 16.3599 22.0651 16.6926 22.255C17.0254 22.4448 17.4085 22.5277 17.79 22.4925C18.2691 22.4315 18.7087 22.1956 19.0244 21.8301C19.34 21.4646 19.5094 20.9953 19.5 20.5125V11.25C19.5 11.051 19.579 10.8603 19.7197 10.7196C19.8603 10.579 20.0511 10.5 20.25 10.5H21.8325C22.0112 10.4974 22.1849 10.5586 22.3224 10.6728C22.4599 10.7869 22.5521 10.9464 22.5825 11.1225C22.7245 11.7922 23.0914 12.3931 23.6221 12.8256C24.1528 13.2581 24.8154 13.496 25.5 13.5C25.6989 13.5 25.8897 13.579 26.0303 13.7196C26.171 13.8603 26.25 14.051 26.25 14.25Z" fill="#B0809B"/>
</g>
<defs>
<filter id="filter0_d_4808_32175" x="0.5" y="0" width="38" height="38" filterUnits="userSpaceOnUse" color-interpolation-filters="sRGB">
<feFlood flood-opacity="0" result="BackgroundImageFix"/>
<feColorMatrix in="SourceAlpha" type="matrix" values="0 0 0 0 0 0 0 0 0 0 0 0 0 0 0 0 0 0 127 0" result="hardAlpha"/>
<feOffset dy="1"/>
<feGaussianBlur stdDeviation="1"/>
<feColorMatrix type="matrix" values="0 0 0 0 0.0392157 0 0 0 0 0.0496732 0 0 0 0 0.0705882 0 0 0 0.05 0"/>
<feBlend mode="normal" in2="BackgroundImageFix" result="effect1_dropShadow_4808_32175"/>
<feBlend mode="normal" in="SourceGraphic" in2="effect1_dropShadow_4808_32175" result="shape"/>
</filter>
</defs>
</svg>
