<svg width="56" height="56" viewBox="0 0 56 56" fill="none" xmlns="http://www.w3.org/2000/svg">
<rect width="56" height="56" rx="28" fill="black" fill-opacity="0.03"/>
<path d="M24.5 16.3334C21.4433 16.3334 18.9583 18.8184 18.9583 21.875C18.9583 24.8734 21.3033 27.3 24.36 27.405C24.4533 27.3934 24.5466 27.3934 24.6166 27.405C24.64 27.405 24.6516 27.405 24.675 27.405C24.6866 27.405 24.6866 27.405 24.6983 27.405C27.685 27.3 30.03 24.8734 30.0416 21.875C30.0416 18.8184 27.5566 16.3334 24.5 16.3334Z" fill="#610037"/>
<path d="M30.4267 30.5084C27.1717 28.3384 21.8633 28.3384 18.585 30.5084C17.1033 31.5 16.2867 32.8417 16.2867 34.2767C16.2867 35.7117 17.1033 37.0417 18.5733 38.0217C20.2067 39.1184 22.3533 39.6667 24.5 39.6667C26.6467 39.6667 28.7933 39.1184 30.4267 38.0217C31.8967 37.03 32.7134 35.7 32.7134 34.2534C32.7017 32.8184 31.8967 31.4884 30.4267 30.5084Z" fill="#610037"/>
<path d="M37.3221 22.5635C37.5088 24.8268 35.8988 26.8102 33.6704 27.0785C33.6588 27.0785 33.6588 27.0785 33.6471 27.0785H33.6121C33.5421 27.0785 33.4721 27.0785 33.4138 27.1018C32.2821 27.1602 31.2438 26.7985 30.4621 26.1335C31.6638 25.0602 32.3521 23.4502 32.2121 21.7002C32.1304 20.7552 31.8038 19.8918 31.3138 19.1568C31.7571 18.9352 32.2704 18.7952 32.7954 18.7485C35.0821 18.5502 37.1238 20.2535 37.3221 22.5635Z" fill="#610037"/>
<path d="M39.655 33.355C39.5617 34.4867 38.8383 35.4667 37.625 36.1317C36.4583 36.7733 34.9883 37.0767 33.53 37.0417C34.37 36.2833 34.86 35.3383 34.9533 34.335C35.07 32.8883 34.3817 31.5 33.005 30.3917C32.2233 29.7733 31.3133 29.2833 30.3217 28.9217C32.9 28.175 36.1433 28.6767 38.1383 30.2867C39.2117 31.15 39.76 32.235 39.655 33.355Z" fill="#610037"/>
</svg>
