<svg width="56" height="56" viewBox="0 0 56 56" fill="none" xmlns="http://www.w3.org/2000/svg">
<rect width="56" height="56" rx="28" fill="black" fill-opacity="0.03"/>
<path d="M36.75 22.7499L35.0117 24.4883L31.5117 20.9883L33.25 19.2499C33.74 18.7599 34.37 18.5266 35 18.5266C35.63 18.5266 36.26 18.7599 36.75 19.2499C37.7183 20.2183 37.7183 21.7816 36.75 22.7499Z" fill="#B2AFCD"/>
<path d="M34.1955 25.3169L21.5839 37.9169C20.6155 38.8852 19.0522 38.8852 18.0839 37.9169C17.1155 36.9486 17.1155 35.3852 18.0839 34.4169L30.6955 21.8169L34.1955 25.3169Z" fill="#B2AFCD"/>
<path d="M25.6078 18.0834L26.0861 16.4617C26.1328 16.31 26.0861 16.1467 25.9811 16.03C25.8761 15.9134 25.6895 15.8667 25.5378 15.9134L23.9161 16.3917L22.2945 15.9134C22.1428 15.8667 21.9794 15.9134 21.8628 16.0184C21.7461 16.135 21.7111 16.2984 21.7578 16.45L22.2245 18.0834L21.7461 19.705C21.6995 19.8567 21.7461 20.02 21.8511 20.1367C21.9678 20.2534 22.1311 20.2884 22.2828 20.2417L23.9161 19.775L25.5378 20.2534C25.5845 20.265 25.6194 20.2767 25.6661 20.2767C25.7828 20.2767 25.8878 20.23 25.9811 20.1484C26.0978 20.0317 26.1328 19.8684 26.0861 19.7167L25.6078 18.0834Z" fill="#B2AFCD"/>
<path d="M20.9411 25.0834L21.4194 23.4617C21.4661 23.31 21.4194 23.1467 21.3144 23.03C21.1978 22.9134 21.0344 22.8784 20.8828 22.925L19.2494 23.3917L17.6278 22.9134C17.4761 22.8667 17.3128 22.9134 17.1961 23.0184C17.0794 23.135 17.0444 23.2984 17.0911 23.45L17.5578 25.0834L17.0794 26.705C17.0328 26.8567 17.0794 27.02 17.1844 27.1367C17.3011 27.2534 17.4644 27.2884 17.6161 27.2417L19.2378 26.7634L20.8594 27.2417C20.8944 27.2534 20.9411 27.2534 20.9878 27.2534C21.1044 27.2534 21.2094 27.2067 21.3028 27.125C21.4194 27.0084 21.4544 26.845 21.4078 26.6934L20.9411 25.0834Z" fill="#B2AFCD"/>
<path d="M38.4413 30.9166L38.9197 29.2949C38.9663 29.1433 38.9197 28.9799 38.8147 28.8633C38.698 28.7466 38.5347 28.7116 38.383 28.7583L36.7613 29.2366L35.1397 28.7583C34.988 28.7116 34.8247 28.7583 34.708 28.8633C34.5913 28.9799 34.5563 29.1433 34.603 29.2949L35.0813 30.9166L34.603 32.5383C34.5563 32.6899 34.603 32.8533 34.708 32.9699C34.8247 33.0866 34.988 33.1216 35.1397 33.0749L36.7613 32.5966L38.383 33.0749C38.418 33.0866 38.4647 33.0866 38.5113 33.0866C38.628 33.0866 38.733 33.0399 38.8263 32.9583C38.943 32.8416 38.978 32.6783 38.9313 32.5266L38.4413 30.9166Z" fill="#B2AFCD"/>
</svg>
