<svg width="357" height="628" viewBox="0 0 357 628" fill="none" xmlns="http://www.w3.org/2000/svg">
<g clip-path="url(#clip0_3436_452)">
<rect width="357" height="628" rx="24" fill="#FCFAF6"/>
<rect x="91.7838" y="-98" width="100" height="100" rx="16" transform="rotate(45 91.7838 -98)" fill="#F5EFDF"/>
<rect opacity="0.5" x="9.75952" y="-15.9756" width="100" height="100" rx="16" transform="rotate(45 9.75952 -15.9756)" fill="#F5EFDF"/>
<rect x="284.808" y="-120" width="100" height="100" rx="16" transform="rotate(45 284.808 -120)" fill="#F5EFDF"/>
<rect x="202.784" y="-37.9756" width="100" height="100" rx="16" transform="rotate(45 202.784 -37.9756)" fill="#F5EFDF"/>
<rect opacity="0.5" x="120.759" y="44.0488" width="100" height="100" rx="16" transform="rotate(45 120.759 44.0488)" fill="#F5EFDF"/>
<rect opacity="0.2" x="38.7351" y="126.073" width="100" height="100" rx="16" transform="rotate(45 38.7351 126.073)" fill="#F5EFDF"/>
<rect x="-43.2893" y="208.098" width="100" height="100" rx="16" transform="rotate(45 -43.2893 208.098)" fill="#F5EFDF"/>
<rect x="358.784" y="-16" width="100" height="100" rx="16" transform="rotate(45 358.784 -16)" fill="#F5EFDF"/>
<rect x="276.759" y="66.0244" width="100" height="100" rx="16" transform="rotate(45 276.759 66.0244)" fill="#F5EFDF"/>
<rect opacity="0.5" x="194.735" y="148.049" width="100" height="100" rx="16" transform="rotate(45 194.735 148.049)" fill="#F5EFDF"/>
<rect opacity="0.2" x="112.711" y="230.073" width="100" height="100" rx="16" transform="rotate(45 112.711 230.073)" fill="#F5EFDF"/>
<rect x="416.759" y="100.024" width="100" height="100" rx="16" transform="rotate(45 416.759 100.024)" fill="#F5EFDF"/>
<rect opacity="0.5" x="334.735" y="182.049" width="100" height="100" rx="16" transform="rotate(45 334.735 182.049)" fill="#F5EFDF"/>
<rect opacity="0.2" x="252.711" y="264.073" width="100" height="100" rx="16" transform="rotate(45 252.711 264.073)" fill="#F5EFDF"/>
</g>
<defs>
<clipPath id="clip0_3436_452">
<rect width="357" height="628" rx="24" fill="white"/>
</clipPath>
</defs>
</svg>
