<svg width="353" height="345" viewBox="0 0 353 345" fill="none" xmlns="http://www.w3.org/2000/svg">
<path d="M406.32 130.313C394.32 89.6253 360.382 55.6878 319.695 43.6878C288.757 34.6878 267.382 35.4378 252.57 46.5003C234.757 59.8128 232.695 83.8128 232.695 100.875V147.563C232.695 193.688 253.695 217.125 294.945 217.125H348.757C365.632 217.125 389.82 215.063 403.132 197.25C414.57 182.625 415.507 161.25 406.32 130.313Z" fill="url(#paint0_linear_6380_1730)"/>
<path opacity="0.4" d="M354.57 250.5C349.695 244.875 342.57 241.688 335.257 241.688H268.132C235.132 241.688 208.32 214.875 208.32 181.875V114.75C208.32 107.438 205.132 100.313 199.507 95.4376C194.07 90.5626 186.57 88.3126 179.445 89.2501C135.382 94.8751 94.8824 119.063 68.4449 155.438C41.8199 192 32.0699 236.625 40.5074 281.25C52.6949 345.75 104.257 397.313 168.945 409.5C179.257 411.563 189.57 412.5 199.882 412.5C233.82 412.5 266.632 402 294.57 381.563C330.945 355.125 355.132 314.625 360.757 270.563C361.695 263.25 359.445 255.938 354.57 250.5Z" fill="url(#paint1_linear_6380_1730)"/>
<defs>
<linearGradient id="paint0_linear_6380_1730" x1="322.616" y1="37.5112" x2="322.616" y2="217.125" gradientUnits="userSpaceOnUse">
<stop stop-color="#EFE5EB"/>
<stop offset="1" stop-color="#DFCCD7"/>
</linearGradient>
<linearGradient id="paint1_linear_6380_1730" x1="199.261" y1="89.0415" x2="199.261" y2="412.5" gradientUnits="userSpaceOnUse">
<stop stop-color="#EFE5EB"/>
<stop offset="1" stop-color="#DFCCD7"/>
</linearGradient>
</defs>
</svg>
