<svg width="1440" height="850" viewBox="0 0 1440 850" fill="none" xmlns="http://www.w3.org/2000/svg">
<g clip-path="url(#clip0_3911_16450)">
<rect width="1440" height="850" fill="url(#paint0_linear_3911_16450)"/>
<path d="M-3031.5 5428.78C-3486.33 4840.25 -3113.69 3429.85 -2880.57 2593.8C-2694.45 1949.66 -2515.67 1283.25 -2275.03 674.542C-1574.19 -1232.9 345.981 -2119.73 1815.98 -411.472C2358.49 240.753 2631.82 1099.97 2907.98 1914.29C3223.88 2814.01 3703.68 4323.19 3479.92 5056.57C3314.69 5623.5 2871.93 5374.56 2487.4 4986.78C2023.91 4512.59 1559 3945.23 1115.99 3469.42C787.891 3109.92 316.763 2687.59 -193.438 2931.76C-508.348 3079.16 -727.544 3347.48 -970.937 3630.26C-1169.19 3866.45 -1380.77 4129.43 -1585.74 4379.73C-1906.54 4736.17 -2606.46 5797.3 -3030.14 5430.32L-3033.04 5430.14L-3031.5 5428.78Z" stroke="black" stroke-opacity="0.017" stroke-width="120.572" stroke-miterlimit="10"/>
<path d="M-2615.06 4755.53C-3009.31 4244.98 -2689.22 3021.77 -2483.59 2298.88C-2324.7 1740.28 -2161.9 1165.93 -1959.72 636.238C-1332.11 -1009.69 322.646 -1795.45 1585.08 -303.857C2059.14 256.802 2288.48 1005.64 2532.25 1710.3C2801.81 2490.76 3217.29 3796.66 3028.73 4433.37C2882.92 4922.99 2500.49 4709.85 2168.12 4371.89C1764.58 3962.55 1361.79 3471.82 980.358 3058.06C694.281 2747.73 289.449 2381.94 -154.597 2592.47C-427.641 2722.14 -618.189 2951.54 -827.319 3198.68C-1000.19 3401.56 -1177.87 3634.68 -1360.17 3848.61C-1631.75 4163.06 -2243.82 5077.03 -2610.89 4758.7L-2612.34 4758.61L-2615.06 4755.53Z" stroke="black" stroke-opacity="0.017" stroke-width="120.572" stroke-miterlimit="10"/>
<path d="M-2199.99 4080.73C-2533.76 3649.61 -2261.94 2615.32 -2089.53 2003.77C-1955.05 1532.34 -1816.66 1045.16 -1645.86 597.836C-1115.76 -793.925 285.433 -1458.96 1352.81 -197.789C1753.7 276.823 1948.12 910.029 2153.62 1506.12C2382.73 2166.24 2733.78 3270.3 2573.27 3808.44C2449.68 4222.38 2126.31 4042.05 1845.93 3756.81C1505.33 3411.06 1163.31 2995.41 840.462 2644.96C597.944 2382.47 255.059 2072.93 -118.575 2251.53C-349.57 2360.59 -511.744 2555.42 -687.878 2763.92C-834.096 2936.49 -983.316 3133.59 -1138.69 3312.85C-1367.94 3579.08 -1886.71 4352.05 -2197.18 4082.36L-2198.63 4082.27L-2199.99 4080.73Z" stroke="black" stroke-opacity="0.017" stroke-width="120.572" stroke-miterlimit="10"/>
<path d="M-1784.99 3407.39C-2058.18 3054.25 -1836.11 2208.78 -1694 1708.75C-1583.84 1323.05 -1471.5 925.844 -1331.99 559.439C-897.949 -578.065 246.786 -1122.55 1119.11 -91.809C1446.92 295.308 1604.88 814.243 1773.55 1301.86C1960.77 1841.54 2247.4 2743.77 2116.28 3184.87C2014.84 3524.59 1750.61 3375.61 1520.77 3143C1241.65 2860.74 963.291 2520.37 699.039 2233.23C501.529 2018.65 220.592 1765.37 -85.5288 1911.87C-274.566 2001.76 -406.825 2160.66 -551.412 2330.43C-670.888 2471.23 -793.092 2632.23 -920.273 2779.82C-1107.19 2997.81 -1531.13 3628.42 -1785.08 3408.83L-1784.99 3407.39Z" stroke="black" stroke-opacity="0.017" stroke-width="120.572" stroke-miterlimit="10"/>
<path d="M-1368.56 2734.14C-1579.82 2460.52 -1408.83 1802.34 -1298.48 1413.74C-1212.64 1113.76 -1124.8 805.175 -1016.59 519.69C-679.967 -365.096 209.667 -787.5 888.289 14.3599C1142.93 315.431 1265.97 718.735 1396.36 1097.78C1541.69 1517.03 1765.25 2218.97 1662.18 2561.49C1584.41 2825.62 1377.8 2709.36 1200.03 2528.01C982.498 2307.81 766.256 2044.06 561.954 1821.78C408.003 1655.02 190.462 1458.09 -48.0543 1571.04C-195.043 1640.31 -297.479 1764.73 -410.609 1897.21C-503.344 2006.26 -598.624 2132.59 -697.522 2247.06C-843.558 2416.74 -1172.75 2906.44 -1370.1 2735.49L-1368.56 2734.14Z" stroke="black" stroke-opacity="0.017" stroke-width="120.572" stroke-miterlimit="10"/>
<path d="M-953.477 2059.34C-1104.15 1863.7 -981.451 1394.44 -902.866 1117.27C-842.792 902.919 -779.454 682.956 -701.174 479.931C-460.617 -150.597 174.008 -452.366 657.574 119.071C839.047 334.096 927.167 621.769 1020.82 890.886C1124.25 1189.7 1283.4 1689.81 1211.26 1933.94C1155.73 2122.4 1009.53 2040.48 880.932 1910.22C726.343 1753.6 572.311 1565.03 425.152 1405.97C316.21 1287.13 160.616 1146.45 -10.3869 1227.3C-115.418 1277.4 -187.848 1364.45 -268.073 1459.74C-334.157 1538.47 -402.33 1627.24 -472.946 1708.6C-576.649 1830.04 -811.102 2178.83 -951.936 2057.98L-953.477 2059.34Z" stroke="black" stroke-opacity="0.017" stroke-width="120.572" stroke-miterlimit="10"/>
<path d="M-537.045 1386.08C-627.143 1268.43 -554.265 989.44 -507.441 823.698C-471.778 696.517 -434.3 563.634 -387.405 442.978C-244.358 66.6156 135.257 -114.519 425.125 228.035C533.428 357.013 586.718 527.608 642.005 689.602C703.536 867.987 799.624 1167.8 755.526 1313.35C722.225 1426.14 635.087 1377.02 558.471 1299.48C465.373 1206.36 373.552 1092.97 286.343 998.764C220.959 927.751 127.313 843.324 26.7225 892.248C-36.2594 921.728 -80.3156 974.214 -127.545 1030.86C-166.887 1077.83 -208.044 1130.5 -249.019 1180.27C-311.747 1251.94 -451.55 1461.27 -535.778 1389.07L-537.045 1386.08Z" stroke="black" stroke-opacity="0.017" stroke-width="120.572" stroke-miterlimit="10"/>
<path d="M-122.057 712.715C-151.667 674.494 -126.983 582.978 -111.919 528.666C-100.575 487.208 -87.6902 444.392 -72.0889 404.656C-26.4611 281.012 97.9621 223.409 192.865 334.092C228 377.024 246.367 431.988 263.377 485.412C284.462 543.456 314.68 641.339 299.981 689.857C288.911 726.97 260.831 710.659 236.198 685.839C206.132 654.86 176.43 618.088 147.813 587.2C125.988 564.012 95.7395 535.931 62.6621 552.752C41.7289 561.613 27.4961 579.621 11.8139 597.538C-0.786633 612.741 -14.9274 629.301 -27.6192 645.952C-48.0152 669.39 -94.5247 737.718 -120.699 714.255L-122.057 712.715Z" stroke="black" stroke-opacity="0.017" stroke-width="120.572" stroke-miterlimit="10"/>
</g>
<defs>
<linearGradient id="paint0_linear_3911_16450" x1="720" y1="205.5" x2="802.5" y2="883" gradientUnits="userSpaceOnUse">
<stop stop-color="#F7F2F5"/>
<stop offset="1" stop-color="#F0EFF8"/>
</linearGradient>
<clipPath id="clip0_3911_16450">
<rect width="1440" height="850" fill="white"/>
</clipPath>
</defs>
</svg>
