<svg width="393" height="852" viewBox="0 0 393 852" fill="none" xmlns="http://www.w3.org/2000/svg">
<g clip-path="url(#clip0_5478_71048)">
<rect width="393" height="852" fill="url(#paint0_linear_5478_71048)"/>
<path d="M127.835 588.2C114.206 572.685 122.071 532.983 127.081 509.441C131.068 491.287 134.892 472.54 140.495 455.247C156.548 401.215 208.156 373.31 251.792 418.022C267.899 435.153 277.004 458.425 286.054 480.512C296.343 504.862 312.289 545.858 307.387 566.544C303.831 582.544 291.118 576.403 279.805 566.329C266.122 553.992 252.331 539.124 239.186 526.68C229.489 517.252 215.698 506.424 202.015 514.074C193.558 518.707 187.955 526.518 181.706 534.814C176.642 541.71 171.255 549.359 165.976 556.632C157.733 567.083 140.225 597.681 127.835 588.2Z" fill="white" fill-opacity="0.03"/>
<path d="M-59.5295 352.62C-48.9708 334.897 -8.78325 330.102 15.1354 327.571C33.6131 325.793 52.6835 323.584 70.8379 323.584C127.187 322.13 169.691 362.587 140.601 417.966C129.342 438.598 109.948 454.436 91.7938 469.897C71.8077 487.244 37.7612 515.041 16.59 516.765C0.267151 518.327 2.20662 504.321 8.29402 490.422C15.7821 473.614 25.6942 455.837 33.4516 439.568C39.3774 427.447 45.4646 410.963 33.9362 400.35C26.8792 393.724 17.7211 390.815 7.97048 387.475C-0.164013 384.781 -9.10629 382.034 -17.6717 379.287C-30.1698 374.654 -64.6471 367.435 -59.4755 352.782L-59.5295 352.62Z" fill="white" fill-opacity="0.03"/>
<path d="M106.616 101.639C126.764 106.219 143.733 142.958 153.537 164.938C160.972 181.961 168.945 199.415 174.547 216.654C193.348 269.824 167.975 322.725 106.346 312.166C83.2359 307.803 62.2265 294.281 41.8633 281.783C19.1837 268.154 -17.7179 244.343 -25.9602 224.734C-32.4785 209.704 -18.5796 207.226 -3.49581 208.681C14.8203 210.62 34.7524 214.553 52.6375 216.869C65.9974 218.755 83.5591 219.455 90.1313 205.179C94.2255 196.452 94.1719 186.863 94.3873 176.52C94.3873 167.954 94.3334 158.581 94.2795 149.584C94.8182 136.278 90.9935 101.262 106.562 101.639H106.67H106.616Z" fill="white" fill-opacity="0.03"/>
<path d="M396.594 182.12C398.48 202.699 368.797 230.173 350.912 246.28C337.013 258.617 322.899 271.546 308.193 282.266C263.426 316.582 205.299 308.824 196.249 246.927C193.232 223.601 199.643 199.413 205.246 176.194C211.225 150.39 222.43 107.94 238.538 94.0955C250.82 83.2674 257.5 95.7115 260.732 110.472C264.557 128.465 266.981 148.667 270.267 166.39C272.584 179.696 277.378 196.558 292.947 198.443C302.536 199.628 311.64 196.612 321.552 193.595C329.687 191.009 338.576 187.992 347.087 185.191C359.908 181.582 392.07 167.144 396.487 182.066V182.174L396.594 182.12Z" fill="white" fill-opacity="0.03"/>
<path d="M409.745 482.775C390.782 490.91 355.443 471.193 334.595 459.126C318.595 449.699 301.896 440.325 287.189 429.605C240.752 397.606 230.14 339.964 286.219 312.221C307.498 302.147 332.44 300.746 356.251 298.914C382.594 296.652 426.499 294.174 444.653 305.217C458.767 313.567 449.017 323.749 435.926 331.399C419.98 340.61 401.557 349.122 385.719 357.741C373.759 364.044 359.214 373.795 362.231 389.202C364.062 398.683 369.719 406.387 375.645 414.898C380.655 421.848 386.257 429.336 391.536 436.608C398.917 447.706 422.566 473.779 409.799 482.614H409.745V482.775Z" fill="white" fill-opacity="0.03"/>
</g>
<defs>
<linearGradient id="paint0_linear_5478_71048" x1="196.5" y1="0" x2="196.5" y2="852" gradientUnits="userSpaceOnUse">
<stop stop-color="#610037"/>
<stop offset="1" stop-color="#2E0004"/>
</linearGradient>
<clipPath id="clip0_5478_71048">
<rect width="393" height="852" fill="white"/>
</clipPath>
</defs>
</svg>
