<svg width="397" height="352" viewBox="0 0 397 352" fill="none" xmlns="http://www.w3.org/2000/svg">
<g filter="url(#filter0_f_4816_55701)">
<path d="M64.8358 506.202C51.2065 490.687 59.0719 450.984 64.0819 427.443C68.0683 409.288 71.8931 390.541 77.4957 373.249C93.5493 319.216 145.158 291.311 188.793 336.024C204.9 353.155 214.005 376.427 223.055 398.514C233.345 422.864 249.29 463.859 244.388 484.546C240.832 500.546 228.119 494.404 216.806 484.331C203.123 471.994 189.332 457.126 176.187 444.681C166.491 435.254 152.7 424.426 139.016 432.076C130.559 436.708 124.956 444.52 118.707 452.816C113.643 459.711 108.256 467.361 102.977 474.634C94.7343 485.085 77.2261 515.683 64.8358 506.202Z" fill="#EFE5EB"/>
<path d="M-122.529 270.622C-111.971 252.899 -71.7831 248.104 -47.8643 245.572C-29.3866 243.795 -10.3161 241.586 7.83839 241.586C64.1875 240.131 106.692 280.588 77.6014 335.968C66.3423 356.6 46.9488 372.438 28.7943 387.899C8.80815 405.246 -25.2384 433.043 -46.4097 434.767C-62.7326 436.329 -60.7932 422.323 -54.7057 408.424C-47.2177 391.617 -37.3055 373.839 -29.5481 357.57C-23.6223 345.449 -17.535 328.965 -29.0634 318.352C-36.1205 311.726 -45.2786 308.817 -55.0293 305.477C-63.1638 302.783 -72.1061 300.036 -80.6716 297.288C-93.1697 292.656 -127.647 285.437 -122.476 270.784L-122.529 270.622Z" fill="#EFE5EB"/>
<path d="M43.6163 19.6397C63.7641 24.2188 80.7333 60.9588 90.5378 82.9381C97.972 99.9614 105.945 117.416 111.548 134.654C130.349 187.825 104.975 240.726 43.3467 230.167C20.2361 225.804 -0.773453 212.282 -21.1367 199.784C-43.8164 186.155 -80.7182 162.344 -88.9604 142.735C-95.4788 127.705 -81.5799 125.227 -66.496 126.681C-48.1798 128.621 -28.2477 132.553 -10.3625 134.87C2.99752 136.755 20.5592 137.456 27.1315 123.18C31.2257 114.453 31.172 104.864 31.3875 94.5204C31.3875 85.9549 31.3335 76.5813 31.2797 67.5849C31.8184 54.2787 27.9937 19.2626 43.5624 19.6397H43.6699H43.6163Z" fill="#EFE5EB"/>
<path d="M333.596 100.121C335.481 120.699 305.799 148.174 287.913 164.281C274.015 176.617 259.901 189.546 245.194 200.267C200.427 234.583 142.3 226.825 133.25 164.927C130.233 141.601 136.644 117.413 142.246 94.1948C148.226 68.3906 159.431 25.9403 175.539 12.0955C187.821 1.2674 194.501 13.7116 197.734 28.4722C201.558 46.4651 203.982 66.6668 207.268 84.3903C209.585 97.6964 214.38 114.558 229.948 116.444C239.537 117.629 248.641 114.612 258.554 111.595C266.688 109.009 275.577 105.993 284.089 103.191C296.91 99.5819 329.071 85.1445 333.488 100.067V100.174L333.596 100.121Z" fill="#EFE5EB"/>
<path d="M346.746 400.781C327.784 408.915 292.444 389.198 271.596 377.131C255.597 367.704 238.897 358.33 224.19 347.61C177.753 315.611 167.141 257.969 223.22 230.225C244.499 220.151 269.442 218.75 293.253 216.919C319.596 214.656 363.501 212.178 381.655 223.222C395.769 231.572 386.018 241.753 372.928 249.403C356.982 258.615 338.558 267.127 322.72 275.746C310.761 282.049 296.215 291.8 299.232 307.207C301.064 316.688 306.72 324.391 312.646 332.903C317.656 339.852 323.259 347.34 328.538 354.613C335.918 365.71 359.568 391.784 346.8 400.619H346.746V400.781Z" fill="#EFE5EB"/>
</g>
<defs>
<filter id="filter0_f_4816_55701" x="-131" y="0" width="527.585" height="516" filterUnits="userSpaceOnUse" color-interpolation-filters="sRGB">
<feFlood flood-opacity="0" result="BackgroundImageFix"/>
<feBlend mode="normal" in="SourceGraphic" in2="BackgroundImageFix" result="shape"/>
<feGaussianBlur stdDeviation="4" result="effect1_foregroundBlur_4816_55701"/>
</filter>
</defs>
</svg>
