<svg width="294" height="184" viewBox="0 0 294 184" fill="none" xmlns="http://www.w3.org/2000/svg">
<g filter="url(#filter0_b_4767_10946)">
<rect width="294" height="72" rx="36" fill="#F1EAD6"/>
<g clip-path="url(#clip0_4767_10946)">
<rect x="12" y="16" width="40" height="40" rx="20" fill="#3E361F"/>
<path d="M28.109 49.4507L28.0927 49.4322C27.8644 49.1723 27.7391 48.8273 27.6746 48.4598C27.6097 48.0903 27.6028 47.6776 27.6278 47.2616C27.6777 46.4302 27.8578 45.548 27.9947 44.9045L27.9951 44.9029L27.9951 44.9029C28.0215 44.7825 28.0479 44.6613 28.0744 44.5395C28.2649 43.6638 28.4617 42.7593 28.7346 41.9163C29.19 40.3861 30.1579 39.1936 31.3602 38.7129C32.5824 38.2243 33.9901 38.4937 35.2438 39.7784L35.2471 39.7818L35.247 39.7818C36.1232 40.7136 36.6318 41.9582 37.1016 43.1076C37.1248 43.1644 37.1479 43.2209 37.171 43.2772C37.4534 43.9457 37.8166 44.8498 38.0756 45.7324C38.2052 46.174 38.3102 46.6153 38.3654 47.0224C38.42 47.4256 38.4282 47.8122 38.3514 48.1378M28.109 49.4507L38.1077 48.0819M28.109 49.4507L28.1286 49.4657C28.394 49.6688 28.6876 49.6428 28.9382 49.5216C29.1754 49.4069 29.3993 49.1985 29.5957 48.9791C29.7956 48.7558 29.9854 48.4998 30.1503 48.269C30.2019 48.1967 30.2505 48.1279 30.2961 48.0632C30.4004 47.9154 30.4893 47.7894 30.5643 47.6942L30.5645 47.6943L30.5703 47.6863C30.6963 47.5127 30.8216 47.3378 30.9455 47.1648C31.1096 46.9358 31.2714 46.7099 31.4296 46.4945M28.109 49.4507L30.368 47.5394C30.4917 47.369 30.6164 47.1949 30.7404 47.0218C30.9061 46.7905 31.0704 46.5611 31.229 46.3453M38.3514 48.1378C38.3512 48.1384 38.3511 48.139 38.351 48.1396L38.1077 48.0819M38.3514 48.1378C38.3515 48.1372 38.3516 48.1367 38.3518 48.1361L38.1077 48.0819M38.3514 48.1378C38.2961 48.3854 38.1968 48.5893 38.0344 48.7211C37.8643 48.8592 37.663 48.8881 37.4732 48.8581C37.2897 48.8292 37.1064 48.7447 36.937 48.6408C36.7653 48.5353 36.5937 48.401 36.4318 48.2568L36.4307 48.2558C36.0509 47.9134 35.6709 47.537 35.2985 47.1639C35.2407 47.1059 35.183 47.0481 35.1256 46.9904C34.8118 46.6755 34.5044 46.3668 34.2031 46.0816L34.2007 46.0793L34.2007 46.0793C33.9395 45.8253 33.6433 45.5734 33.3351 45.4317C33.0355 45.294 32.7474 45.2691 32.4625 45.4283L32.4606 45.4294L32.4606 45.4294C32.07 45.6433 31.8018 45.9999 31.4681 46.4432C31.4554 46.4602 31.4425 46.4773 31.4296 46.4945M38.1077 48.0819C37.9131 48.9576 37.2173 48.6215 36.5981 48.0701C36.1658 47.6804 35.7316 47.2445 35.3033 46.8146C34.9896 46.4997 34.6791 46.188 34.375 45.9001C33.8443 45.3841 33.0894 44.7914 32.3405 45.2101C31.9013 45.4507 31.6027 45.848 31.2811 46.276C31.2638 46.299 31.2464 46.3221 31.229 46.3453M31.4296 46.4945C31.4299 46.4941 31.4302 46.4937 31.4305 46.4932L31.229 46.3453M31.4296 46.4945C31.4293 46.4949 31.429 46.4953 31.4287 46.4957L31.229 46.3453" stroke="url(#paint0_linear_4767_10946)" stroke-width="0.5"/>
<path d="M17.7523 36.3445L17.811 36.2461C17.9878 35.9492 18.2774 35.7238 18.6069 35.5491C18.9383 35.3735 19.3287 35.2395 19.7319 35.1347C20.5379 34.9253 21.4323 34.8236 22.086 34.7544L22.0884 34.7541L22.0884 34.7541C22.2379 34.7397 22.3888 34.7248 22.5405 34.7097C23.4057 34.6238 24.3001 34.535 25.1578 34.5348C26.7537 34.4944 28.1872 35.0459 29.0158 36.0412C29.8582 37.0529 30.0363 38.4757 29.2006 40.0667L29.1987 40.0702L29.1987 40.0702C28.593 41.1802 27.5786 42.0416 26.6425 42.8366C26.585 42.8854 26.5277 42.934 26.4709 42.9824C25.9221 43.4587 25.1745 44.0836 24.4153 44.6024C24.0355 44.862 23.6484 45.098 23.2785 45.2761C22.9121 45.4524 22.5471 45.5795 22.214 45.607M17.7523 36.3445L22.1919 45.3579M17.7523 36.3445L17.7672 36.3888M17.7523 36.3445L18.0287 36.3828M22.214 45.607C22.2134 45.607 22.2128 45.6071 22.2122 45.6071L22.1919 45.3579M22.214 45.607C22.2146 45.6069 22.2152 45.6068 22.2157 45.6068L22.1919 45.3579M22.214 45.607C21.9613 45.6309 21.7367 45.5994 21.5611 45.4854C21.3773 45.366 21.2879 45.1832 21.258 44.9933C21.2291 44.8097 21.2529 44.6091 21.2996 44.4157C21.3469 44.2196 21.4218 44.0146 21.5089 43.8158L21.5095 43.8144C21.7174 43.3478 21.9582 42.8694 22.1982 42.3997C22.238 42.3217 22.2778 42.2441 22.3174 42.1668C22.5176 41.776 22.7135 41.3935 22.8891 41.0252L22.8902 41.023L22.8902 41.023C23.05 40.696 23.1982 40.3363 23.238 39.9993C23.2767 39.6717 23.2115 39.3907 22.972 39.1703L22.9702 39.1686L22.9702 39.1686C22.6432 38.8616 22.2198 38.7168 21.6973 38.5381C21.6785 38.5316 21.6595 38.5251 21.6404 38.5186M22.1919 45.3579C21.2985 45.4434 21.4047 44.6768 21.7379 43.9161C21.9765 43.3804 22.2602 42.8266 22.5394 42.2817C22.7396 41.8909 22.9375 41.5047 23.1148 41.1328C23.4391 40.4694 23.7723 39.5672 23.1413 38.9863C22.774 38.6415 22.3027 38.4806 21.7984 38.3084C21.7724 38.2995 21.7463 38.2906 21.7202 38.2817M21.6404 38.5186C21.6408 38.5187 21.6412 38.5188 21.6416 38.519L21.7202 38.2817M21.6404 38.5186C21.64 38.5184 21.6395 38.5183 21.6391 38.5182L21.7202 38.2817M21.6404 38.5186C21.3623 38.4265 21.0689 38.3339 20.7723 38.2403C20.5953 38.1845 20.4171 38.1282 20.2403 38.0715L20.2297 38.0681L20.2298 38.0679C20.1155 38.0255 19.9672 37.9795 19.7935 37.9255C19.7186 37.9022 19.6389 37.8775 19.5552 37.8509C19.2849 37.7652 18.983 37.6636 18.709 37.5425C18.4398 37.4235 18.1727 37.2751 17.9903 37.0854C17.8163 36.9043 17.7048 36.6656 17.7672 36.3888M21.7202 38.2817C21.4404 38.189 21.1432 38.0952 20.8447 38.001C20.6681 37.9453 20.491 37.8894 20.3167 37.8335C20.1958 37.7887 20.0372 37.7394 19.8597 37.6843C19.0332 37.4275 17.7957 37.043 18.0287 36.3828M17.7672 36.3888L17.7886 36.4531L17.7916 36.462L18.0287 36.3828M17.7672 36.3888C17.7738 36.3595 17.7823 36.3298 17.793 36.2996L18.0144 36.3778L18.0287 36.3828" stroke="url(#paint1_linear_4767_10946)" stroke-width="0.5"/>
<path d="M27.1192 22.3869H27.1221V22.387C27.1222 22.387 27.1222 22.387 27.1223 22.387L27.1221 22.3939V22.624L27.1746 22.3931C27.5119 22.4698 27.816 22.6755 28.0841 22.9352C28.3537 23.1962 28.6019 23.5261 28.8262 23.8774C29.2746 24.5794 29.6476 25.3988 29.9156 25.9995L29.9164 26.0013L29.9164 26.0013C29.9701 26.1243 30.0246 26.2482 30.0793 26.3727C30.4356 27.1833 30.804 28.0217 31.074 28.8515C31.6057 30.3576 31.5237 31.8915 30.8331 32.987C30.131 34.1005 28.8328 34.7092 27.0622 34.4058L27.058 34.4051L27.0581 34.4051C25.8174 34.1708 24.689 33.4759 23.6435 32.8321C23.5771 32.7912 23.5111 32.7505 23.4453 32.7102C23.445 32.71 23.4447 32.7098 23.4444 32.7096L23.5752 32.4965C22.3339 31.7505 20.3142 30.4473 19.863 29.3741L27.1192 22.3869ZM27.1192 22.3869H27.119C26.787 22.3801 26.5662 22.5735 26.4354 22.8178C26.3112 23.05 26.2528 23.35 26.2229 23.6427C26.1925 23.9408 26.1895 24.2593 26.1916 24.5428C26.1923 24.6303 26.1935 24.7134 26.1945 24.7916C26.197 24.9738 26.1991 25.1291 26.1942 25.2509L26.1939 25.2509L26.194 25.2625C26.1969 25.7541 26.1999 26.2654 26.1999 26.7326C26.1994 26.7583 26.1988 26.7837 26.1983 26.8089C26.1873 27.3558 26.1785 27.7972 25.9906 28.1976L25.9899 28.1993C25.853 28.4964 25.605 28.6456 25.2813 28.7102C24.9482 28.7767 24.5603 28.7469 24.1998 28.6961L24.1998 28.6961L24.197 28.6957C23.7838 28.6422 23.3505 28.5728 22.908 28.5019C22.8312 28.4896 22.7541 28.4772 22.6769 28.4649C22.1564 28.382 21.6273 28.3007 21.1189 28.2468L21.1189 28.2468L21.1166 28.2466C20.9009 28.2258 20.6831 28.2184 20.4823 28.2343C20.2842 28.2499 20.0863 28.2894 19.9209 28.3737C19.7497 28.4609 19.6037 28.6024 19.5471 28.8139C19.4929 29.0161 19.5323 29.2394 19.6331 29.4723L27.1192 22.3869Z" stroke="url(#paint2_linear_4767_10946)" stroke-width="0.5"/>
<path d="M43.2393 27.0191L43.2059 26.6544L43.0907 26.7121C42.9669 26.562 42.7897 26.4808 42.6029 26.4473C42.3437 26.4008 42.0402 26.4378 41.7525 26.4997C41.4595 26.5628 41.1554 26.6582 40.8862 26.7479C40.8019 26.776 40.722 26.8031 40.6469 26.8286C40.4758 26.8868 40.3297 26.9365 40.213 26.9693L40.2129 26.9691L40.2026 26.9725C40.0455 27.0242 39.887 27.0769 39.729 27.1295C39.4154 27.2338 39.1037 27.3375 38.8089 27.4312C38.7865 27.438 38.7642 27.4448 38.7421 27.4516C38.2152 27.6123 37.7904 27.7418 37.3482 27.6872L37.3476 27.6871C37.0232 27.6478 36.8045 27.4578 36.6429 27.1701C36.4767 26.8743 36.385 26.4966 36.3225 26.1381L36.3226 26.1381L36.3221 26.1354C36.2478 25.7347 36.1816 25.3107 36.114 24.8776C36.1005 24.7912 36.087 24.7045 36.0733 24.6175C35.9915 24.0965 35.9051 23.568 35.7989 23.0685L35.7989 23.0685L35.7986 23.067C35.7523 22.8557 35.6925 22.6466 35.6155 22.4606C35.5395 22.2772 35.4408 22.1013 35.3094 21.9702C35.1734 21.8345 34.9937 21.7395 34.7751 21.7509C34.5662 21.7618 34.3659 21.868 34.1755 22.0356C33.9222 22.2537 33.7017 22.5709 33.5089 22.9288C33.3143 23.2901 33.14 23.7083 32.9853 24.1413C32.676 25.0068 32.4384 25.9514 32.2742 26.66C32.2555 26.7374 32.2366 26.8152 32.2176 26.8935C31.9282 28.0842 31.6155 29.371 31.7771 30.621L31.7771 30.621L31.7777 30.6251C32.0377 32.4032 33.018 33.4497 34.294 33.7731C35.5494 34.0912 37.0334 33.6946 38.3017 32.7233C39.0137 32.2041 39.7004 31.592 40.3652 30.9994C40.4626 30.9125 40.5596 30.8261 40.656 30.7405L40.6574 30.7393C41.1462 30.299 41.8102 29.6914 42.3391 29.0483C42.6037 28.7265 42.8407 28.3886 43.0055 28.0516C43.1694 27.7164 43.2709 27.3636 43.2393 27.0191Z" stroke="url(#paint3_linear_4767_10946)" stroke-width="0.5"/>
<path d="M43.8087 43.727L43.9601 43.6621V43.6073C44.146 43.4226 44.1889 43.1778 44.1561 42.942C44.1199 42.6814 43.9908 42.4045 43.843 42.1502C43.6924 41.8913 43.5079 41.6319 43.3396 41.4037C43.2882 41.334 43.2389 41.2679 43.1925 41.2058C43.0829 41.0591 42.9895 40.934 42.9217 40.832L42.9219 40.8319L42.9159 40.8236C42.7809 40.6377 42.6452 40.4534 42.5111 40.2713C42.353 40.0566 42.1972 39.845 42.0478 39.6377C42.0339 39.6178 42.0202 39.5982 42.0066 39.5786C41.692 39.1274 41.4394 38.765 41.3551 38.3284L41.3549 38.3278C41.292 38.0065 41.4052 37.7398 41.6287 37.4976C41.8586 37.2484 42.1895 37.0449 42.5117 36.8751L42.5117 36.8751L42.5146 36.8735C42.8754 36.6772 43.2608 36.4819 43.6545 36.2824C43.7295 36.2445 43.8047 36.2064 43.8801 36.1681C44.3498 35.9296 44.8254 35.6844 45.2681 35.4286L45.2692 35.428C45.4565 35.3185 45.6374 35.1969 45.7908 35.0661C45.9421 34.9371 46.079 34.7889 46.1631 34.6233C46.2503 34.4518 46.2848 34.2515 46.206 34.0471C46.1308 33.8519 45.9678 33.6943 45.7494 33.5648C45.4635 33.3913 45.0933 33.2796 44.693 33.2069C44.2888 33.1335 43.8368 33.097 43.3768 33.0837C42.4575 33.0571 41.4853 33.1229 40.7621 33.185C40.6875 33.1908 40.6126 33.1964 40.5372 33.2021C39.3112 33.2947 37.987 33.3946 36.8424 33.9365L36.8424 33.9365L36.8385 33.9384C35.2275 34.7354 34.5354 35.9907 34.6223 37.304C34.7078 38.5959 35.5434 39.8843 36.8578 40.7911C37.5479 41.2938 38.3169 41.7435 39.0621 42.1791C39.1991 42.2592 39.3354 42.3389 39.4701 42.4183L39.4718 42.4193C40.0419 42.7493 40.8255 43.1931 41.6009 43.4974C41.9889 43.6497 42.3836 43.7707 42.755 43.8233C43.1138 43.8741 43.4701 43.8639 43.7813 43.7384H43.7912L43.8059 43.7282C43.8068 43.7278 43.8078 43.7274 43.8087 43.727Z" stroke="url(#paint4_linear_4767_10946)" stroke-width="0.5"/>
<g filter="url(#filter1_f_4767_10946)">
<circle cx="32" cy="36" r="8" fill="#FFE699"/>
</g>
</g>
<path d="M69.7269 42.716C68.8749 42.716 68.1009 42.56 67.4049 42.248C66.7209 41.936 66.1749 41.486 65.7669 40.898C65.3709 40.298 65.1729 39.572 65.1729 38.72H66.7569C66.7569 39.56 67.0329 40.226 67.5849 40.718C68.1369 41.198 68.8509 41.438 69.7269 41.438C70.4949 41.438 71.1309 41.252 71.6349 40.88C72.1509 40.508 72.4089 39.98 72.4089 39.296C72.4089 38.828 72.3249 38.456 72.1569 38.18C72.0009 37.892 71.7609 37.658 71.4369 37.478C71.1129 37.286 70.7049 37.106 70.2129 36.938C69.7209 36.77 69.1389 36.572 68.4669 36.344C67.8669 36.128 67.3509 35.882 66.9189 35.606C66.4989 35.33 66.1749 34.994 65.9469 34.598C65.7189 34.19 65.6049 33.704 65.6049 33.14C65.5929 32.396 65.7609 31.772 66.1089 31.268C66.4689 30.752 66.9489 30.362 67.5489 30.098C68.1609 29.822 68.8329 29.684 69.5649 29.684C70.3089 29.684 70.9749 29.822 71.5629 30.098C72.1629 30.362 72.6429 30.758 73.0029 31.286C73.3629 31.802 73.5489 32.432 73.5609 33.176H71.9769C71.9769 32.54 71.7489 32.018 71.2929 31.61C70.8369 31.19 70.2429 30.98 69.5109 30.98C68.8629 30.956 68.3109 31.118 67.8549 31.466C67.3989 31.814 67.1709 32.324 67.1709 32.996C67.1709 33.44 67.2609 33.794 67.4409 34.058C67.6329 34.31 67.9569 34.532 68.4129 34.724C68.8689 34.916 69.4989 35.15 70.3029 35.426C70.8789 35.618 71.3949 35.822 71.8509 36.038C72.3069 36.242 72.6909 36.488 73.0029 36.776C73.3149 37.052 73.5549 37.388 73.7229 37.784C73.8909 38.168 73.9749 38.642 73.9749 39.206C73.9749 39.962 73.7769 40.604 73.3809 41.132C72.9969 41.648 72.4809 42.044 71.8329 42.32C71.1969 42.584 70.4949 42.716 69.7269 42.716ZM79.6832 42.716C78.8552 42.716 78.1052 42.524 77.4332 42.14C76.7732 41.756 76.2512 41.216 75.8672 40.52C75.4832 39.812 75.2912 38.984 75.2912 38.036C75.2912 37.1 75.4712 36.284 75.8312 35.588C76.2032 34.88 76.7192 34.334 77.3792 33.95C78.0512 33.554 78.8312 33.356 79.7192 33.356C80.5592 33.356 81.2912 33.542 81.9152 33.914C82.5392 34.286 83.0252 34.79 83.3732 35.426C83.7332 36.05 83.9132 36.752 83.9132 37.532C83.9132 37.7 83.9132 37.832 83.9132 37.928C83.9132 38.024 83.9072 38.174 83.8952 38.378H76.7852C76.8212 38.966 76.9592 39.494 77.1992 39.962C77.4512 40.418 77.7872 40.778 78.2072 41.042C78.6392 41.306 79.1312 41.438 79.6832 41.438C80.3072 41.438 80.8292 41.294 81.2492 41.006C81.6692 40.718 81.9752 40.328 82.1672 39.836H83.6612C83.5052 40.388 83.2472 40.88 82.8872 41.312C82.5272 41.744 82.0772 42.086 81.5372 42.338C81.0092 42.59 80.3912 42.716 79.6832 42.716ZM76.8032 37.208H82.4192C82.3832 36.404 82.1072 35.774 81.5912 35.318C81.0752 34.862 80.4392 34.634 79.6832 34.634C78.9632 34.634 78.3212 34.856 77.7572 35.3C77.2052 35.732 76.8872 36.368 76.8032 37.208ZM85.5572 42.5V33.572H86.9252L87.0512 35.282C87.3272 34.694 87.7472 34.226 88.3112 33.878C88.8752 33.53 89.5712 33.356 90.3992 33.356V34.94H89.9852C89.0012 34.94 88.2692 35.204 87.7892 35.732C87.3092 36.26 87.0692 37.016 87.0692 38V42.5H85.5572ZM94.3103 42.5L90.9263 33.572H92.5103L95.1923 41.042L97.8923 33.572H99.4403L96.0563 42.5H94.3103ZM101.681 31.592C101.381 31.592 101.129 31.496 100.925 31.304C100.733 31.1 100.637 30.848 100.637 30.548C100.637 30.26 100.733 30.02 100.925 29.828C101.129 29.636 101.381 29.54 101.681 29.54C101.969 29.54 102.215 29.636 102.419 29.828C102.623 30.02 102.725 30.26 102.725 30.548C102.725 30.848 102.623 31.1 102.419 31.304C102.215 31.496 101.969 31.592 101.681 31.592ZM100.925 42.5V33.572H102.437V42.5H100.925ZM108.814 42.716C107.974 42.716 107.212 42.524 106.528 42.14C105.856 41.756 105.322 41.216 104.926 40.52C104.53 39.812 104.332 38.984 104.332 38.036C104.332 37.112 104.524 36.302 104.908 35.606C105.292 34.898 105.82 34.346 106.492 33.95C107.164 33.554 107.938 33.356 108.814 33.356C109.87 33.356 110.758 33.632 111.478 34.184C112.21 34.736 112.672 35.474 112.864 36.398H111.316C111.196 35.846 110.902 35.42 110.434 35.12C109.966 34.808 109.42 34.652 108.796 34.652C108.16 34.652 107.626 34.808 107.194 35.12C106.762 35.432 106.432 35.846 106.204 36.362C105.988 36.878 105.88 37.436 105.88 38.036C105.88 38.696 106.006 39.284 106.258 39.8C106.51 40.316 106.852 40.718 107.284 41.006C107.728 41.294 108.232 41.438 108.796 41.438C109.42 41.438 109.966 41.288 110.434 40.988C110.902 40.676 111.196 40.238 111.316 39.674H112.864C112.744 40.274 112.498 40.802 112.126 41.258C111.754 41.714 111.286 42.074 110.722 42.338C110.158 42.59 109.522 42.716 108.814 42.716ZM118.629 42.716C117.801 42.716 117.051 42.524 116.379 42.14C115.719 41.756 115.197 41.216 114.813 40.52C114.429 39.812 114.237 38.984 114.237 38.036C114.237 37.1 114.417 36.284 114.777 35.588C115.149 34.88 115.665 34.334 116.325 33.95C116.997 33.554 117.777 33.356 118.665 33.356C119.505 33.356 120.237 33.542 120.861 33.914C121.485 34.286 121.971 34.79 122.319 35.426C122.679 36.05 122.859 36.752 122.859 37.532C122.859 37.7 122.859 37.832 122.859 37.928C122.859 38.024 122.853 38.174 122.841 38.378H115.731C115.767 38.966 115.905 39.494 116.145 39.962C116.397 40.418 116.733 40.778 117.153 41.042C117.585 41.306 118.077 41.438 118.629 41.438C119.253 41.438 119.775 41.294 120.195 41.006C120.615 40.718 120.921 40.328 121.113 39.836H122.607C122.451 40.388 122.193 40.88 121.833 41.312C121.473 41.744 121.023 42.086 120.483 42.338C119.955 42.59 119.337 42.716 118.629 42.716ZM115.749 37.208H121.365C121.329 36.404 121.053 35.774 120.537 35.318C120.021 34.862 119.385 34.634 118.629 34.634C117.909 34.634 117.267 34.856 116.703 35.3C116.151 35.732 115.833 36.368 115.749 37.208ZM127.923 42.716C127.215 42.716 126.579 42.596 126.015 42.356C125.451 42.104 124.995 41.756 124.647 41.312C124.311 40.856 124.101 40.322 124.017 39.71H125.565C125.661 40.178 125.907 40.586 126.303 40.934C126.711 41.27 127.257 41.438 127.941 41.438C128.577 41.438 129.045 41.306 129.345 41.042C129.645 40.766 129.795 40.442 129.795 40.07C129.795 39.71 129.705 39.434 129.525 39.242C129.357 39.05 129.105 38.906 128.769 38.81C128.445 38.702 128.043 38.6 127.563 38.504C127.059 38.396 126.567 38.252 126.087 38.072C125.607 37.88 125.211 37.622 124.899 37.298C124.587 36.974 124.431 36.548 124.431 36.02C124.431 35.492 124.563 35.03 124.827 34.634C125.091 34.238 125.463 33.926 125.943 33.698C126.435 33.47 127.011 33.356 127.671 33.356C128.619 33.356 129.393 33.596 129.993 34.076C130.605 34.544 130.959 35.216 131.055 36.092H129.561C129.501 35.636 129.303 35.282 128.967 35.03C128.643 34.766 128.205 34.634 127.653 34.634C127.113 34.634 126.693 34.748 126.393 34.976C126.105 35.204 125.961 35.504 125.961 35.876C125.961 36.116 126.045 36.32 126.213 36.488C126.381 36.656 126.621 36.8 126.933 36.92C127.257 37.04 127.635 37.148 128.067 37.244C128.667 37.364 129.213 37.514 129.705 37.694C130.197 37.874 130.593 38.138 130.893 38.486C131.193 38.822 131.343 39.308 131.343 39.944C131.355 40.472 131.217 40.946 130.929 41.366C130.653 41.786 130.257 42.116 129.741 42.356C129.237 42.596 128.631 42.716 127.923 42.716ZM141.651 42.716C140.799 42.716 140.025 42.56 139.329 42.248C138.645 41.936 138.099 41.486 137.691 40.898C137.295 40.298 137.097 39.572 137.097 38.72H138.681C138.681 39.56 138.957 40.226 139.509 40.718C140.061 41.198 140.775 41.438 141.651 41.438C142.419 41.438 143.055 41.252 143.559 40.88C144.075 40.508 144.333 39.98 144.333 39.296C144.333 38.828 144.249 38.456 144.081 38.18C143.925 37.892 143.685 37.658 143.361 37.478C143.037 37.286 142.629 37.106 142.137 36.938C141.645 36.77 141.063 36.572 140.391 36.344C139.791 36.128 139.275 35.882 138.843 35.606C138.423 35.33 138.099 34.994 137.871 34.598C137.643 34.19 137.529 33.704 137.529 33.14C137.517 32.396 137.685 31.772 138.033 31.268C138.393 30.752 138.873 30.362 139.473 30.098C140.085 29.822 140.757 29.684 141.489 29.684C142.233 29.684 142.899 29.822 143.487 30.098C144.087 30.362 144.567 30.758 144.927 31.286C145.287 31.802 145.473 32.432 145.485 33.176H143.901C143.901 32.54 143.673 32.018 143.217 31.61C142.761 31.19 142.167 30.98 141.435 30.98C140.787 30.956 140.235 31.118 139.779 31.466C139.323 31.814 139.095 32.324 139.095 32.996C139.095 33.44 139.185 33.794 139.365 34.058C139.557 34.31 139.881 34.532 140.337 34.724C140.793 34.916 141.423 35.15 142.227 35.426C142.803 35.618 143.319 35.822 143.775 36.038C144.231 36.242 144.615 36.488 144.927 36.776C145.239 37.052 145.479 37.388 145.647 37.784C145.815 38.168 145.899 38.642 145.899 39.206C145.899 39.962 145.701 40.604 145.305 41.132C144.921 41.648 144.405 42.044 143.757 42.32C143.121 42.584 142.419 42.716 141.651 42.716ZM150.869 42.716C150.173 42.716 149.561 42.578 149.033 42.302C148.517 42.014 148.115 41.582 147.827 41.006C147.539 40.418 147.395 39.68 147.395 38.792V33.572H148.907V38.63C148.907 39.554 149.099 40.25 149.483 40.718C149.867 41.186 150.443 41.42 151.211 41.42C151.979 41.42 152.615 41.144 153.119 40.592C153.635 40.028 153.893 39.23 153.893 38.198V33.572H155.405V42.5H154.037L153.947 40.898C153.659 41.462 153.245 41.906 152.705 42.23C152.165 42.554 151.553 42.716 150.869 42.716ZM161.08 46.676C160.372 46.676 159.694 46.586 159.046 46.406C158.398 46.226 157.87 45.92 157.462 45.488C157.066 45.068 156.868 44.504 156.868 43.796C156.868 43.304 156.982 42.896 157.21 42.572C157.438 42.248 157.738 42.002 158.11 41.834C157.822 41.666 157.588 41.456 157.408 41.204C157.228 40.952 157.138 40.664 157.138 40.34C157.138 39.62 157.462 39.038 158.11 38.594C157.87 38.318 157.678 38.012 157.534 37.676C157.402 37.328 157.336 36.944 157.336 36.524C157.336 35.864 157.486 35.3 157.786 34.832C158.098 34.352 158.518 33.986 159.046 33.734C159.586 33.482 160.198 33.356 160.882 33.356C161.386 33.356 161.86 33.428 162.304 33.572H165.346V34.85H163.96C164.116 35.09 164.23 35.354 164.302 35.642C164.386 35.918 164.428 36.212 164.428 36.524C164.428 37.208 164.266 37.784 163.942 38.252C163.63 38.72 163.204 39.08 162.664 39.332C162.136 39.572 161.542 39.692 160.882 39.692C160.546 39.692 160.24 39.656 159.964 39.584C159.688 39.512 159.412 39.41 159.136 39.278C158.824 39.434 158.668 39.674 158.668 39.998C158.668 40.598 159.172 40.898 160.18 40.898H161.674C162.346 40.898 162.94 40.988 163.456 41.168C163.972 41.336 164.374 41.618 164.662 42.014C164.962 42.398 165.112 42.926 165.112 43.598C165.112 44.282 164.92 44.852 164.536 45.308C164.152 45.764 163.654 46.106 163.042 46.334C162.43 46.562 161.776 46.676 161.08 46.676ZM161.044 45.416C161.764 45.416 162.376 45.278 162.88 45.002C163.384 44.738 163.636 44.33 163.636 43.778C163.636 42.746 163.012 42.23 161.764 42.23H160.234C159.646 42.23 159.184 42.356 158.848 42.608C158.512 42.872 158.344 43.262 158.344 43.778C158.344 44.174 158.47 44.492 158.722 44.732C158.974 44.972 159.304 45.146 159.712 45.254C160.12 45.362 160.564 45.416 161.044 45.416ZM160.846 38.432C161.47 38.432 161.98 38.252 162.376 37.892C162.772 37.532 162.97 37.076 162.97 36.524C162.97 35.972 162.772 35.516 162.376 35.156C161.98 34.796 161.47 34.616 160.846 34.616C160.222 34.616 159.718 34.796 159.334 35.156C158.962 35.516 158.776 35.972 158.776 36.524C158.776 37.076 158.956 37.532 159.316 37.892C159.688 38.252 160.198 38.432 160.846 38.432ZM170.247 46.676C169.539 46.676 168.861 46.586 168.213 46.406C167.565 46.226 167.037 45.92 166.629 45.488C166.233 45.068 166.035 44.504 166.035 43.796C166.035 43.304 166.149 42.896 166.377 42.572C166.605 42.248 166.905 42.002 167.277 41.834C166.989 41.666 166.755 41.456 166.575 41.204C166.395 40.952 166.305 40.664 166.305 40.34C166.305 39.62 166.629 39.038 167.277 38.594C167.037 38.318 166.845 38.012 166.701 37.676C166.569 37.328 166.503 36.944 166.503 36.524C166.503 35.864 166.653 35.3 166.953 34.832C167.265 34.352 167.685 33.986 168.213 33.734C168.753 33.482 169.365 33.356 170.049 33.356C170.553 33.356 171.027 33.428 171.471 33.572H174.513V34.85H173.127C173.283 35.09 173.397 35.354 173.469 35.642C173.553 35.918 173.595 36.212 173.595 36.524C173.595 37.208 173.433 37.784 173.109 38.252C172.797 38.72 172.371 39.08 171.831 39.332C171.303 39.572 170.709 39.692 170.049 39.692C169.713 39.692 169.407 39.656 169.131 39.584C168.855 39.512 168.579 39.41 168.303 39.278C167.991 39.434 167.835 39.674 167.835 39.998C167.835 40.598 168.339 40.898 169.347 40.898H170.841C171.513 40.898 172.107 40.988 172.623 41.168C173.139 41.336 173.541 41.618 173.829 42.014C174.129 42.398 174.279 42.926 174.279 43.598C174.279 44.282 174.087 44.852 173.703 45.308C173.319 45.764 172.821 46.106 172.209 46.334C171.597 46.562 170.943 46.676 170.247 46.676ZM170.211 45.416C170.931 45.416 171.543 45.278 172.047 45.002C172.551 44.738 172.803 44.33 172.803 43.778C172.803 42.746 172.179 42.23 170.931 42.23H169.401C168.813 42.23 168.351 42.356 168.015 42.608C167.679 42.872 167.511 43.262 167.511 43.778C167.511 44.174 167.637 44.492 167.889 44.732C168.141 44.972 168.471 45.146 168.879 45.254C169.287 45.362 169.731 45.416 170.211 45.416ZM170.013 38.432C170.637 38.432 171.147 38.252 171.543 37.892C171.939 37.532 172.137 37.076 172.137 36.524C172.137 35.972 171.939 35.516 171.543 35.156C171.147 34.796 170.637 34.616 170.013 34.616C169.389 34.616 168.885 34.796 168.501 35.156C168.129 35.516 167.943 35.972 167.943 36.524C167.943 37.076 168.123 37.532 168.483 37.892C168.855 38.252 169.365 38.432 170.013 38.432ZM179.742 42.716C178.914 42.716 178.164 42.524 177.492 42.14C176.832 41.756 176.31 41.216 175.926 40.52C175.542 39.812 175.35 38.984 175.35 38.036C175.35 37.1 175.53 36.284 175.89 35.588C176.262 34.88 176.778 34.334 177.438 33.95C178.11 33.554 178.89 33.356 179.778 33.356C180.618 33.356 181.35 33.542 181.974 33.914C182.598 34.286 183.084 34.79 183.432 35.426C183.792 36.05 183.972 36.752 183.972 37.532C183.972 37.7 183.972 37.832 183.972 37.928C183.972 38.024 183.966 38.174 183.954 38.378H176.844C176.88 38.966 177.018 39.494 177.258 39.962C177.51 40.418 177.846 40.778 178.266 41.042C178.698 41.306 179.19 41.438 179.742 41.438C180.366 41.438 180.888 41.294 181.308 41.006C181.728 40.718 182.034 40.328 182.226 39.836H183.72C183.564 40.388 183.306 40.88 182.946 41.312C182.586 41.744 182.136 42.086 181.596 42.338C181.068 42.59 180.45 42.716 179.742 42.716ZM176.862 37.208H182.478C182.442 36.404 182.166 35.774 181.65 35.318C181.134 34.862 180.498 34.634 179.742 34.634C179.022 34.634 178.38 34.856 177.816 35.3C177.264 35.732 176.946 36.368 176.862 37.208ZM189.036 42.716C188.328 42.716 187.692 42.596 187.128 42.356C186.564 42.104 186.108 41.756 185.76 41.312C185.424 40.856 185.214 40.322 185.13 39.71H186.678C186.774 40.178 187.02 40.586 187.416 40.934C187.824 41.27 188.37 41.438 189.054 41.438C189.69 41.438 190.158 41.306 190.458 41.042C190.758 40.766 190.908 40.442 190.908 40.07C190.908 39.71 190.818 39.434 190.638 39.242C190.47 39.05 190.218 38.906 189.882 38.81C189.558 38.702 189.156 38.6 188.676 38.504C188.172 38.396 187.68 38.252 187.2 38.072C186.72 37.88 186.324 37.622 186.012 37.298C185.7 36.974 185.544 36.548 185.544 36.02C185.544 35.492 185.676 35.03 185.94 34.634C186.204 34.238 186.576 33.926 187.056 33.698C187.548 33.47 188.124 33.356 188.784 33.356C189.732 33.356 190.506 33.596 191.106 34.076C191.718 34.544 192.072 35.216 192.168 36.092H190.674C190.614 35.636 190.416 35.282 190.08 35.03C189.756 34.766 189.318 34.634 188.766 34.634C188.226 34.634 187.806 34.748 187.506 34.976C187.218 35.204 187.074 35.504 187.074 35.876C187.074 36.116 187.158 36.32 187.326 36.488C187.494 36.656 187.734 36.8 188.046 36.92C188.37 37.04 188.748 37.148 189.18 37.244C189.78 37.364 190.326 37.514 190.818 37.694C191.31 37.874 191.706 38.138 192.006 38.486C192.306 38.822 192.456 39.308 192.456 39.944C192.468 40.472 192.33 40.946 192.042 41.366C191.766 41.786 191.37 42.116 190.854 42.356C190.35 42.596 189.744 42.716 189.036 42.716ZM197.38 42.5C196.564 42.5 195.922 42.302 195.454 41.906C194.986 41.51 194.752 40.796 194.752 39.764V34.85H193.204V33.572H194.752V31.43H196.264V33.572H198.766V34.85H196.264V39.764C196.264 40.328 196.378 40.712 196.606 40.916C196.834 41.108 197.236 41.204 197.812 41.204H198.766V42.5H197.38ZM201.371 31.592C201.071 31.592 200.819 31.496 200.615 31.304C200.423 31.1 200.327 30.848 200.327 30.548C200.327 30.26 200.423 30.02 200.615 29.828C200.819 29.636 201.071 29.54 201.371 29.54C201.659 29.54 201.905 29.636 202.109 29.828C202.313 30.02 202.415 30.26 202.415 30.548C202.415 30.848 202.313 31.1 202.109 31.304C201.905 31.496 201.659 31.592 201.371 31.592ZM200.615 42.5V33.572H202.127V42.5H200.615ZM208.521 42.716C207.705 42.716 206.955 42.536 206.271 42.176C205.587 41.804 205.041 41.27 204.633 40.574C204.225 39.866 204.021 39.014 204.021 38.018C204.021 37.07 204.219 36.248 204.615 35.552C205.023 34.856 205.569 34.316 206.253 33.932C206.949 33.548 207.729 33.356 208.593 33.356C209.421 33.356 210.177 33.536 210.861 33.896C211.557 34.256 212.115 34.784 212.535 35.48C212.955 36.176 213.165 37.022 213.165 38.018C213.165 38.93 212.967 39.74 212.571 40.448C212.175 41.156 211.623 41.714 210.915 42.122C210.219 42.518 209.421 42.716 208.521 42.716ZM208.521 41.402C209.109 41.402 209.637 41.264 210.105 40.988C210.573 40.7 210.945 40.304 211.221 39.8C211.497 39.296 211.635 38.702 211.635 38.018C211.635 37.37 211.515 36.794 211.275 36.29C211.035 35.786 210.687 35.39 210.231 35.102C209.775 34.814 209.223 34.67 208.575 34.67C207.915 34.67 207.357 34.82 206.901 35.12C206.457 35.42 206.121 35.822 205.893 36.326C205.665 36.83 205.551 37.394 205.551 38.018C205.551 38.81 205.695 39.458 205.983 39.962C206.271 40.454 206.643 40.82 207.099 41.06C207.555 41.288 208.029 41.402 208.521 41.402ZM214.903 42.5V33.572H216.271L216.361 35.174C216.649 34.61 217.063 34.166 217.603 33.842C218.143 33.518 218.755 33.356 219.439 33.356C220.495 33.356 221.335 33.68 221.959 34.328C222.595 34.964 222.913 35.948 222.913 37.28V42.5H221.401V37.442C221.401 36.518 221.209 35.822 220.825 35.354C220.441 34.886 219.865 34.652 219.097 34.652C218.329 34.652 217.687 34.934 217.171 35.498C216.667 36.05 216.415 36.842 216.415 37.874V42.5H214.903ZM228.281 42.716C227.573 42.716 226.937 42.596 226.373 42.356C225.809 42.104 225.353 41.756 225.005 41.312C224.669 40.856 224.459 40.322 224.375 39.71H225.923C226.019 40.178 226.265 40.586 226.661 40.934C227.069 41.27 227.615 41.438 228.299 41.438C228.935 41.438 229.403 41.306 229.703 41.042C230.003 40.766 230.153 40.442 230.153 40.07C230.153 39.71 230.063 39.434 229.883 39.242C229.715 39.05 229.463 38.906 229.127 38.81C228.803 38.702 228.401 38.6 227.921 38.504C227.417 38.396 226.925 38.252 226.445 38.072C225.965 37.88 225.569 37.622 225.257 37.298C224.945 36.974 224.789 36.548 224.789 36.02C224.789 35.492 224.921 35.03 225.185 34.634C225.449 34.238 225.821 33.926 226.301 33.698C226.793 33.47 227.369 33.356 228.029 33.356C228.977 33.356 229.751 33.596 230.351 34.076C230.963 34.544 231.317 35.216 231.413 36.092H229.919C229.859 35.636 229.661 35.282 229.325 35.03C229.001 34.766 228.563 34.634 228.011 34.634C227.471 34.634 227.051 34.748 226.751 34.976C226.463 35.204 226.319 35.504 226.319 35.876C226.319 36.116 226.403 36.32 226.571 36.488C226.739 36.656 226.979 36.8 227.291 36.92C227.615 37.04 227.993 37.148 228.425 37.244C229.025 37.364 229.571 37.514 230.063 37.694C230.555 37.874 230.951 38.138 231.251 38.486C231.551 38.822 231.701 39.308 231.701 39.944C231.713 40.472 231.575 40.946 231.287 41.366C231.011 41.786 230.615 42.116 230.099 42.356C229.595 42.596 228.989 42.716 228.281 42.716Z" fill="#574F38"/>
</g>
<g opacity="0.5" filter="url(#filter2_b_4767_10946)">
<rect y="90" width="294" height="56" rx="28" fill="#F0E8D1"/>
<g clip-path="url(#clip1_4767_10946)">
<rect x="12" y="98" width="40" height="40" rx="20" fill="#3E361F"/>
<path d="M28.109 131.451L28.0927 131.432C27.8644 131.172 27.7391 130.827 27.6746 130.46C27.6097 130.09 27.6028 129.678 27.6278 129.262C27.6777 128.43 27.8578 127.548 27.9947 126.905L27.9951 126.903L27.9951 126.903C28.0215 126.783 28.0479 126.661 28.0744 126.539C28.2649 125.664 28.4617 124.759 28.7346 123.916C29.19 122.386 30.1579 121.194 31.3602 120.713C32.5824 120.224 33.9901 120.494 35.2438 121.778L35.2471 121.782L35.247 121.782C36.1232 122.714 36.6318 123.958 37.1016 125.108C37.1248 125.164 37.1479 125.221 37.171 125.277C37.4534 125.946 37.8166 126.85 38.0756 127.732C38.2052 128.174 38.3102 128.615 38.3654 129.022C38.42 129.426 38.4282 129.812 38.3514 130.138M28.109 131.451L38.1077 130.082M28.109 131.451L28.1286 131.466C28.394 131.669 28.6876 131.643 28.9382 131.522C29.1754 131.407 29.3993 131.198 29.5957 130.979C29.7956 130.756 29.9854 130.5 30.1503 130.269C30.2019 130.197 30.2505 130.128 30.2961 130.063C30.4004 129.915 30.4893 129.789 30.5643 129.694L30.5645 129.694L30.5703 129.686C30.6963 129.513 30.8216 129.338 30.9455 129.165C31.1096 128.936 31.2714 128.71 31.4296 128.494M28.109 131.451L30.368 129.539C30.4917 129.369 30.6164 129.195 30.7404 129.022C30.9061 128.791 31.0704 128.561 31.229 128.345M38.3514 130.138C38.3512 130.138 38.3511 130.139 38.351 130.14L38.1077 130.082M38.3514 130.138C38.3515 130.137 38.3516 130.137 38.3518 130.136L38.1077 130.082M38.3514 130.138C38.2961 130.385 38.1968 130.589 38.0344 130.721C37.8643 130.859 37.663 130.888 37.4732 130.858C37.2897 130.829 37.1064 130.745 36.937 130.641C36.7653 130.535 36.5937 130.401 36.4318 130.257L36.4307 130.256C36.0509 129.913 35.6709 129.537 35.2985 129.164C35.2407 129.106 35.183 129.048 35.1256 128.99C34.8118 128.675 34.5044 128.367 34.2031 128.082L34.2007 128.079L34.2007 128.079C33.9395 127.825 33.6433 127.573 33.3351 127.432C33.0355 127.294 32.7474 127.269 32.4625 127.428L32.4606 127.429L32.4606 127.429C32.07 127.643 31.8018 128 31.4681 128.443C31.4554 128.46 31.4425 128.477 31.4296 128.494M38.1077 130.082C37.9131 130.958 37.2173 130.621 36.5981 130.07C36.1658 129.68 35.7316 129.244 35.3033 128.815C34.9896 128.5 34.6791 128.188 34.375 127.9C33.8443 127.384 33.0894 126.791 32.3405 127.21C31.9013 127.451 31.6027 127.848 31.2811 128.276C31.2638 128.299 31.2464 128.322 31.229 128.345M31.4296 128.494C31.4299 128.494 31.4302 128.494 31.4305 128.493L31.229 128.345M31.4296 128.494C31.4293 128.495 31.429 128.495 31.4287 128.496L31.229 128.345" stroke="url(#paint5_linear_4767_10946)" stroke-width="0.5"/>
<path d="M17.7523 118.344L17.811 118.246C17.9878 117.949 18.2774 117.724 18.6069 117.549C18.9383 117.374 19.3287 117.24 19.7319 117.135C20.5379 116.925 21.4323 116.824 22.086 116.754L22.0884 116.754L22.0884 116.754C22.2379 116.74 22.3888 116.725 22.5405 116.71C23.4057 116.624 24.3001 116.535 25.1578 116.535C26.7537 116.494 28.1872 117.046 29.0158 118.041C29.8582 119.053 30.0363 120.476 29.2006 122.067L29.1987 122.07L29.1987 122.07C28.593 123.18 27.5786 124.042 26.6425 124.837C26.585 124.885 26.5277 124.934 26.4709 124.982C25.9221 125.459 25.1745 126.084 24.4153 126.602C24.0355 126.862 23.6484 127.098 23.2785 127.276C22.9121 127.452 22.5471 127.579 22.214 127.607M17.7523 118.344L22.1919 127.358M17.7523 118.344L17.7672 118.389M17.7523 118.344L18.0287 118.383M22.214 127.607C22.2134 127.607 22.2128 127.607 22.2122 127.607L22.1919 127.358M22.214 127.607C22.2146 127.607 22.2152 127.607 22.2157 127.607L22.1919 127.358M22.214 127.607C21.9613 127.631 21.7367 127.599 21.5611 127.485C21.3773 127.366 21.2879 127.183 21.258 126.993C21.2291 126.81 21.2529 126.609 21.2996 126.416C21.3469 126.22 21.4218 126.015 21.5089 125.816L21.5095 125.814C21.7174 125.348 21.9582 124.869 22.1982 124.4C22.238 124.322 22.2778 124.244 22.3174 124.167C22.5176 123.776 22.7135 123.394 22.8891 123.025L22.8902 123.023L22.8902 123.023C23.05 122.696 23.1982 122.336 23.238 121.999C23.2767 121.672 23.2115 121.391 22.972 121.17L22.9702 121.169L22.9702 121.169C22.6432 120.862 22.2198 120.717 21.6973 120.538C21.6785 120.532 21.6595 120.525 21.6404 120.519M22.1919 127.358C21.2985 127.443 21.4047 126.677 21.7379 125.916C21.9765 125.38 22.2602 124.827 22.5394 124.282C22.7396 123.891 22.9375 123.505 23.1148 123.133C23.4391 122.469 23.7723 121.567 23.1413 120.986C22.774 120.641 22.3027 120.481 21.7984 120.308C21.7724 120.3 21.7463 120.291 21.7202 120.282M21.6404 120.519C21.6408 120.519 21.6412 120.519 21.6416 120.519L21.7202 120.282M21.6404 120.519C21.64 120.518 21.6395 120.518 21.6391 120.518L21.7202 120.282M21.6404 120.519C21.3623 120.427 21.0689 120.334 20.7723 120.24C20.5953 120.184 20.4171 120.128 20.2403 120.072L20.2297 120.068L20.2298 120.068C20.1155 120.026 19.9672 119.979 19.7935 119.925C19.7186 119.902 19.6389 119.877 19.5552 119.851C19.2849 119.765 18.983 119.664 18.709 119.542C18.4398 119.424 18.1727 119.275 17.9903 119.085C17.8163 118.904 17.7048 118.666 17.7672 118.389M21.7202 120.282C21.4404 120.189 21.1432 120.095 20.8447 120.001C20.6681 119.945 20.491 119.889 20.3167 119.833C20.1958 119.789 20.0372 119.739 19.8597 119.684C19.0332 119.427 17.7957 119.043 18.0287 118.383M17.7672 118.389L17.7886 118.453L17.7916 118.462L18.0287 118.383M17.7672 118.389C17.7738 118.36 17.7823 118.33 17.793 118.3L18.0144 118.378L18.0287 118.383" stroke="url(#paint6_linear_4767_10946)" stroke-width="0.5"/>
<path d="M27.1192 104.387H27.1221V104.387C27.1222 104.387 27.1222 104.387 27.1223 104.387L27.1221 104.394V104.624L27.1746 104.393C27.5119 104.47 27.816 104.676 28.0841 104.935C28.3537 105.196 28.6019 105.526 28.8262 105.877C29.2746 106.579 29.6476 107.399 29.9156 107.999L29.9164 108.001L29.9164 108.001C29.9701 108.124 30.0246 108.248 30.0793 108.373C30.4356 109.183 30.804 110.022 31.074 110.852C31.6057 112.358 31.5237 113.892 30.8331 114.987C30.131 116.1 28.8328 116.709 27.0622 116.406L27.058 116.405L27.0581 116.405C25.8174 116.171 24.689 115.476 23.6435 114.832C23.5771 114.791 23.5111 114.751 23.4453 114.71C23.445 114.71 23.4447 114.71 23.4444 114.71L23.5752 114.497C22.3339 113.751 20.3142 112.447 19.863 111.374L27.1192 104.387ZM27.1192 104.387H27.119C26.787 104.38 26.5662 104.573 26.4354 104.818C26.3112 105.05 26.2528 105.35 26.2229 105.643C26.1925 105.941 26.1895 106.259 26.1916 106.543C26.1923 106.63 26.1935 106.713 26.1945 106.792C26.197 106.974 26.1991 107.129 26.1942 107.251L26.1939 107.251L26.194 107.262C26.1969 107.754 26.1999 108.265 26.1999 108.733C26.1994 108.758 26.1988 108.784 26.1983 108.809C26.1873 109.356 26.1785 109.797 25.9906 110.198L25.9899 110.199C25.853 110.496 25.605 110.646 25.2813 110.71C24.9482 110.777 24.5603 110.747 24.1998 110.696L24.1998 110.696L24.197 110.696C23.7838 110.642 23.3505 110.573 22.908 110.502C22.8312 110.49 22.7541 110.477 22.6769 110.465C22.1564 110.382 21.6273 110.301 21.1189 110.247L21.1189 110.247L21.1166 110.247C20.9009 110.226 20.6831 110.218 20.4823 110.234C20.2842 110.25 20.0863 110.289 19.9209 110.374C19.7497 110.461 19.6037 110.602 19.5471 110.814C19.4929 111.016 19.5323 111.239 19.6331 111.472L27.1192 104.387Z" stroke="url(#paint7_linear_4767_10946)" stroke-width="0.5"/>
<path d="M43.2393 109.019L43.2059 108.654L43.0907 108.712C42.9669 108.562 42.7897 108.481 42.6029 108.447C42.3437 108.401 42.0402 108.438 41.7525 108.5C41.4595 108.563 41.1554 108.658 40.8862 108.748C40.8019 108.776 40.722 108.803 40.6469 108.829C40.4758 108.887 40.3297 108.936 40.213 108.969L40.2129 108.969L40.2026 108.973C40.0455 109.024 39.887 109.077 39.729 109.129C39.4154 109.234 39.1037 109.337 38.8089 109.431C38.7865 109.438 38.7642 109.445 38.7421 109.452C38.2152 109.612 37.7904 109.742 37.3482 109.687L37.3476 109.687C37.0232 109.648 36.8045 109.458 36.6429 109.17C36.4767 108.874 36.385 108.497 36.3225 108.138L36.3226 108.138L36.3221 108.135C36.2478 107.735 36.1816 107.311 36.114 106.878C36.1005 106.791 36.087 106.704 36.0733 106.617C35.9915 106.096 35.9051 105.568 35.7989 105.068L35.7989 105.068L35.7986 105.067C35.7523 104.856 35.6925 104.647 35.6155 104.461C35.5395 104.277 35.4408 104.101 35.3094 103.97C35.1734 103.834 34.9937 103.74 34.7751 103.751C34.5662 103.762 34.3659 103.868 34.1755 104.036C33.9222 104.254 33.7017 104.571 33.5089 104.929C33.3143 105.29 33.14 105.708 32.9853 106.141C32.676 107.007 32.4384 107.951 32.2742 108.66C32.2555 108.737 32.2366 108.815 32.2176 108.893C31.9282 110.084 31.6155 111.371 31.7771 112.621L31.7771 112.621L31.7777 112.625C32.0377 114.403 33.018 115.45 34.294 115.773C35.5494 116.091 37.0334 115.695 38.3017 114.723C39.0137 114.204 39.7004 113.592 40.3652 112.999C40.4626 112.913 40.5596 112.826 40.656 112.741L40.6574 112.739C41.1462 112.299 41.8102 111.691 42.3391 111.048C42.6037 110.727 42.8407 110.389 43.0055 110.052C43.1694 109.716 43.2709 109.364 43.2393 109.019Z" stroke="url(#paint8_linear_4767_10946)" stroke-width="0.5"/>
<path d="M43.8087 125.727L43.9601 125.662V125.607C44.146 125.423 44.1889 125.178 44.1561 124.942C44.1199 124.681 43.9908 124.404 43.843 124.15C43.6924 123.891 43.5079 123.632 43.3396 123.404C43.2882 123.334 43.2389 123.268 43.1925 123.206C43.0829 123.059 42.9895 122.934 42.9217 122.832L42.9219 122.832L42.9159 122.824C42.7809 122.638 42.6452 122.453 42.5111 122.271C42.353 122.057 42.1972 121.845 42.0478 121.638C42.0339 121.618 42.0202 121.598 42.0066 121.579C41.692 121.127 41.4394 120.765 41.3551 120.328L41.3549 120.328C41.292 120.006 41.4052 119.74 41.6287 119.498C41.8586 119.248 42.1895 119.045 42.5117 118.875L42.5117 118.875L42.5146 118.874C42.8754 118.677 43.2608 118.482 43.6545 118.282C43.7295 118.244 43.8047 118.206 43.8801 118.168C44.3498 117.93 44.8254 117.684 45.2681 117.429L45.2692 117.428C45.4565 117.319 45.6374 117.197 45.7908 117.066C45.9421 116.937 46.079 116.789 46.1631 116.623C46.2503 116.452 46.2848 116.251 46.206 116.047C46.1308 115.852 45.9678 115.694 45.7494 115.565C45.4635 115.391 45.0933 115.28 44.693 115.207C44.2888 115.134 43.8368 115.097 43.3768 115.084C42.4575 115.057 41.4853 115.123 40.7621 115.185C40.6875 115.191 40.6126 115.196 40.5372 115.202C39.3112 115.295 37.987 115.395 36.8424 115.937L36.8424 115.936L36.8385 115.938C35.2275 116.735 34.5354 117.991 34.6223 119.304C34.7078 120.596 35.5434 121.884 36.8578 122.791C37.5479 123.294 38.3169 123.743 39.0621 124.179C39.1991 124.259 39.3354 124.339 39.4701 124.418L39.4718 124.419C40.0419 124.749 40.8255 125.193 41.6009 125.497C41.9889 125.65 42.3836 125.771 42.755 125.823C43.1138 125.874 43.4701 125.864 43.7813 125.738H43.7912L43.8059 125.728C43.8068 125.728 43.8078 125.727 43.8087 125.727Z" stroke="url(#paint9_linear_4767_10946)" stroke-width="0.5"/>
<g filter="url(#filter3_f_4767_10946)">
<circle cx="32" cy="118" r="8" fill="#FFE699"/>
</g>
</g>
<path d="M65.3877 124.5V111.9H73.1817V113.142H66.8997V117.228H72.3897V118.452H66.8997V123.258H73.1817V124.5H65.3877ZM77.6719 124.5L74.2879 115.572H75.8719L78.5539 123.042L81.2539 115.572H82.8019L79.4179 124.5H77.6719ZM87.6816 124.716C86.8536 124.716 86.1036 124.524 85.4316 124.14C84.7716 123.756 84.2496 123.216 83.8656 122.52C83.4816 121.812 83.2896 120.984 83.2896 120.036C83.2896 119.1 83.4696 118.284 83.8296 117.588C84.2016 116.88 84.7176 116.334 85.3776 115.95C86.0496 115.554 86.8296 115.356 87.7176 115.356C88.5576 115.356 89.2896 115.542 89.9136 115.914C90.5376 116.286 91.0236 116.79 91.3716 117.426C91.7316 118.05 91.9116 118.752 91.9116 119.532C91.9116 119.7 91.9116 119.832 91.9116 119.928C91.9116 120.024 91.9056 120.174 91.8936 120.378H84.7836C84.8196 120.966 84.9576 121.494 85.1976 121.962C85.4496 122.418 85.7856 122.778 86.2056 123.042C86.6376 123.306 87.1296 123.438 87.6816 123.438C88.3056 123.438 88.8276 123.294 89.2476 123.006C89.6676 122.718 89.9736 122.328 90.1656 121.836H91.6596C91.5036 122.388 91.2456 122.88 90.8856 123.312C90.5256 123.744 90.0756 124.086 89.5356 124.338C89.0076 124.59 88.3896 124.716 87.6816 124.716ZM84.8016 119.208H90.4176C90.3816 118.404 90.1056 117.774 89.5896 117.318C89.0736 116.862 88.4376 116.634 87.6816 116.634C86.9616 116.634 86.3196 116.856 85.7556 117.3C85.2036 117.732 84.8856 118.368 84.8016 119.208ZM93.5556 124.5V115.572H94.9236L95.0136 117.174C95.3016 116.61 95.7156 116.166 96.2556 115.842C96.7956 115.518 97.4076 115.356 98.0916 115.356C99.1476 115.356 99.9876 115.68 100.612 116.328C101.248 116.964 101.566 117.948 101.566 119.28V124.5H100.054V119.442C100.054 118.518 99.8616 117.822 99.4776 117.354C99.0936 116.886 98.5176 116.652 97.7496 116.652C96.9816 116.652 96.3396 116.934 95.8236 117.498C95.3196 118.05 95.0676 118.842 95.0676 119.874V124.5H93.5556ZM107.042 124.5C106.226 124.5 105.584 124.302 105.116 123.906C104.648 123.51 104.414 122.796 104.414 121.764V116.85H102.866V115.572H104.414V113.43H105.926V115.572H108.428V116.85H105.926V121.764C105.926 122.328 106.04 122.712 106.268 122.916C106.496 123.108 106.898 123.204 107.474 123.204H108.428V124.5H107.042ZM118.047 124.5C117.231 124.5 116.589 124.302 116.121 123.906C115.653 123.51 115.419 122.796 115.419 121.764V116.85H113.871V115.572H115.419V113.43H116.931V115.572H119.433V116.85H116.931V121.764C116.931 122.328 117.045 122.712 117.273 122.916C117.501 123.108 117.903 123.204 118.479 123.204H119.433V124.5H118.047ZM124.09 124.716C123.478 124.716 122.92 124.614 122.416 124.41C121.912 124.206 121.51 123.9 121.21 123.492C120.922 123.072 120.778 122.562 120.778 121.962C120.778 121.266 120.958 120.714 121.318 120.306C121.678 119.886 122.152 119.586 122.74 119.406C123.34 119.214 123.982 119.118 124.666 119.118H127.078C127.078 118.494 126.97 118.002 126.754 117.642C126.55 117.282 126.28 117.024 125.944 116.868C125.608 116.712 125.236 116.634 124.828 116.634C124.24 116.634 123.73 116.778 123.298 117.066C122.878 117.342 122.614 117.774 122.506 118.362H120.958C121.018 117.714 121.234 117.168 121.606 116.724C121.978 116.28 122.446 115.944 123.01 115.716C123.586 115.476 124.192 115.356 124.828 115.356C125.728 115.356 126.454 115.524 127.006 115.86C127.558 116.184 127.96 116.622 128.212 117.174C128.464 117.726 128.59 118.338 128.59 119.01V121.746C128.59 122.19 128.644 122.526 128.752 122.754C128.86 122.982 129.136 123.12 129.58 123.168V124.5C129.184 124.5 128.824 124.452 128.5 124.356C128.176 124.248 127.9 124.08 127.672 123.852C127.456 123.612 127.3 123.3 127.204 122.916C126.904 123.42 126.49 123.846 125.962 124.194C125.446 124.542 124.822 124.716 124.09 124.716ZM124.324 123.438C124.924 123.438 125.428 123.288 125.836 122.988C126.244 122.676 126.55 122.28 126.754 121.8C126.97 121.32 127.078 120.822 127.078 120.306V120.288H124.792C124.372 120.288 123.976 120.336 123.604 120.432C123.232 120.516 122.932 120.678 122.704 120.918C122.476 121.146 122.362 121.47 122.362 121.89C122.362 122.43 122.554 122.826 122.938 123.078C123.322 123.318 123.784 123.438 124.324 123.438ZM134.463 124.716C133.755 124.716 133.119 124.596 132.555 124.356C131.991 124.104 131.535 123.756 131.187 123.312C130.851 122.856 130.641 122.322 130.557 121.71H132.105C132.201 122.178 132.447 122.586 132.843 122.934C133.251 123.27 133.797 123.438 134.481 123.438C135.117 123.438 135.585 123.306 135.885 123.042C136.185 122.766 136.335 122.442 136.335 122.07C136.335 121.71 136.245 121.434 136.065 121.242C135.897 121.05 135.645 120.906 135.309 120.81C134.985 120.702 134.583 120.6 134.103 120.504C133.599 120.396 133.107 120.252 132.627 120.072C132.147 119.88 131.751 119.622 131.439 119.298C131.127 118.974 130.971 118.548 130.971 118.02C130.971 117.492 131.103 117.03 131.367 116.634C131.631 116.238 132.003 115.926 132.483 115.698C132.975 115.47 133.551 115.356 134.211 115.356C135.159 115.356 135.933 115.596 136.533 116.076C137.145 116.544 137.499 117.216 137.595 118.092H136.101C136.041 117.636 135.843 117.282 135.507 117.03C135.183 116.766 134.745 116.634 134.193 116.634C133.653 116.634 133.233 116.748 132.933 116.976C132.645 117.204 132.501 117.504 132.501 117.876C132.501 118.116 132.585 118.32 132.753 118.488C132.921 118.656 133.161 118.8 133.473 118.92C133.797 119.04 134.175 119.148 134.607 119.244C135.207 119.364 135.753 119.514 136.245 119.694C136.737 119.874 137.133 120.138 137.433 120.486C137.733 120.822 137.883 121.308 137.883 121.944C137.895 122.472 137.757 122.946 137.469 123.366C137.193 123.786 136.797 124.116 136.281 124.356C135.777 124.596 135.171 124.716 134.463 124.716ZM139.683 124.5V111.9H141.195V119.334L144.849 115.572H146.703L142.743 119.604L147.207 124.5H145.281L141.195 119.874V124.5H139.683ZM152.797 124.5V115.572H154.165L154.291 117.282C154.567 116.694 154.987 116.226 155.551 115.878C156.115 115.53 156.811 115.356 157.639 115.356V116.94H157.225C156.241 116.94 155.509 117.204 155.029 117.732C154.549 118.26 154.309 119.016 154.309 120V124.5H152.797ZM162.656 124.716C161.828 124.716 161.078 124.524 160.406 124.14C159.746 123.756 159.224 123.216 158.84 122.52C158.456 121.812 158.264 120.984 158.264 120.036C158.264 119.1 158.444 118.284 158.804 117.588C159.176 116.88 159.692 116.334 160.352 115.95C161.024 115.554 161.804 115.356 162.692 115.356C163.532 115.356 164.264 115.542 164.888 115.914C165.512 116.286 165.998 116.79 166.346 117.426C166.706 118.05 166.886 118.752 166.886 119.532C166.886 119.7 166.886 119.832 166.886 119.928C166.886 120.024 166.88 120.174 166.868 120.378H159.758C159.794 120.966 159.932 121.494 160.172 121.962C160.424 122.418 160.76 122.778 161.18 123.042C161.612 123.306 162.104 123.438 162.656 123.438C163.28 123.438 163.802 123.294 164.222 123.006C164.642 122.718 164.948 122.328 165.14 121.836H166.634C166.478 122.388 166.22 122.88 165.86 123.312C165.5 123.744 165.05 124.086 164.51 124.338C163.982 124.59 163.364 124.716 162.656 124.716ZM159.776 119.208H165.392C165.356 118.404 165.08 117.774 164.564 117.318C164.048 116.862 163.412 116.634 162.656 116.634C161.936 116.634 161.294 116.856 160.73 117.3C160.178 117.732 159.86 118.368 159.776 119.208ZM168.53 124.5V115.572H169.898L170.006 116.868C170.294 116.388 170.678 116.016 171.158 115.752C171.638 115.488 172.178 115.356 172.778 115.356C173.486 115.356 174.092 115.5 174.596 115.788C175.112 116.076 175.508 116.514 175.784 117.102C176.096 116.562 176.522 116.136 177.062 115.824C177.614 115.512 178.208 115.356 178.844 115.356C179.564 115.356 180.182 115.5 180.698 115.788C181.226 116.064 181.634 116.496 181.922 117.084C182.21 117.66 182.354 118.392 182.354 119.28V124.5H180.86V119.442C180.86 118.518 180.674 117.822 180.302 117.354C179.93 116.886 179.396 116.652 178.7 116.652C177.98 116.652 177.38 116.934 176.9 117.498C176.432 118.05 176.198 118.842 176.198 119.874V124.5H174.686V119.442C174.686 118.518 174.5 117.822 174.128 117.354C173.756 116.886 173.222 116.652 172.526 116.652C171.818 116.652 171.224 116.934 170.744 117.498C170.276 118.05 170.042 118.842 170.042 119.874V124.5H168.53ZM185.189 113.592C184.889 113.592 184.637 113.496 184.433 113.304C184.241 113.1 184.145 112.848 184.145 112.548C184.145 112.26 184.241 112.02 184.433 111.828C184.637 111.636 184.889 111.54 185.189 111.54C185.477 111.54 185.723 111.636 185.927 111.828C186.131 112.02 186.233 112.26 186.233 112.548C186.233 112.848 186.131 113.1 185.927 113.304C185.723 113.496 185.477 113.592 185.189 113.592ZM184.433 124.5V115.572H185.945V124.5H184.433ZM188.218 124.5V115.572H189.586L189.676 117.174C189.964 116.61 190.378 116.166 190.918 115.842C191.458 115.518 192.07 115.356 192.754 115.356C193.81 115.356 194.65 115.68 195.274 116.328C195.91 116.964 196.228 117.948 196.228 119.28V124.5H194.716V119.442C194.716 118.518 194.524 117.822 194.14 117.354C193.756 116.886 193.18 116.652 192.412 116.652C191.644 116.652 191.002 116.934 190.486 117.498C189.982 118.05 189.73 118.842 189.73 119.874V124.5H188.218ZM202.226 124.716C201.314 124.716 200.528 124.506 199.868 124.086C199.208 123.666 198.698 123.102 198.338 122.394C197.978 121.686 197.798 120.894 197.798 120.018C197.798 119.154 197.972 118.368 198.32 117.66C198.68 116.952 199.19 116.394 199.85 115.986C200.51 115.566 201.308 115.356 202.244 115.356C202.976 115.356 203.624 115.506 204.188 115.806C204.752 116.106 205.19 116.526 205.502 117.066V111.9H207.014V124.5H205.646L205.502 123.024C205.214 123.456 204.8 123.846 204.26 124.194C203.72 124.542 203.042 124.716 202.226 124.716ZM202.388 123.402C203.048 123.402 203.606 123.252 204.062 122.952C204.518 122.64 204.86 122.232 205.088 121.728C205.328 121.212 205.448 120.648 205.448 120.036C205.448 119.388 205.328 118.812 205.088 118.308C204.848 117.804 204.5 117.408 204.044 117.12C203.588 116.82 203.036 116.67 202.388 116.67C201.812 116.67 201.296 116.808 200.84 117.084C200.384 117.36 200.018 117.75 199.742 118.254C199.478 118.746 199.346 119.34 199.346 120.036C199.346 120.732 199.484 121.332 199.76 121.836C200.036 122.34 200.402 122.73 200.858 123.006C201.326 123.27 201.836 123.402 202.388 123.402ZM213.133 124.716C212.305 124.716 211.555 124.524 210.883 124.14C210.223 123.756 209.701 123.216 209.317 122.52C208.933 121.812 208.741 120.984 208.741 120.036C208.741 119.1 208.921 118.284 209.281 117.588C209.653 116.88 210.169 116.334 210.829 115.95C211.501 115.554 212.281 115.356 213.169 115.356C214.009 115.356 214.741 115.542 215.365 115.914C215.989 116.286 216.475 116.79 216.823 117.426C217.183 118.05 217.363 118.752 217.363 119.532C217.363 119.7 217.363 119.832 217.363 119.928C217.363 120.024 217.357 120.174 217.345 120.378H210.235C210.271 120.966 210.409 121.494 210.649 121.962C210.901 122.418 211.237 122.778 211.657 123.042C212.089 123.306 212.581 123.438 213.133 123.438C213.757 123.438 214.279 123.294 214.699 123.006C215.119 122.718 215.425 122.328 215.617 121.836H217.111C216.955 122.388 216.697 122.88 216.337 123.312C215.977 123.744 215.527 124.086 214.987 124.338C214.459 124.59 213.841 124.716 213.133 124.716ZM210.253 119.208H215.869C215.833 118.404 215.557 117.774 215.041 117.318C214.525 116.862 213.889 116.634 213.133 116.634C212.413 116.634 211.771 116.856 211.207 117.3C210.655 117.732 210.337 118.368 210.253 119.208ZM219.007 124.5V115.572H220.375L220.501 117.282C220.777 116.694 221.197 116.226 221.761 115.878C222.325 115.53 223.021 115.356 223.849 115.356V116.94H223.435C222.451 116.94 221.719 117.204 221.239 117.732C220.759 118.26 220.519 119.016 220.519 120V124.5H219.007ZM228.606 124.716C227.898 124.716 227.262 124.596 226.698 124.356C226.134 124.104 225.678 123.756 225.33 123.312C224.994 122.856 224.784 122.322 224.7 121.71H226.248C226.344 122.178 226.59 122.586 226.986 122.934C227.394 123.27 227.94 123.438 228.624 123.438C229.26 123.438 229.728 123.306 230.028 123.042C230.328 122.766 230.478 122.442 230.478 122.07C230.478 121.71 230.388 121.434 230.208 121.242C230.04 121.05 229.788 120.906 229.452 120.81C229.128 120.702 228.726 120.6 228.246 120.504C227.742 120.396 227.25 120.252 226.77 120.072C226.29 119.88 225.894 119.622 225.582 119.298C225.27 118.974 225.114 118.548 225.114 118.02C225.114 117.492 225.246 117.03 225.51 116.634C225.774 116.238 226.146 115.926 226.626 115.698C227.118 115.47 227.694 115.356 228.354 115.356C229.302 115.356 230.076 115.596 230.676 116.076C231.288 116.544 231.642 117.216 231.738 118.092H230.244C230.184 117.636 229.986 117.282 229.65 117.03C229.326 116.766 228.888 116.634 228.336 116.634C227.796 116.634 227.376 116.748 227.076 116.976C226.788 117.204 226.644 117.504 226.644 117.876C226.644 118.116 226.728 118.32 226.896 118.488C227.064 118.656 227.304 118.8 227.616 118.92C227.94 119.04 228.318 119.148 228.75 119.244C229.35 119.364 229.896 119.514 230.388 119.694C230.88 119.874 231.276 120.138 231.576 120.486C231.876 120.822 232.026 121.308 232.026 121.944C232.038 122.472 231.9 122.946 231.612 123.366C231.336 123.786 230.94 124.116 230.424 124.356C229.92 124.596 229.314 124.716 228.606 124.716Z" fill="#574F38"/>
</g>
<g opacity="0.45" filter="url(#filter4_b_4767_10946)">
<rect x="29" y="164" width="236" height="56" rx="28" fill="#F1EAD6"/>
<g clip-path="url(#clip2_4767_10946)">
<rect x="41" y="172" width="40" height="40" rx="20" fill="#3E361F"/>
<path d="M56.1192 178.387H56.1221V178.387C56.1222 178.387 56.1222 178.387 56.1223 178.387L56.1221 178.394V178.624L56.1746 178.393C56.5119 178.47 56.816 178.676 57.0841 178.935C57.3537 179.196 57.6019 179.526 57.8262 179.877C58.2746 180.579 58.6476 181.399 58.9156 181.999L58.9164 182.001L58.9164 182.001C58.9701 182.124 59.0246 182.248 59.0793 182.373C59.4356 183.183 59.804 184.022 60.074 184.852C60.6057 186.358 60.5237 187.892 59.8331 188.987C59.131 190.1 57.8328 190.709 56.0622 190.406L56.058 190.405L56.0581 190.405C54.8174 190.171 53.689 189.476 52.6435 188.832C52.5771 188.791 52.5111 188.751 52.4453 188.71C52.445 188.71 52.4447 188.71 52.4444 188.71L52.5752 188.497C51.3339 187.751 49.3142 186.447 48.863 185.374L56.1192 178.387ZM56.1192 178.387H56.119C55.787 178.38 55.5662 178.573 55.4354 178.818C55.3112 179.05 55.2528 179.35 55.2229 179.643C55.1925 179.941 55.1895 180.259 55.1916 180.543C55.1923 180.63 55.1935 180.713 55.1945 180.792C55.197 180.974 55.1991 181.129 55.1942 181.251L55.1939 181.251L55.194 181.262C55.1969 181.754 55.1999 182.265 55.1999 182.733C55.1994 182.758 55.1988 182.784 55.1983 182.809C55.1873 183.356 55.1785 183.797 54.9906 184.198L54.9899 184.199C54.853 184.496 54.605 184.646 54.2813 184.71C53.9482 184.777 53.5603 184.747 53.1998 184.696L53.1998 184.696L53.197 184.696C52.7838 184.642 52.3505 184.573 51.908 184.502C51.8312 184.49 51.7541 184.477 51.6769 184.465C51.1564 184.382 50.6273 184.301 50.1189 184.247L50.1189 184.247L50.1166 184.247C49.9009 184.226 49.6831 184.218 49.4823 184.234C49.2842 184.25 49.0863 184.289 48.9209 184.374C48.7497 184.461 48.6037 184.602 48.5471 184.814C48.4929 185.016 48.5323 185.239 48.6331 185.472L56.1192 178.387Z" stroke="url(#paint10_linear_4767_10946)" stroke-width="0.5"/>
<path d="M72.2393 183.019L72.2059 182.654L72.0907 182.712C71.9669 182.562 71.7897 182.481 71.6029 182.447C71.3437 182.401 71.0402 182.438 70.7525 182.5C70.4595 182.563 70.1554 182.658 69.8862 182.748C69.8019 182.776 69.722 182.803 69.6469 182.829C69.4758 182.887 69.3297 182.936 69.213 182.969L69.2129 182.969L69.2026 182.973C69.0455 183.024 68.887 183.077 68.729 183.129C68.4154 183.234 68.1037 183.337 67.8089 183.431C67.7865 183.438 67.7642 183.445 67.7421 183.452C67.2152 183.612 66.7904 183.742 66.3482 183.687L66.3476 183.687C66.0232 183.648 65.8045 183.458 65.6429 183.17C65.4767 182.874 65.385 182.497 65.3225 182.138L65.3226 182.138L65.3221 182.135C65.2478 181.735 65.1816 181.311 65.114 180.878C65.1005 180.791 65.087 180.704 65.0733 180.617C64.9915 180.096 64.9051 179.568 64.7989 179.068L64.7989 179.068L64.7986 179.067C64.7523 178.856 64.6925 178.647 64.6155 178.461C64.5395 178.277 64.4408 178.101 64.3094 177.97C64.1734 177.834 63.9937 177.74 63.7751 177.751C63.5662 177.762 63.3659 177.868 63.1755 178.036C62.9222 178.254 62.7017 178.571 62.5089 178.929C62.3143 179.29 62.14 179.708 61.9853 180.141C61.676 181.007 61.4384 181.951 61.2742 182.66C61.2555 182.737 61.2366 182.815 61.2176 182.893C60.9282 184.084 60.6155 185.371 60.7771 186.621L60.7771 186.621L60.7777 186.625C61.0377 188.403 62.018 189.45 63.294 189.773C64.5494 190.091 66.0334 189.695 67.3017 188.723C68.0137 188.204 68.7004 187.592 69.3652 186.999C69.4626 186.913 69.5596 186.826 69.656 186.741L69.6574 186.739C70.1462 186.299 70.8102 185.691 71.3391 185.048C71.6037 184.727 71.8407 184.389 72.0055 184.052C72.1694 183.716 72.2709 183.364 72.2393 183.019Z" stroke="url(#paint11_linear_4767_10946)" stroke-width="0.5"/>
<g filter="url(#filter5_f_4767_10946)">
<circle cx="61" cy="192" r="8" fill="#FFE699"/>
</g>
</g>
</g>
<defs>
<filter id="filter0_b_4767_10946" x="-24" y="-24" width="342" height="120" filterUnits="userSpaceOnUse" color-interpolation-filters="sRGB">
<feFlood flood-opacity="0" result="BackgroundImageFix"/>
<feGaussianBlur in="BackgroundImageFix" stdDeviation="12"/>
<feComposite in2="SourceAlpha" operator="in" result="effect1_backgroundBlur_4767_10946"/>
<feBlend mode="normal" in="SourceGraphic" in2="effect1_backgroundBlur_4767_10946" result="shape"/>
</filter>
<filter id="filter1_f_4767_10946" x="0" y="4" width="64" height="64" filterUnits="userSpaceOnUse" color-interpolation-filters="sRGB">
<feFlood flood-opacity="0" result="BackgroundImageFix"/>
<feBlend mode="normal" in="SourceGraphic" in2="BackgroundImageFix" result="shape"/>
<feGaussianBlur stdDeviation="12" result="effect1_foregroundBlur_4767_10946"/>
</filter>
<filter id="filter2_b_4767_10946" x="-24" y="66" width="342" height="104" filterUnits="userSpaceOnUse" color-interpolation-filters="sRGB">
<feFlood flood-opacity="0" result="BackgroundImageFix"/>
<feGaussianBlur in="BackgroundImageFix" stdDeviation="12"/>
<feComposite in2="SourceAlpha" operator="in" result="effect1_backgroundBlur_4767_10946"/>
<feBlend mode="normal" in="SourceGraphic" in2="effect1_backgroundBlur_4767_10946" result="shape"/>
</filter>
<filter id="filter3_f_4767_10946" x="0" y="86" width="64" height="64" filterUnits="userSpaceOnUse" color-interpolation-filters="sRGB">
<feFlood flood-opacity="0" result="BackgroundImageFix"/>
<feBlend mode="normal" in="SourceGraphic" in2="BackgroundImageFix" result="shape"/>
<feGaussianBlur stdDeviation="12" result="effect1_foregroundBlur_4767_10946"/>
</filter>
<filter id="filter4_b_4767_10946" x="5" y="140" width="284" height="104" filterUnits="userSpaceOnUse" color-interpolation-filters="sRGB">
<feFlood flood-opacity="0" result="BackgroundImageFix"/>
<feGaussianBlur in="BackgroundImageFix" stdDeviation="12"/>
<feComposite in2="SourceAlpha" operator="in" result="effect1_backgroundBlur_4767_10946"/>
<feBlend mode="normal" in="SourceGraphic" in2="effect1_backgroundBlur_4767_10946" result="shape"/>
</filter>
<filter id="filter5_f_4767_10946" x="29" y="160" width="64" height="64" filterUnits="userSpaceOnUse" color-interpolation-filters="sRGB">
<feFlood flood-opacity="0" result="BackgroundImageFix"/>
<feBlend mode="normal" in="SourceGraphic" in2="BackgroundImageFix" result="shape"/>
<feGaussianBlur stdDeviation="12" result="effect1_foregroundBlur_4767_10946"/>
</filter>
<linearGradient id="paint0_linear_4767_10946" x1="33.011" y1="38.7349" x2="33.5" y2="49.5" gradientUnits="userSpaceOnUse">
<stop stop-color="#FFCF3B"/>
<stop offset="1" stop-color="white" stop-opacity="0.06"/>
</linearGradient>
<linearGradient id="paint1_linear_4767_10946" x1="19.5" y1="42" x2="30.0615" y2="36.1104" gradientUnits="userSpaceOnUse">
<stop stop-color="white" stop-opacity="0.06"/>
<stop offset="1" stop-color="#FFCF3B"/>
</linearGradient>
<linearGradient id="paint2_linear_4767_10946" x1="30.9999" y1="33" x2="21.9999" y2="27" gradientUnits="userSpaceOnUse">
<stop stop-color="#FFCF3B"/>
<stop offset="1" stop-color="white" stop-opacity="0.06"/>
</linearGradient>
<linearGradient id="paint3_linear_4767_10946" x1="42" y1="22" x2="32.8326" y2="33.6307" gradientUnits="userSpaceOnUse">
<stop stop-color="white" stop-opacity="0.06"/>
<stop offset="1" stop-color="#FFCF3B"/>
</linearGradient>
<linearGradient id="paint4_linear_4767_10946" x1="37" y1="36" x2="46.9631" y2="39.602" gradientUnits="userSpaceOnUse">
<stop stop-color="#FFCF3B"/>
<stop offset="1" stop-color="white" stop-opacity="0.06"/>
</linearGradient>
<linearGradient id="paint5_linear_4767_10946" x1="33.011" y1="120.735" x2="33.5" y2="131.5" gradientUnits="userSpaceOnUse">
<stop stop-color="#FFCF3B"/>
<stop offset="1" stop-color="white" stop-opacity="0.06"/>
</linearGradient>
<linearGradient id="paint6_linear_4767_10946" x1="19.5" y1="124" x2="30.0615" y2="118.11" gradientUnits="userSpaceOnUse">
<stop stop-color="white" stop-opacity="0.06"/>
<stop offset="1" stop-color="#FFCF3B"/>
</linearGradient>
<linearGradient id="paint7_linear_4767_10946" x1="30.9999" y1="115" x2="21.9999" y2="109" gradientUnits="userSpaceOnUse">
<stop stop-color="#FFCF3B"/>
<stop offset="1" stop-color="white" stop-opacity="0.06"/>
</linearGradient>
<linearGradient id="paint8_linear_4767_10946" x1="42" y1="104" x2="32.8326" y2="115.631" gradientUnits="userSpaceOnUse">
<stop stop-color="white" stop-opacity="0.06"/>
<stop offset="1" stop-color="#FFCF3B"/>
</linearGradient>
<linearGradient id="paint9_linear_4767_10946" x1="37" y1="118" x2="46.9631" y2="121.602" gradientUnits="userSpaceOnUse">
<stop stop-color="#FFCF3B"/>
<stop offset="1" stop-color="white" stop-opacity="0.06"/>
</linearGradient>
<linearGradient id="paint10_linear_4767_10946" x1="59.9999" y1="189" x2="50.9999" y2="183" gradientUnits="userSpaceOnUse">
<stop stop-color="#FFCF3B"/>
<stop offset="1" stop-color="white" stop-opacity="0.06"/>
</linearGradient>
<linearGradient id="paint11_linear_4767_10946" x1="71" y1="178" x2="61.8326" y2="189.631" gradientUnits="userSpaceOnUse">
<stop stop-color="white" stop-opacity="0.06"/>
<stop offset="1" stop-color="#FFCF3B"/>
</linearGradient>
<clipPath id="clip0_4767_10946">
<rect x="12" y="16" width="40" height="40" rx="20" fill="white"/>
</clipPath>
<clipPath id="clip1_4767_10946">
<rect x="12" y="98" width="40" height="40" rx="20" fill="white"/>
</clipPath>
<clipPath id="clip2_4767_10946">
<rect x="41" y="172" width="40" height="40" rx="20" fill="white"/>
</clipPath>
</defs>
</svg>
