<svg width="338" height="306" viewBox="0 0 338 306" fill="none" xmlns="http://www.w3.org/2000/svg">
<path opacity="0.4" d="M283.333 150C283.333 214.5 227.333 266.667 158.333 266.667L142.834 285.333L133.667 296.334C125.833 305.667 110.833 303.667 105.667 292.5L83.3334 243.333C53 222 33.3334 188.167 33.3334 150C33.3334 85.5002 89.3334 33.3335 158.333 33.3335C208.667 33.3335 252.167 61.1669 271.667 101.167C279.167 116 283.333 132.5 283.333 150Z" fill="url(#paint0_linear_4816_55708)"/>
<path d="M366.672 214.334C366.672 252.501 347.005 286.335 316.672 307.668L294.338 356.834C289.172 368.001 274.172 370.168 266.338 360.668L241.672 331.001C201.338 331.001 165.339 313.168 142.839 285.334L158.338 266.668C227.338 266.668 283.338 214.501 283.338 150.001C283.338 132.501 279.172 116.001 271.672 101.168C326.172 113.668 366.672 159.668 366.672 214.334Z" fill="url(#paint1_linear_4816_55708)"/>
<path d="M200 162.5H116.667C109.833 162.5 104.167 156.833 104.167 150C104.167 143.167 109.833 137.5 116.667 137.5H200C206.833 137.5 212.5 143.167 212.5 150C212.5 156.833 206.833 162.5 200 162.5Z" fill="url(#paint2_linear_4816_55708)"/>
<defs>
<linearGradient id="paint0_linear_4816_55708" x1="158.333" y1="33.3335" x2="158.333" y2="302.259" gradientUnits="userSpaceOnUse">
<stop stop-color="#EBE9F5"/>
<stop offset="1" stop-color="#D1CEE9"/>
</linearGradient>
<linearGradient id="paint1_linear_4816_55708" x1="254.755" y1="101.168" x2="254.755" y2="366.663" gradientUnits="userSpaceOnUse">
<stop stop-color="#EBE9F5"/>
<stop offset="1" stop-color="#D1CEE9"/>
</linearGradient>
<linearGradient id="paint2_linear_4816_55708" x1="158.333" y1="137.5" x2="158.333" y2="162.5" gradientUnits="userSpaceOnUse">
<stop stop-color="#EBE9F5"/>
<stop offset="1" stop-color="#D1CEE9"/>
</linearGradient>
</defs>
</svg>
