<svg width="330" height="460" viewBox="0 0 330 460" fill="none" xmlns="http://www.w3.org/2000/svg">
<g clip-path="url(#clip0_3979_24000)">
<rect width="330" height="460" rx="16" fill="#F7F2F5"/>
<g clip-path="url(#clip1_3979_24000)">
<path d="M0 215C0 201.745 10.7452 191 24 191H306C319.255 191 330 201.745 330 215V512H0V215Z" fill="url(#paint0_linear_3979_24000)"/>
<circle cx="50" cy="243" r="32" fill="#EFE5EB"/>
<path opacity="0.4" d="M62.4933 242.187V250.173C62.4933 253.853 59.5066 256.84 55.8266 256.84H44.1733C40.4933 256.84 37.5066 253.853 37.5066 250.173V242.28C38.5199 243.373 39.9599 244 41.5199 244C43.1999 244 44.8133 243.16 45.8266 241.813C46.7333 243.16 48.2799 244 49.9999 244C51.7066 244 53.2266 243.2 54.1466 241.867C55.1733 243.187 56.7599 244 58.4133 244C60.0266 244 61.4933 243.347 62.4933 242.187Z" fill="#C099AF"/>
<path d="M53.987 228.667H45.987L45.0004 238.48C44.9204 239.387 45.0537 240.24 45.387 241.014C46.1604 242.827 47.9737 244 50.0004 244C52.0537 244 53.827 242.854 54.627 241.027C54.867 240.454 55.0137 239.787 55.027 239.107V238.854L53.987 228.667Z" fill="#C099AF"/>
<path opacity="0.6" d="M63.8134 238.027L63.4268 234.334C62.8668 230.307 61.0401 228.667 57.1334 228.667H52.0134L53.0001 238.667C53.0134 238.8 53.0268 238.947 53.0268 239.2C53.1068 239.894 53.3201 240.534 53.6401 241.107C54.6001 242.867 56.4668 244 58.4134 244C60.1868 244 61.7868 243.214 62.7868 241.827C63.5868 240.76 63.9468 239.414 63.8134 238.027Z" fill="#C099AF"/>
<path opacity="0.6" d="M42.7862 228.667C38.8662 228.667 37.0529 230.307 36.4795 234.374L36.1195 238.04C35.9862 239.467 36.3729 240.854 37.2129 241.934C38.2262 243.254 39.7862 244 41.5195 244C43.4662 244 45.3329 242.867 46.2795 241.134C46.6262 240.534 46.8529 239.84 46.9195 239.12L47.9595 228.68H42.7862V228.667Z" fill="#C099AF"/>
<path d="M49.1332 249.213C47.4399 249.386 46.1599 250.826 46.1599 252.533V256.84H53.8266V253C53.8399 250.213 52.1999 248.893 49.1332 249.213Z" fill="#C099AF"/>
<circle cx="127" cy="243" r="32" fill="#EFE5EB"/>
<path opacity="0.4" d="M140.333 239.28V246.72C140.333 252.186 138.667 253.853 133.2 253.853H124.213V249.826C124.213 249.32 123.787 248.893 123.28 248.893V237.106C123.787 237.106 124.213 236.68 124.213 236.173V232.146H133.2C138.667 232.146 140.333 233.813 140.333 239.28Z" fill="#C099AF"/>
<path d="M135.627 242.866C135.853 242.653 135.933 242.32 135.84 242.026C135.747 241.72 135.493 241.506 135.173 241.466L133.467 241.213C133.4 241.2 133.347 241.16 133.32 241.106L132.56 239.56C132.427 239.28 132.133 239.106 131.827 239.106C131.507 239.106 131.227 239.28 131.08 239.56L130.32 241.106C130.293 241.173 130.227 241.213 130.16 241.213L128.453 241.466C128.147 241.506 127.88 241.733 127.787 242.026C127.693 242.333 127.773 242.653 128 242.866L129.24 244.066C129.293 244.106 129.307 244.186 129.293 244.253L129 245.946C128.947 246.253 129.067 246.573 129.333 246.746C129.48 246.853 129.64 246.906 129.813 246.906C129.947 246.906 130.08 246.88 130.2 246.813L131.733 246.013C131.787 245.986 131.867 245.986 131.92 246.013L133.453 246.813C133.733 246.96 134.067 246.933 134.32 246.746C134.573 246.56 134.707 246.253 134.653 245.933L134.36 244.24C134.347 244.173 134.373 244.106 134.413 244.053L135.627 242.866Z" fill="#C099AF"/>
<path d="M123.28 237.106V248.893C122.773 248.893 122.346 249.32 122.346 249.826V253.853H120.8C115.533 253.853 113.8 252.28 113.68 247.373C113.666 247.12 113.773 246.88 113.946 246.706C114.12 246.52 114.373 246.426 114.613 246.426C116.48 246.426 118.013 244.893 118.013 243.013C118.013 241.133 116.48 239.586 114.613 239.586C114.346 239.586 114.12 239.493 113.946 239.306C113.773 239.133 113.666 238.88 113.68 238.64C113.8 233.72 115.533 232.146 120.8 232.146H122.346V236.173C122.346 236.693 122.773 237.106 123.28 237.106Z" fill="#C099AF"/>
<circle cx="204" cy="243" r="32" fill="#EFE5EB"/>
<path d="M213.773 234.574L205.413 230.067C204.533 229.587 203.466 229.587 202.586 230.067L194.226 234.574C193.613 234.907 193.24 235.547 193.24 236.28C193.24 237 193.613 237.654 194.226 237.987L202.586 242.494C203.026 242.734 203.52 242.854 204 242.854C204.48 242.854 204.973 242.734 205.413 242.494L213.773 237.987C214.386 237.654 214.759 237.014 214.759 236.28C214.759 235.547 214.386 234.907 213.773 234.574Z" fill="#C099AF"/>
<path opacity="0.4" d="M201.213 244.053L193.427 240.16C192.827 239.866 192.133 239.893 191.573 240.24C191 240.6 190.667 241.2 190.667 241.866V249.213C190.667 250.48 191.373 251.626 192.507 252.2L200.28 256.093C200.547 256.226 200.84 256.293 201.133 256.293C201.48 256.293 201.827 256.2 202.133 256.013C202.707 255.666 203.04 255.053 203.04 254.386V247.04C203.053 245.76 202.347 244.613 201.213 244.053Z" fill="#C099AF"/>
<path opacity="0.4" d="M216.426 240.24C215.853 239.894 215.16 239.854 214.573 240.16L206.8 244.054C205.666 244.627 204.96 245.76 204.96 247.04V254.387C204.96 255.054 205.293 255.667 205.866 256.014C206.173 256.2 206.52 256.294 206.866 256.294C207.16 256.294 207.453 256.227 207.72 256.094L215.493 252.2C216.626 251.627 217.333 250.494 217.333 249.214V241.867C217.333 241.2 217 240.6 216.426 240.24Z" fill="#C099AF"/>
<circle cx="281" cy="243" r="32" fill="#EFE5EB"/>
<path opacity="0.4" d="M294.333 249V253C294.333 255 293 256.334 291 256.334H273C273.547 256.334 274.107 256.254 274.627 256.08C274.773 256.027 274.92 255.974 275.067 255.907C275.533 255.72 275.987 255.454 276.387 255.107C276.507 255.014 276.64 254.894 276.76 254.774L276.813 254.72L285.88 245.667H291C293 245.667 294.333 247 294.333 249Z" fill="#C099AF"/>
<path opacity="0.6" d="M289.494 242.053L285.88 245.666L276.814 254.72C277.747 253.76 278.334 252.44 278.334 251V238.12L281.947 234.506C283.36 233.093 285.254 233.093 286.667 234.506L289.494 237.333C290.907 238.746 290.907 240.64 289.494 242.053Z" fill="#C099AF"/>
<path d="M275 229.667H271C269 229.667 267.667 231 267.667 233V251C267.667 251.36 267.707 251.72 267.773 252.067C267.813 252.24 267.853 252.414 267.907 252.587C267.973 252.787 268.04 252.987 268.12 253.174C268.133 253.187 268.133 253.2 268.133 253.2C268.147 253.2 268.147 253.2 268.133 253.214C268.32 253.587 268.533 253.947 268.787 254.28C268.933 254.454 269.08 254.614 269.227 254.774C269.373 254.934 269.533 255.067 269.707 255.2L269.72 255.214C270.053 255.467 270.413 255.68 270.787 255.867C270.8 255.854 270.8 255.854 270.8 255.867C271 255.96 271.2 256.027 271.413 256.094C271.587 256.147 271.76 256.187 271.933 256.227C272.28 256.294 272.64 256.334 273 256.334C273.547 256.334 274.107 256.254 274.627 256.08C274.773 256.027 274.92 255.974 275.067 255.907C275.533 255.72 275.987 255.454 276.387 255.107C276.507 255.014 276.64 254.894 276.76 254.774L276.813 254.72C277.747 253.76 278.333 252.44 278.333 251V233C278.333 231 277 229.667 275 229.667ZM273 253C271.893 253 271 252.107 271 251C271 249.894 271.893 249 273 249C274.107 249 275 249.894 275 251C275 252.107 274.107 253 273 253Z" fill="#C099AF"/>
<circle cx="49" cy="395" r="32" fill="#EFE5EB"/>
<path opacity="0.4" d="M61.4933 394.187V402.173C61.4933 405.853 58.5066 408.84 54.8266 408.84H43.1733C39.4933 408.84 36.5066 405.853 36.5066 402.173V394.28C37.5199 395.373 38.9599 396 40.5199 396C42.1999 396 43.8133 395.16 44.8266 393.813C45.7333 395.16 47.2799 396 48.9999 396C50.7066 396 52.2266 395.2 53.1466 393.867C54.1733 395.187 55.7599 396 57.4133 396C59.0266 396 60.4933 395.347 61.4933 394.187Z" fill="#C099AF"/>
<path d="M52.987 380.667H44.987L44.0004 390.48C43.9204 391.387 44.0537 392.24 44.387 393.014C45.1604 394.827 46.9737 396 49.0004 396C51.0537 396 52.827 394.854 53.627 393.027C53.867 392.454 54.0137 391.787 54.027 391.107V390.854L52.987 380.667Z" fill="#C099AF"/>
<path opacity="0.6" d="M62.8134 390.027L62.4268 386.334C61.8668 382.307 60.0401 380.667 56.1334 380.667H51.0134L52.0001 390.667C52.0134 390.8 52.0268 390.947 52.0268 391.2C52.1068 391.894 52.3201 392.534 52.6401 393.107C53.6001 394.867 55.4668 396 57.4134 396C59.1868 396 60.7868 395.214 61.7868 393.827C62.5868 392.76 62.9468 391.414 62.8134 390.027Z" fill="#C099AF"/>
<path opacity="0.6" d="M41.7862 380.667C37.8662 380.667 36.0529 382.307 35.4795 386.374L35.1195 390.04C34.9862 391.467 35.3729 392.854 36.2129 393.934C37.2262 395.254 38.7862 396 40.5195 396C42.4662 396 44.3329 394.867 45.2795 393.134C45.6262 392.534 45.8529 391.84 45.9195 391.12L46.9595 380.68H41.7862V380.667Z" fill="#C099AF"/>
<path d="M48.1332 401.213C46.4399 401.386 45.1599 402.826 45.1599 404.533V408.84H52.8266V405C52.8399 402.213 51.1999 400.893 48.1332 401.213Z" fill="#C099AF"/>
<circle cx="126" cy="395" r="32" fill="#EFE5EB"/>
<path opacity="0.4" d="M138.493 394.187V402.173C138.493 405.853 135.507 408.84 131.827 408.84H120.173C116.493 408.84 113.507 405.853 113.507 402.173V394.28C114.52 395.373 115.96 396 117.52 396C119.2 396 120.813 395.16 121.827 393.813C122.733 395.16 124.28 396 126 396C127.707 396 129.227 395.2 130.147 393.867C131.173 395.187 132.76 396 134.413 396C136.027 396 137.493 395.347 138.493 394.187Z" fill="#C099AF"/>
<path d="M129.987 380.667H121.987L121 390.48C120.92 391.387 121.054 392.24 121.387 393.014C122.16 394.827 123.974 396 126 396C128.054 396 129.827 394.854 130.627 393.027C130.867 392.454 131.014 391.787 131.027 391.107V390.854L129.987 380.667Z" fill="#C099AF"/>
<path opacity="0.6" d="M139.813 390.027L139.427 386.334C138.867 382.307 137.04 380.667 133.133 380.667H128.013L129 390.667C129.013 390.8 129.027 390.947 129.027 391.2C129.107 391.894 129.32 392.534 129.64 393.107C130.6 394.867 132.467 396 134.413 396C136.187 396 137.787 395.214 138.787 393.827C139.587 392.76 139.947 391.414 139.813 390.027Z" fill="#C099AF"/>
<path opacity="0.6" d="M118.786 380.667C114.866 380.667 113.053 382.307 112.48 386.374L112.12 390.04C111.986 391.467 112.373 392.854 113.213 393.934C114.226 395.254 115.786 396 117.52 396C119.466 396 121.333 394.867 122.28 393.134C122.626 392.534 122.853 391.84 122.92 391.12L123.96 380.68H118.786V380.667Z" fill="#C099AF"/>
<path d="M125.133 401.213C123.44 401.386 122.16 402.826 122.16 404.533V408.84H129.827V405C129.84 402.213 128.2 400.893 125.133 401.213Z" fill="#C099AF"/>
<circle cx="203" cy="395" r="32" fill="#EFE5EB"/>
<path opacity="0.4" d="M215.493 394.187V402.173C215.493 405.853 212.507 408.84 208.827 408.84H197.173C193.493 408.84 190.507 405.853 190.507 402.173V394.28C191.52 395.373 192.96 396 194.52 396C196.2 396 197.813 395.16 198.827 393.813C199.733 395.16 201.28 396 203 396C204.707 396 206.227 395.2 207.147 393.867C208.173 395.187 209.76 396 211.413 396C213.027 396 214.493 395.347 215.493 394.187Z" fill="#C099AF"/>
<path d="M206.987 380.667H198.987L198 390.48C197.92 391.387 198.054 392.24 198.387 393.014C199.16 394.827 200.974 396 203 396C205.054 396 206.827 394.854 207.627 393.027C207.867 392.454 208.014 391.787 208.027 391.107V390.854L206.987 380.667Z" fill="#C099AF"/>
<path opacity="0.6" d="M216.813 390.027L216.427 386.334C215.867 382.307 214.04 380.667 210.133 380.667H205.013L206 390.667C206.013 390.8 206.027 390.947 206.027 391.2C206.107 391.894 206.32 392.534 206.64 393.107C207.6 394.867 209.467 396 211.413 396C213.187 396 214.787 395.214 215.787 393.827C216.587 392.76 216.947 391.414 216.813 390.027Z" fill="#C099AF"/>
<path opacity="0.6" d="M195.786 380.667C191.866 380.667 190.053 382.307 189.48 386.374L189.12 390.04C188.986 391.467 189.373 392.854 190.213 393.934C191.226 395.254 192.786 396 194.52 396C196.466 396 198.333 394.867 199.28 393.134C199.626 392.534 199.853 391.84 199.92 391.12L200.96 380.68H195.786V380.667Z" fill="#C099AF"/>
<path d="M202.133 401.213C200.44 401.386 199.16 402.826 199.16 404.533V408.84H206.827V405C206.84 402.213 205.2 400.893 202.133 401.213Z" fill="#C099AF"/>
<circle cx="280" cy="395" r="32" fill="#EFE5EB"/>
<path opacity="0.4" d="M292.493 394.187V402.173C292.493 405.853 289.507 408.84 285.827 408.84H274.173C270.493 408.84 267.507 405.853 267.507 402.173V394.28C268.52 395.373 269.96 396 271.52 396C273.2 396 274.813 395.16 275.827 393.813C276.733 395.16 278.28 396 280 396C281.707 396 283.227 395.2 284.147 393.867C285.173 395.187 286.76 396 288.413 396C290.027 396 291.493 395.347 292.493 394.187Z" fill="#C099AF"/>
<path d="M283.987 380.667H275.987L275 390.48C274.92 391.387 275.054 392.24 275.387 393.014C276.16 394.827 277.974 396 280 396C282.054 396 283.827 394.854 284.627 393.027C284.867 392.454 285.014 391.787 285.027 391.107V390.854L283.987 380.667Z" fill="#C099AF"/>
<path opacity="0.6" d="M293.813 390.027L293.427 386.334C292.867 382.307 291.04 380.667 287.133 380.667H282.013L283 390.667C283.013 390.8 283.027 390.947 283.027 391.2C283.107 391.894 283.32 392.534 283.64 393.107C284.6 394.867 286.467 396 288.413 396C290.187 396 291.787 395.214 292.787 393.827C293.587 392.76 293.947 391.414 293.813 390.027Z" fill="#C099AF"/>
<path opacity="0.6" d="M272.786 380.667C268.866 380.667 267.053 382.307 266.48 386.374L266.12 390.04C265.986 391.467 266.373 392.854 267.213 393.934C268.226 395.254 269.786 396 271.52 396C273.466 396 275.333 394.867 276.28 393.134C276.626 392.534 276.853 391.84 276.92 391.12L277.96 380.68H272.786V380.667Z" fill="#C099AF"/>
<path d="M279.133 401.213C277.44 401.386 276.16 402.826 276.16 404.533V408.84H283.827V405C283.84 402.213 282.2 400.893 279.133 401.213Z" fill="#C099AF"/>
<circle cx="20" cy="319" r="32" fill="#EFE5EB"/>
<path opacity="0.4" d="M32.4933 318.187V326.173C32.4933 329.853 29.5066 332.84 25.8266 332.84H14.1733C10.4933 332.84 7.50659 329.853 7.50659 326.173V318.28C8.51993 319.373 9.95992 320 11.5199 320C13.1999 320 14.8133 319.16 15.8266 317.813C16.7333 319.16 18.2799 320 19.9999 320C21.7066 320 23.2266 319.2 24.1466 317.867C25.1733 319.187 26.7599 320 28.4133 320C30.0266 320 31.4933 319.347 32.4933 318.187Z" fill="#C099AF"/>
<path d="M23.987 304.667H15.987L15.0004 314.48C14.9204 315.387 15.0537 316.24 15.387 317.014C16.1604 318.827 17.9737 320 20.0004 320C22.0537 320 23.827 318.854 24.627 317.027C24.867 316.454 25.0137 315.787 25.027 315.107V314.854L23.987 304.667Z" fill="#C099AF"/>
<path opacity="0.6" d="M33.8134 314.027L33.4268 310.334C32.8668 306.307 31.0401 304.667 27.1334 304.667H22.0134L23.0001 314.667C23.0134 314.8 23.0268 314.947 23.0268 315.2C23.1068 315.894 23.3201 316.534 23.6401 317.107C24.6001 318.867 26.4668 320 28.4134 320C30.1868 320 31.7868 319.214 32.7868 317.827C33.5868 316.76 33.9468 315.414 33.8134 314.027Z" fill="#C099AF"/>
<path opacity="0.6" d="M12.7862 304.667C8.8662 304.667 7.05287 306.307 6.47953 310.374L6.11953 314.04C5.9862 315.467 6.37287 316.854 7.21287 317.934C8.2262 319.254 9.7862 320 11.5195 320C13.4662 320 15.3329 318.867 16.2795 317.134C16.6262 316.534 16.8529 315.84 16.9195 315.12L17.9595 304.68H12.7862V304.667Z" fill="#C099AF"/>
<path d="M19.1332 325.213C17.4399 325.386 16.1599 326.826 16.1599 328.533V332.84H23.8266V329C23.8399 326.213 22.1999 324.893 19.1332 325.213Z" fill="#C099AF"/>
<circle cx="97" cy="319" r="32" fill="#EFE5EB"/>
<path opacity="0.4" d="M106.44 323.96C105.654 319.253 101.134 315.427 96.3603 315.427C91.1736 315.427 86.6136 319.627 86.1736 324.8C86.0003 326.8 86.6403 328.693 87.9603 330.12C89.267 331.547 91.107 332.333 93.107 332.333H99.347C101.6 332.333 103.574 331.453 104.92 329.867C106.267 328.28 106.8 326.173 106.44 323.96Z" fill="#C099AF"/>
<path d="M94.7062 313.48C96.8638 313.48 98.6129 311.731 98.6129 309.574C98.6129 307.416 96.8638 305.667 94.7062 305.667C92.5486 305.667 90.7996 307.416 90.7996 309.574C90.7996 311.731 92.5486 313.48 94.7062 313.48Z" fill="#C099AF"/>
<path d="M103.587 315.04C105.383 315.04 106.84 313.583 106.84 311.787C106.84 309.99 105.383 308.533 103.587 308.533C101.79 308.533 100.333 309.99 100.333 311.787C100.333 313.583 101.79 315.04 103.587 315.04Z" fill="#C099AF"/>
<path d="M108.4 320.24C109.836 320.24 111 319.076 111 317.64C111 316.204 109.836 315.04 108.4 315.04C106.964 315.04 105.8 316.204 105.8 317.64C105.8 319.076 106.964 320.24 108.4 320.24Z" fill="#C099AF"/>
<path d="M86.2533 317.64C88.0501 317.64 89.5067 316.184 89.5067 314.387C89.5067 312.59 88.0501 311.134 86.2533 311.134C84.4566 311.134 83 312.59 83 314.387C83 316.184 84.4566 317.64 86.2533 317.64Z" fill="#C099AF"/>
<circle cx="174" cy="319" r="32" fill="#EFE5EB"/>
<path opacity="0.4" d="M186.493 318.187V326.173C186.493 329.853 183.507 332.84 179.827 332.84H168.173C164.493 332.84 161.507 329.853 161.507 326.173V318.28C162.52 319.373 163.96 320 165.52 320C167.2 320 168.813 319.16 169.827 317.813C170.733 319.16 172.28 320 174 320C175.707 320 177.227 319.2 178.147 317.867C179.173 319.187 180.76 320 182.413 320C184.027 320 185.493 319.347 186.493 318.187Z" fill="#C099AF"/>
<path d="M177.987 304.667H169.987L169 314.48C168.92 315.387 169.054 316.24 169.387 317.014C170.16 318.827 171.974 320 174 320C176.054 320 177.827 318.854 178.627 317.027C178.867 316.454 179.014 315.787 179.027 315.107V314.854L177.987 304.667Z" fill="#C099AF"/>
<path opacity="0.6" d="M187.813 314.027L187.427 310.334C186.867 306.307 185.04 304.667 181.133 304.667H176.013L177 314.667C177.013 314.8 177.027 314.947 177.027 315.2C177.107 315.894 177.32 316.534 177.64 317.107C178.6 318.867 180.467 320 182.413 320C184.187 320 185.787 319.214 186.787 317.827C187.587 316.76 187.947 315.414 187.813 314.027Z" fill="#C099AF"/>
<path opacity="0.6" d="M166.786 304.667C162.866 304.667 161.053 306.307 160.48 310.374L160.12 314.04C159.986 315.467 160.373 316.854 161.213 317.934C162.226 319.254 163.786 320 165.52 320C167.466 320 169.333 318.867 170.28 317.134C170.626 316.534 170.853 315.84 170.92 315.12L171.96 304.68H166.786V304.667Z" fill="#C099AF"/>
<path d="M173.133 325.213C171.44 325.386 170.16 326.826 170.16 328.533V332.84H177.827V329C177.84 326.213 176.2 324.893 173.133 325.213Z" fill="#C099AF"/>
<circle cx="251" cy="319" r="32" fill="#EFE5EB"/>
<path opacity="0.4" d="M256.987 332.334H245.013C240.333 332.334 239.32 329.654 239.707 326.374L240.907 316.374C241.213 313.787 241.667 311.667 246.2 311.667H255.8C260.333 311.667 260.787 313.787 261.093 316.374L262.093 324.707L262.293 326.374C262.307 326.48 262.32 326.587 262.333 326.694C262.613 329.827 261.52 332.334 256.987 332.334Z" fill="#C099AF"/>
<path d="M256.333 314.667C255.787 314.667 255.333 314.214 255.333 313.667V309C255.333 307.56 254.44 306.667 253 306.667H249C247.56 306.667 246.667 307.56 246.667 309V313.667C246.667 314.214 246.213 314.667 245.667 314.667C245.12 314.667 244.667 314.214 244.667 313.667V309C244.667 306.454 246.453 304.667 249 304.667H253C255.547 304.667 257.333 306.454 257.333 309V313.667C257.333 314.214 256.88 314.667 256.333 314.667Z" fill="#C099AF"/>
<path d="M262.333 326.694C262.293 326.707 262.253 326.707 262.213 326.707H245.667C245.12 326.707 244.667 326.254 244.667 325.707C244.667 325.147 245.12 324.707 245.667 324.707H262.093L262.293 326.374C262.307 326.48 262.32 326.587 262.333 326.694Z" fill="#C099AF"/>
<circle cx="328" cy="319" r="32" fill="#EFE5EB"/>
<path opacity="0.4" d="M340.493 318.187V326.173C340.493 329.853 337.507 332.84 333.827 332.84H322.173C318.493 332.84 315.507 329.853 315.507 326.173V318.28C316.52 319.373 317.96 320 319.52 320C321.2 320 322.813 319.16 323.827 317.813C324.733 319.16 326.28 320 328 320C329.707 320 331.227 319.2 332.147 317.867C333.173 319.187 334.76 320 336.413 320C338.027 320 339.493 319.347 340.493 318.187Z" fill="#C099AF"/>
<path d="M331.987 304.667H323.987L323 314.48C322.92 315.387 323.054 316.24 323.387 317.014C324.16 318.827 325.974 320 328 320C330.054 320 331.827 318.854 332.627 317.027C332.867 316.454 333.014 315.787 333.027 315.107V314.854L331.987 304.667Z" fill="#C099AF"/>
<path opacity="0.6" d="M320.786 304.667C316.866 304.667 315.053 306.307 314.48 310.374L314.12 314.04C313.986 315.467 314.373 316.854 315.213 317.934C316.226 319.254 317.786 320 319.52 320C321.466 320 323.333 318.867 324.28 317.134C324.626 316.534 324.853 315.84 324.92 315.12L325.96 304.68H320.786V304.667Z" fill="#C099AF"/>
<path d="M327.133 325.213C325.44 325.386 324.16 326.826 324.16 328.533V332.84H331.827V329C331.84 326.213 330.2 324.893 327.133 325.213Z" fill="#C099AF"/>
<circle cx="10" cy="471" r="32" fill="#EFE5EB"/>
<path d="M13.987 456.667H5.98704L5.00037 466.48C4.92037 467.387 5.05371 468.24 5.38704 469.014C6.16037 470.827 7.97371 472 10.0004 472C12.0537 472 13.827 470.854 14.627 469.027C14.867 468.454 15.0137 467.787 15.027 467.107V466.854L13.987 456.667Z" fill="#C099AF"/>
<path opacity="0.6" d="M23.8134 466.027L23.4268 462.334C22.8668 458.307 21.0401 456.667 17.1334 456.667H12.0134L13.0001 466.667C13.0134 466.8 13.0268 466.947 13.0268 467.2C13.1068 467.894 13.3201 468.534 13.6401 469.107C14.6001 470.867 16.4668 472 18.4134 472C20.1868 472 21.7868 471.214 22.7868 469.827C23.5868 468.76 23.9468 467.414 23.8134 466.027Z" fill="#C099AF"/>
<path opacity="0.6" d="M2.7862 456.667C-1.1338 456.667 -2.94713 458.307 -3.52047 462.374L-3.88047 466.04C-4.0138 467.467 -3.62713 468.854 -2.78713 469.934C-1.7738 471.254 -0.2138 472 1.51953 472C3.4662 472 5.33287 470.867 6.27953 469.134C6.6262 468.534 6.85287 467.84 6.91953 467.12L7.95953 456.68H2.7862V456.667Z" fill="#C099AF"/>
<circle cx="87" cy="471" r="32" fill="#EFE5EB"/>
<path d="M90.987 456.667H82.987L82.0004 466.48C81.9204 467.387 82.0537 468.24 82.387 469.014C83.1604 470.827 84.9737 472 87.0004 472C89.0537 472 90.827 470.854 91.627 469.027C91.867 468.454 92.0137 467.787 92.027 467.107V466.854L90.987 456.667Z" fill="#C099AF"/>
<path opacity="0.6" d="M100.813 466.027L100.427 462.334C99.8668 458.307 98.0401 456.667 94.1334 456.667H89.0134L90.0001 466.667C90.0134 466.8 90.0268 466.947 90.0268 467.2C90.1068 467.894 90.3201 468.534 90.6401 469.107C91.6001 470.867 93.4668 472 95.4134 472C97.1868 472 98.7868 471.214 99.7868 469.827C100.587 468.76 100.947 467.414 100.813 466.027Z" fill="#C099AF"/>
<path opacity="0.6" d="M79.7862 456.667C75.8662 456.667 74.0529 458.307 73.4795 462.374L73.1195 466.04C72.9862 467.467 73.3729 468.854 74.2129 469.934C75.2262 471.254 76.7862 472 78.5195 472C80.4662 472 82.3329 470.867 83.2795 469.134C83.6262 468.534 83.8529 467.84 83.9195 467.12L84.9595 456.68H79.7862V456.667Z" fill="#C099AF"/>
<circle cx="164" cy="471" r="32" fill="#EFE5EB"/>
<path d="M167.987 456.667H159.987L159 466.48C158.92 467.387 159.054 468.24 159.387 469.014C160.16 470.827 161.974 472 164 472C166.054 472 167.827 470.854 168.627 469.027C168.867 468.454 169.014 467.787 169.027 467.107V466.854L167.987 456.667Z" fill="#C099AF"/>
<path opacity="0.6" d="M177.813 466.027L177.427 462.334C176.867 458.307 175.04 456.667 171.133 456.667H166.013L167 466.667C167.013 466.8 167.027 466.947 167.027 467.2C167.107 467.894 167.32 468.534 167.64 469.107C168.6 470.867 170.467 472 172.413 472C174.187 472 175.787 471.214 176.787 469.827C177.587 468.76 177.947 467.414 177.813 466.027Z" fill="#C099AF"/>
<path opacity="0.6" d="M156.786 456.667C152.866 456.667 151.053 458.307 150.48 462.374L150.12 466.04C149.986 467.467 150.373 468.854 151.213 469.934C152.226 471.254 153.786 472 155.52 472C157.466 472 159.333 470.867 160.28 469.134C160.626 468.534 160.853 467.84 160.92 467.12L161.96 456.68H156.786V456.667Z" fill="#C099AF"/>
<circle cx="241" cy="471" r="32" fill="#EFE5EB"/>
<path d="M244.987 456.667H236.987L236 466.48C235.92 467.387 236.054 468.24 236.387 469.014C237.16 470.827 238.974 472 241 472C243.054 472 244.827 470.854 245.627 469.027C245.867 468.454 246.014 467.787 246.027 467.107V466.854L244.987 456.667Z" fill="#C099AF"/>
<path opacity="0.6" d="M254.813 466.027L254.427 462.334C253.867 458.307 252.04 456.667 248.133 456.667H243.013L244 466.667C244.013 466.8 244.027 466.947 244.027 467.2C244.107 467.894 244.32 468.534 244.64 469.107C245.6 470.867 247.467 472 249.413 472C251.187 472 252.787 471.214 253.787 469.827C254.587 468.76 254.947 467.414 254.813 466.027Z" fill="#C099AF"/>
<path opacity="0.6" d="M233.786 456.667C229.866 456.667 228.053 458.307 227.48 462.374L227.12 466.04C226.986 467.467 227.373 468.854 228.213 469.934C229.226 471.254 230.786 472 232.52 472C234.466 472 236.333 470.867 237.28 469.134C237.626 468.534 237.853 467.84 237.92 467.12L238.96 456.68H233.786V456.667Z" fill="#C099AF"/>
<circle cx="318" cy="471" r="32" fill="#EFE5EB"/>
<path d="M321.987 456.667H313.987L313 466.48C312.92 467.387 313.054 468.24 313.387 469.014C314.16 470.827 315.974 472 318 472C320.054 472 321.827 470.854 322.627 469.027C322.867 468.454 323.014 467.787 323.027 467.107V466.854L321.987 456.667Z" fill="#C099AF"/>
<path opacity="0.6" d="M331.813 466.027L331.427 462.334C330.867 458.307 329.04 456.667 325.133 456.667H320.013L321 466.667C321.013 466.8 321.027 466.947 321.027 467.2C321.107 467.894 321.32 468.534 321.64 469.107C322.6 470.867 324.467 472 326.413 472C328.187 472 329.787 471.214 330.787 469.827C331.587 468.76 331.947 467.414 331.813 466.027Z" fill="#C099AF"/>
<path opacity="0.6" d="M310.786 456.667C306.866 456.667 305.053 458.307 304.48 462.374L304.12 466.04C303.986 467.467 304.373 468.854 305.213 469.934C306.226 471.254 307.786 472 309.52 472C311.466 472 313.333 470.867 314.28 469.134C314.626 468.534 314.853 467.84 314.92 467.12L315.96 456.68H310.786V456.667Z" fill="#C099AF"/>
</g>
</g>
<defs>
<linearGradient id="paint0_linear_3979_24000" x1="165" y1="131.48" x2="165" y2="376.129" gradientUnits="userSpaceOnUse">
<stop stop-color="#EFE5EB"/>
<stop offset="1" stop-color="#F7F2F5"/>
</linearGradient>
<clipPath id="clip0_3979_24000">
<rect width="330" height="460" rx="16" fill="white"/>
</clipPath>
<clipPath id="clip1_3979_24000">
<path d="M0 215C0 201.745 10.7452 191 24 191H306C319.255 191 330 201.745 330 215V512H0V215Z" fill="white"/>
</clipPath>
</defs>
</svg>
