<svg width="330" height="460" viewBox="0 0 330 460" fill="none" xmlns="http://www.w3.org/2000/svg">
<rect width="330" height="460" rx="16" fill="#FBF8F1"/>
<path d="M0 215C0 201.745 10.7452 191 24 191H306C319.255 191 330 201.745 330 215V460H0V215Z" fill="#F7F3E8"/>
<circle cx="115" cy="317" r="70" fill="#F3EDDA"/>
<path opacity="0.4" d="M142.329 315.221V332.692C142.329 340.742 135.796 347.275 127.746 347.275H102.254C94.2042 347.275 87.6709 340.742 87.6709 332.692V315.425C89.8876 317.817 93.0376 319.188 96.4501 319.188C100.125 319.188 103.654 317.35 105.871 314.404C107.854 317.35 111.238 319.188 115 319.188C118.733 319.188 122.058 317.438 124.071 314.521C126.317 317.408 129.788 319.188 133.404 319.188C136.933 319.188 140.142 317.758 142.329 315.221Z" fill="#8A826B"/>
<path d="M123.722 285.646H106.222L104.064 307.112C103.889 309.096 104.18 310.962 104.909 312.654C106.601 316.621 110.568 319.187 115.001 319.187C119.493 319.187 123.372 316.679 125.122 312.683C125.647 311.429 125.968 309.971 125.997 308.483V307.929L123.722 285.646Z" fill="#8A826B"/>
<path opacity="0.6" d="M145.217 306.121L144.371 298.041C143.146 289.233 139.15 285.646 130.604 285.646H119.404L121.562 307.521C121.592 307.812 121.621 308.133 121.621 308.687C121.796 310.204 122.262 311.604 122.962 312.858C125.062 316.708 129.146 319.187 133.404 319.187C137.283 319.187 140.783 317.466 142.971 314.433C144.721 312.1 145.508 309.154 145.217 306.121Z" fill="#8A826B"/>
<path opacity="0.6" d="M99.2198 285.646C90.6448 285.646 86.6781 289.233 85.424 298.129L84.6365 306.15C84.3448 309.271 85.1906 312.304 87.0281 314.666C89.2448 317.554 92.6573 319.187 96.449 319.187C100.707 319.187 104.791 316.708 106.861 312.916C107.62 311.604 108.116 310.087 108.261 308.512L110.536 285.675H99.2198V285.646Z" fill="#8A826B"/>
<path d="M113.104 330.592C109.4 330.971 106.6 334.121 106.6 337.855V347.275H123.371V338.875C123.4 332.78 119.813 329.892 113.104 330.592Z" fill="#8A826B"/>
<circle cx="215" cy="317" r="73" fill="#F1EAD6" stroke="#F7F3E8" stroke-width="6"/>
<path d="M215 322.833C200.388 322.833 188.488 332.633 188.488 344.708C188.488 345.525 189.129 346.166 189.946 346.166H240.054C240.871 346.166 241.513 345.525 241.513 344.708C241.513 332.633 229.613 322.833 215 322.833Z" fill="#8A826B"/>
<path d="M228.767 312.187L225.967 309.387C227.425 307.2 228.271 304.575 228.271 301.746C228.271 294.046 222.029 287.833 214.358 287.833C206.688 287.833 200.417 294.075 200.417 301.746C200.417 309.416 206.658 315.658 214.329 315.658C217.158 315.658 219.783 314.812 221.971 313.354L224.771 316.154C225.325 316.708 226.054 316.971 226.754 316.971C227.483 316.971 228.213 316.708 228.738 316.154C229.846 315.075 229.846 313.296 228.767 312.187Z" fill="#8A826B"/>
</svg>
