<svg width="1440" height="1184" viewBox="0 0 1440 1184" fill="none" xmlns="http://www.w3.org/2000/svg">
<g clip-path="url(#clip0_4424_30296)">
<rect width="1440" height="1184" fill="url(#paint0_linear_4424_30296)"/>
<path d="M-197.2 1438.56C-314.882 1286.28 -218.468 921.364 -158.149 705.051C-109.996 538.391 -63.7391 365.968 -1.47776 208.474C179.853 -285.045 676.668 -514.499 1057.01 -72.5149C1197.37 96.2378 1268.09 318.548 1339.54 529.239C1421.28 762.026 1545.42 1152.5 1487.53 1342.25C1444.77 1488.94 1330.22 1424.53 1230.73 1324.2C1110.8 1201.51 990.518 1054.71 875.894 931.604C791.005 838.588 669.108 729.319 537.102 792.493C455.624 830.63 398.91 900.052 335.936 973.219C284.642 1034.33 229.898 1102.37 176.867 1167.13C93.8647 1259.36 -87.229 1533.91 -196.849 1438.96L-197.599 1438.91L-197.2 1438.56Z" stroke="#F7F2F5" stroke-width="2.9999" stroke-miterlimit="10"/>
<path d="M-89.4531 1264.36C-191.461 1132.27 -108.641 815.781 -55.4389 628.744C-14.328 484.216 27.7928 335.613 80.1056 198.563C242.489 -227.294 670.63 -430.596 997.264 -44.6714C1119.92 100.39 1179.26 294.14 1242.33 476.46C1312.07 678.39 1419.57 1016.27 1370.79 1181.01C1333.06 1307.69 1234.11 1252.54 1148.12 1165.1C1043.71 1059.19 939.493 932.224 840.802 825.17C766.785 744.879 662.041 650.236 547.151 704.705C476.505 738.257 427.204 797.611 373.095 861.553C328.368 914.046 282.395 974.362 235.229 1029.71C164.96 1111.07 6.59877 1347.55 -88.3752 1265.18L-88.7502 1265.16L-89.4531 1264.36Z" stroke="#F7F2F5" stroke-width="2.9999" stroke-miterlimit="10"/>
<path d="M17.9384 1089.77C-68.4195 978.226 1.90757 710.619 46.5174 552.39C81.3124 430.416 117.117 304.366 161.31 188.628C298.464 -171.468 661 -343.534 937.167 -17.2275C1040.89 105.571 1091.19 269.403 1144.36 423.632C1203.64 594.426 1294.47 880.086 1252.94 1019.32C1220.97 1126.42 1137.3 1079.76 1064.75 1005.96C976.629 916.503 888.136 808.962 804.605 718.289C741.858 650.372 653.142 570.284 556.47 616.495C496.704 644.712 454.744 695.122 409.172 749.067C371.34 793.716 332.732 844.713 292.532 891.095C233.217 959.977 98.993 1159.97 18.6647 1090.19L18.2897 1090.17L17.9384 1089.77Z" stroke="#F7F2F5" stroke-width="2.9999" stroke-miterlimit="10"/>
<path d="M125.313 915.553C54.6287 824.184 112.088 605.434 148.855 476.059C177.358 376.264 206.425 273.494 242.521 178.692C354.821 -115.618 651.003 -256.496 876.701 10.1926C961.517 110.353 1002.39 244.619 1046.03 370.781C1094.47 510.415 1168.63 743.853 1134.7 857.981C1108.46 945.877 1040.09 907.331 980.624 847.146C908.408 774.117 836.387 686.051 768.016 611.76C716.913 556.241 644.225 490.707 565.021 528.612C516.111 551.869 481.891 592.984 444.482 636.907C413.569 673.338 381.951 714.993 349.045 753.18C300.682 809.583 190.995 972.743 125.289 915.927L125.313 915.553Z" stroke="#F7F2F5" stroke-width="2.9999" stroke-miterlimit="10"/>
<path d="M233.058 741.361C178.399 670.567 222.639 500.274 251.189 399.73C273.399 322.114 296.126 242.273 324.125 168.409C411.22 -60.5152 641.398 -169.806 816.981 37.6628C882.865 115.56 914.7 219.908 948.437 317.98C986.037 426.454 1043.88 608.069 1017.21 696.691C997.092 765.032 943.634 734.95 897.638 688.03C841.356 631.056 785.407 562.815 732.547 505.304C692.715 462.158 636.429 411.204 574.717 440.428C536.686 458.35 510.183 490.544 480.912 524.821C456.918 553.034 432.266 585.721 406.678 615.339C368.893 659.239 283.719 785.941 232.659 741.712L233.058 741.361Z" stroke="#F7F2F5" stroke-width="2.9999" stroke-miterlimit="10"/>
<path d="M340.456 566.767C301.47 516.15 333.218 394.736 353.55 323.023C369.093 267.563 385.481 210.651 405.735 158.121C467.975 -5.01771 632.174 -83.0957 757.289 64.7545C804.242 120.389 827.042 194.819 851.273 264.449C878.033 341.763 919.21 471.157 900.546 534.322C886.178 583.083 848.352 561.887 815.079 528.185C775.082 487.663 735.229 438.873 697.153 397.72C668.966 366.972 628.709 330.573 584.465 351.49C557.29 364.452 538.55 386.976 517.793 411.631C500.694 432.001 483.056 454.97 464.785 476.018C437.954 507.439 377.293 597.683 340.854 566.416L340.456 566.767Z" stroke="#F7F2F5" stroke-width="2.9999" stroke-miterlimit="10"/>
<path d="M448.201 392.572C424.89 362.132 443.746 289.948 455.861 247.065C465.088 214.159 474.785 179.778 486.918 148.56C523.929 51.1826 622.149 4.31683 697.147 92.9473C725.169 126.318 738.957 170.457 753.261 212.37C769.182 258.524 794.043 336.095 782.633 373.755C774.017 402.937 751.472 390.229 731.648 370.167C707.561 346.074 683.804 316.734 661.24 292.361C644.323 273.987 620.093 252.143 594.067 264.802C577.771 272.429 566.373 286.009 554.153 300.666C543.974 312.818 533.325 326.445 522.724 339.322C506.493 357.865 470.322 412.026 448.529 393.345L448.201 392.572Z" stroke="#F7F2F5" stroke-width="2.9999" stroke-miterlimit="10"/>
<path d="M555.57 218.351C547.909 208.462 554.296 184.784 558.194 170.731C561.129 160.004 564.462 148.927 568.499 138.646C580.304 106.655 612.497 91.7507 637.051 120.388C646.142 131.496 650.894 145.717 655.295 159.54C660.75 174.558 668.569 199.883 664.766 212.437C661.902 222.039 654.636 217.819 648.263 211.397C640.484 203.382 632.799 193.868 625.395 185.876C619.748 179.876 611.922 172.611 603.363 176.963C597.947 179.256 594.265 183.915 590.207 188.551C586.947 192.484 583.288 196.769 580.005 201.077C574.728 207.141 562.694 224.82 555.922 218.749L555.57 218.351Z" stroke="#F7F2F5" stroke-width="2.9999" stroke-miterlimit="10"/>
</g>
<defs>
<linearGradient id="paint0_linear_4424_30296" x1="720" y1="0" x2="720" y2="1184" gradientUnits="userSpaceOnUse">
<stop stop-color="#F7F2F5"/>
<stop offset="1" stop-color="white"/>
</linearGradient>
<clipPath id="clip0_4424_30296">
<rect width="1440" height="1184" fill="white"/>
</clipPath>
</defs>
</svg>
