<svg width="36" height="36" viewBox="0 0 36 36" fill="none" xmlns="http://www.w3.org/2000/svg">
<path d="M13.2178 35.0582C12.2587 33.9664 12.8122 31.1725 13.1647 29.5159C13.4452 28.2384 13.7144 26.9192 14.1086 25.7023C15.2383 21.9001 18.87 19.9364 21.9406 23.0828C23.074 24.2883 23.7147 25.926 24.3516 27.4802C25.0756 29.1937 26.1977 32.0785 25.8527 33.5342C25.6025 34.6601 24.7079 34.228 23.9118 33.5191C22.9489 32.651 21.9785 31.6047 21.0535 30.729C20.3712 30.0656 19.4007 29.3036 18.4378 29.8419C17.8426 30.168 17.4484 30.7176 17.0086 31.3014C16.6523 31.7867 16.2732 32.325 15.9017 32.8367C15.3217 33.5721 14.0897 35.7254 13.2178 35.0582Z" fill="#F0E8D1"/>
<path d="M0.0331115 18.4805C0.776122 17.2333 3.6041 16.8959 5.28725 16.7178C6.58752 16.5927 7.9295 16.4372 9.20702 16.4372C13.1723 16.3349 16.1633 19.1818 14.1162 23.0788C13.3239 24.5307 11.9592 25.6453 10.6817 26.7332C9.27526 27.9539 6.87942 29.91 5.38961 30.0313C4.24098 30.1412 4.37746 29.1556 4.80583 28.1776C5.33276 26.9948 6.03027 25.7438 6.57616 24.599C6.99315 23.746 7.42151 22.586 6.61026 21.8392C6.11366 21.373 5.46921 21.1682 4.78306 20.9332C4.21064 20.7437 3.58137 20.5503 2.97862 20.357C2.09914 20.031 -0.327017 19.523 0.0369061 18.4919L0.0331115 18.4805Z" fill="#F0E8D1"/>
<path d="M11.7247 0.81906C13.1425 1.14128 14.3366 3.72666 15.0266 5.27333C15.5497 6.47125 16.1107 7.69949 16.505 8.91257C17.828 12.6542 16.0425 16.3768 11.7057 15.6338C10.0795 15.3267 8.60103 14.3752 7.16808 13.4957C5.57213 12.5366 2.97537 10.8611 2.39537 9.4812C1.93667 8.42355 2.91473 8.24916 3.97618 8.35152C5.26507 8.48799 6.66769 8.76472 7.92626 8.92773C8.86639 9.06041 10.1022 9.10969 10.5647 8.10511C10.8528 7.49099 10.849 6.81621 10.8642 6.08837C10.8642 5.48562 10.8604 4.82601 10.8566 4.19293C10.8945 3.25659 10.6254 0.792524 11.7209 0.81906H11.7285H11.7247Z" fill="#F0E8D1"/>
<path d="M32.1305 6.48247C32.2632 7.93059 30.1744 9.86393 28.9159 10.9974C27.9378 11.8655 26.9446 12.7753 25.9097 13.5297C22.7595 15.9445 18.6691 15.3986 18.0323 11.0429C17.82 9.40144 18.2711 7.69934 18.6654 6.06548C19.0862 4.24965 19.8746 1.26245 21.0081 0.288195C21.8724 -0.473769 22.3425 0.401919 22.57 1.44062C22.8391 2.70677 23.0097 4.12835 23.2409 5.37554C23.4039 6.31189 23.7413 7.49843 24.8369 7.63111C25.5117 7.71451 26.1523 7.50222 26.8498 7.28993C27.4223 7.10797 28.0478 6.89568 28.6467 6.69855C29.5489 6.44456 31.8121 5.42861 32.123 6.47869V6.48626L32.1305 6.48247Z" fill="#F0E8D1"/>
<path d="M33.0559 27.6395C31.7215 28.2119 29.2347 26.8244 27.7676 25.9753C26.6417 25.3119 25.4666 24.6523 24.4317 23.8979C21.1639 21.6461 20.4171 17.5899 24.3634 15.6376C25.8608 14.9287 27.616 14.8301 29.2916 14.7012C31.1453 14.542 34.2349 14.3676 35.5124 15.1448C36.5056 15.7324 35.8194 16.4488 34.8983 16.9871C33.7762 17.6354 32.4797 18.2343 31.3652 18.8409C30.5236 19.2844 29.5001 19.9705 29.7124 21.0547C29.8412 21.7219 30.2393 22.264 30.6563 22.863C31.0088 23.352 31.4031 23.8789 31.7746 24.3907C32.2939 25.1716 33.9581 27.0064 33.0597 27.6281H33.0559V27.6395Z" fill="#F0E8D1"/>
</svg>
