<svg width="36" height="36" viewBox="0 0 36 36" fill="none" xmlns="http://www.w3.org/2000/svg">
<path d="M13.2178 35.0583C12.2587 33.9665 12.8122 31.1727 13.1647 29.516C13.4452 28.2385 13.7144 26.9193 14.1086 25.7024C15.2383 21.9002 18.87 19.9365 21.9406 23.0829C23.074 24.2884 23.7147 25.9261 24.3516 27.4803C25.0756 29.1938 26.1977 32.0787 25.8527 33.5344C25.6025 34.6602 24.7079 34.2281 23.9118 33.5192C22.9489 32.6511 21.9785 31.6048 21.0535 30.7291C20.3712 30.0657 19.4007 29.3038 18.4378 29.8421C17.8426 30.1681 17.4484 30.7178 17.0086 31.3015C16.6523 31.7868 16.2732 32.3251 15.9017 32.8368C15.3217 33.5723 14.0897 35.7255 13.2178 35.0583Z" fill="#610037"/>
<path d="M0.0331115 18.4804C0.776122 17.2332 3.6041 16.8958 5.28725 16.7176C6.58752 16.5925 7.9295 16.4371 9.20702 16.4371C13.1723 16.3348 16.1633 19.1817 14.1162 23.0787C13.3239 24.5306 11.9592 25.6451 10.6817 26.7331C9.27526 27.9538 6.87942 29.9099 5.38961 30.0312C4.24098 30.1411 4.37746 29.1555 4.80583 28.1774C5.33276 26.9947 6.03027 25.7437 6.57616 24.5989C6.99315 23.7459 7.42151 22.5859 6.61026 21.8391C6.11366 21.3728 5.46921 21.1681 4.78306 20.9331C4.21064 20.7435 3.58137 20.5502 2.97862 20.3569C2.09914 20.0309 -0.327017 19.5229 0.0369061 18.4918L0.0331115 18.4804Z" fill="#610037"/>
<path d="M11.7247 0.818969C13.1424 1.14119 14.3366 3.72657 15.0265 5.27324C15.5496 6.47116 16.1107 7.6994 16.5049 8.91248C17.828 12.6541 16.0424 16.3767 11.7057 15.6337C10.0794 15.3266 8.60097 14.3751 7.16802 13.4956C5.57207 12.5365 2.97531 10.861 2.39531 9.48111C1.93661 8.42346 2.91467 8.24907 3.97612 8.35142C5.26501 8.4879 6.66763 8.76463 7.9262 8.92764C8.86633 9.06032 10.1021 9.1096 10.5646 8.10502C10.8527 7.4909 10.849 6.81612 10.8641 6.08827C10.8641 5.48553 10.8603 4.82592 10.8565 4.19284C10.8944 3.2565 10.6253 0.792433 11.7209 0.818969H11.7284H11.7247Z" fill="#610037"/>
<path d="M32.1305 6.48247C32.2632 7.93059 30.1744 9.86393 28.9159 10.9974C27.9378 11.8655 26.9446 12.7753 25.9097 13.5297C22.7595 15.9445 18.6691 15.3986 18.0323 11.0429C17.82 9.40144 18.2711 7.69934 18.6654 6.06548C19.0862 4.24965 19.8746 1.26245 21.0081 0.288195C21.8724 -0.473769 22.3425 0.401919 22.57 1.44062C22.8391 2.70677 23.0097 4.12835 23.2409 5.37554C23.4039 6.31189 23.7413 7.49843 24.8369 7.63111C25.5117 7.71451 26.1523 7.50222 26.8498 7.28993C27.4223 7.10797 28.0478 6.89568 28.6467 6.69855C29.5489 6.44456 31.8121 5.42861 32.123 6.47869V6.48626L32.1305 6.48247Z" fill="#610037"/>
<path d="M33.0559 27.6396C31.7215 28.212 29.2347 26.8245 27.7676 25.9754C26.6417 25.312 25.4666 24.6524 24.4317 23.898C21.1639 21.6462 20.4171 17.59 24.3634 15.6377C25.8608 14.9288 27.616 14.8302 29.2916 14.7013C31.1453 14.5421 34.2349 14.3677 35.5124 15.1449C36.5056 15.7324 35.8194 16.4489 34.8983 16.9872C33.7762 17.6355 32.4797 18.2344 31.3652 18.841C30.5236 19.2845 29.5001 19.9706 29.7124 21.0548C29.8412 21.722 30.2393 22.2641 30.6563 22.8631C31.0088 23.3521 31.4031 23.879 31.7746 24.3908C32.2939 25.1717 33.9581 27.0065 33.0597 27.6282H33.0559V27.6396Z" fill="#610037"/>
</svg>
